<?xml version="1.0" encoding="utf-8"?>
<!-- Generator: Adobe Illustrator 22.1.0, SVG Export Plug-In . SVG Version: 6.00 Build 0)  -->
<svg version="1.1" id="Layer_1" xmlns="http://www.w3.org/2000/svg" xmlns:xlink="http://www.w3.org/1999/xlink" x="0px" y="0px"
	 viewBox="0 0 504 504" style="enable-background:new 0 0 504 504;" xml:space="preserve">
<style type="text/css">
	.st0{fill:#FBC108;}
	.st1{fill:#072F54;}
</style>
<title>top-app-expedia</title>
<g id="Layer_2_1_">
	<g id="Layer_1-2">
		<rect class="st0" width="504" height="504"/>
		<path id="path4354" class="st1" d="M243.6,286.6h-13.5c-0.1,0-0.1,0-0.1,0l-11.6-14.2l-11.6,14.1c0,0-0.1,0-0.1,0H196
			c-0.1,0-0.1,0-0.2-0.1c0-0.1,0-0.1,0-0.2l17.2-20.9l-16.8-20.7c0-0.1-0.1-0.1-0.1-0.2c0.1,0,0.1-0.1,0.1-0.1h13.4
			c0.1,0,0.1,0,0.1,0.1l10.1,12.6l10.3-12.6c0,0,0.1-0.1,0.1-0.1h10.9c0.1,0,0.1,0,0.2,0.1c0,0.1,0,0.1,0,0.2l-16,19.2l18.3,22.5
			c0,0.1,0,0.1,0,0.2C243.7,286.5,243.7,286.5,243.6,286.6"/>
		<path id="path4358" class="st1" d="M316.3,251.8c-6,0-10,3.6-11.2,9.9h20.3v-0.4c0.1-5.1-3.8-9.3-8.9-9.4
			C316.4,251.8,316.4,251.8,316.3,251.8 M335.8,268.1c0,0-0.1,0.1-0.1,0.1h-30.8c0.6,7.1,5.3,11.2,12.8,11.2c4.6,0,9.6-1.6,16.5-5.3
			c0.1,0,0.2,0,0.2,0.1c0,0,0,0.1,0,0.1v9.4c0,0.1,0,0.1-0.1,0.1c-6.5,2.7-13,4.6-18.1,4.6c-13.2,0-22.8-9.7-22.8-22.9
			s9.6-22.9,22.8-22.9c12.1,0,19.8,8.1,19.8,19.3C336.2,263.8,335.9,267.9,335.8,268.1"/>
		<path id="path4362" class="st1" d="M398.3,235.6c-3.7,0-6.8-3-6.9-6.7c0,0,0,0,0,0c0-3.8,3.1-6.9,6.9-6.9s6.9,3.1,6.9,6.9l0,0
			C405.1,232.6,402,235.6,398.3,235.6C398.3,235.6,398.3,235.6,398.3,235.6 M392.7,286.6c-0.1,0-0.2,0-0.2-0.2v-41.9
			c0-0.1,0-0.2,0.1-0.2h11.1c0.1,0,0.1,0.1,0.1,0.2v41.9c0,0.1-0.1,0.2-0.1,0.2c0,0,0,0,0,0H392.7z"/>
		<path id="path4366" class="st1" d="M264,280.3c-2.2,0-4.3-0.3-6.4-0.9v-26.9c2.4-0.8,5-1.3,7.5-1.3c7.7,0,12.9,5.7,12.9,14.1
			C278,274.4,272.5,280.3,264,280.3 M267,242.6c-3.3,0-6.5,0.6-9.6,1.7h-11c-0.1,0-0.2,0.1-0.2,0.2v68.7c4.1-0.6,8-2.1,11.4-4.5
			v-20.9c2.4,0.4,4.8,0.6,7.1,0.6c15.1,0,24.9-9.1,24.9-23.1C289.6,252,280.3,242.6,267,242.6"/>
		<path id="path4370" class="st1" d="M372.5,276.8c-2.9,1.7-6.1,2.6-9.4,2.7c-6.9,0-11-4.9-11-13c0-9.4,5.2-15.4,13.4-15.4
			c2.5,0.1,4.9,0.6,7.1,1.7L372.5,276.8z M372.5,222.1v21.9c-2.9-0.9-6-1.3-9-1.4c-13.2,0-23.1,9.9-23.1,23.1
			c0,13.2,8.8,22.6,20.9,22.6c4.5-0.1,8.8-1.3,12.7-3.4v3.8c3.6-0.7,7-2.1,10-4.3v-66.9C379.8,218.2,375.9,219.7,372.5,222.1"/>
		<path id="path4374" class="st1" d="M442.4,276.7c-3.4,1.9-6.2,2.9-8.8,2.9c-7.4,0-11.7-4.9-11.7-13c0-9.2,5.2-15.4,12.9-15.4
			c2,0,4.5,0.8,7.6,2.4V276.7L442.4,276.7z M453.8,243.8c0-0.3-0.2-0.5-0.5-0.5l0,0h-9c-0.3,0-0.5,0.2-0.5,0.5v1.5h-0.2
			c-3.5-1.7-7.3-2.6-11.1-2.6c-12.4,0-22.2,10.3-22.2,23.5s8.7,22.3,21.7,22.3c3.5,0,7.9-0.3,12.1-5v5.4c3.5-0.7,6.8-2.2,9.7-4.3
			L453.8,243.8L453.8,243.8z"/>
		<path id="path4378" class="st1" d="M165.3,276.1h27.9c-0.5,3.7-1.8,7.3-3.9,10.5h-29c-3.5,0-6.5-2.7-6.8-6.2c0,0,0-0.1,0-0.2v-55
			c0-0.1,0-0.1,0-0.1c0.3-3.5,3.3-6.2,6.8-6.3h32.8c-0.5,3.8-1.8,7.4-3.9,10.6h-23.9v15H189c0.1,0,0.2,0.1,0.2,0.2v10.4
			c0,0.1-0.1,0.2-0.2,0.2h-23.7V276.1L165.3,276.1z"/>
		<path id="path4382" class="st1" d="M130.4,287.5c-2.8,0-4.5-2.2-4.5-4.8c0.2-2.5,2.3-4.3,4.8-4.1c2.5,0.2,4.3,2.3,4.1,4.8
			C134.7,285.7,132.7,287.4,130.4,287.5 M130.4,277.3c-2.9-0.1-5.4,2.3-5.4,5.2c-0.1,2.9,2.3,5.4,5.2,5.4c2.9,0.1,5.4-2.3,5.4-5.2
			c0,0,0-0.1,0-0.1c0.1-2.9-2.2-5.2-5-5.3C130.5,277.3,130.5,277.3,130.4,277.3"/>
		<path id="path4386" class="st1" d="M129.2,282.2v-2h1.3c0.7,0,1.4,0.1,1.4,0.9c0,1-0.7,1-1.5,1
			C130.4,282.2,129.2,282.2,129.2,282.2z M132.9,281.3c0-1.3-0.8-1.8-2.3-1.8h-2.4v6.3h1v-2.7h1l1.6,2.7h1.2l-1.7-2.8
			c0.9,0,1.6-0.6,1.6-1.5C132.9,281.4,132.9,281.4,132.9,281.3"/>
		<path id="path4390" class="st1" d="M463,251.3c-2.5,0-4.5-2-4.5-4.5c0-0.1,0-0.2,0-0.3c0.2-2.5,2.3-4.3,4.8-4.1
			c2.5,0.2,4.3,2.3,4.1,4.8C467.2,249.5,465.3,251.3,463,251.3 M463,241.2c-2.9-0.1-5.4,2.3-5.4,5.2c-0.1,2.9,2.3,5.4,5.2,5.4
			c2.9,0.1,5.4-2.3,5.4-5.2c0,0,0-0.1,0-0.1c0.1-2.9-2.2-5.2-5-5.3C463.1,241.2,463.1,241.2,463,241.2"/>
		<path id="path4394" class="st1" d="M461.8,246.1v-1.9h1.3c0.7,0,1.5,0.1,1.5,0.9c0,1-0.7,1-1.5,1L461.8,246.1z M465.5,245.2
			c0-1.3-0.8-1.8-2.3-1.8h-2.4v6.3h1V247h1l1.6,2.7h1.2l-1.8-2.8c0.9,0,1.6-0.7,1.6-1.6C465.5,245.3,465.5,245.3,465.5,245.2"/>
		<path id="path4398" class="st1" d="M94.5,229.3l-2-5.7l-17.2-22.9l3.1-0.8l29.6,25.6l17.4-5c2-0.4,4.1-0.7,6.1-0.6
			c-11.6-25.1-41.5-36.1-66.6-24.4c-20.2,9.4-31.8,31-28.5,53L78,234.1L94.5,229.3z"/>
		<path id="path4402" class="st1" d="M133.3,224.4c-1.9,1.2-3.9,2.2-6,3l-17.4,5l-11.6,37.4l-3,1l2.5-28.5l-1.4-5.9L80,241
			l-43.2,10.1c5.5,27.2,32.1,44.7,59.2,39.1c27.2-5.5,44.7-32.1,39.1-59.2C134.7,228.8,134.1,226.6,133.3,224.4"/>
		<path id="path4406" class="st0" d="M96.3,236.3l1.4,5.9l-2.5,28.5l3-1l11.6-37.4l17.4-5c2.1-0.7,4.1-1.7,6-3
			c-0.6-1.5-1.1-3-1.8-4.5c-2.1,0-4.1,0.2-6.1,0.6l-17.4,5l-29.5-25.6l-3.1,0.8l17.2,22.9l2,5.7L78,234l-41.7,14.5
			c0.1,0.9,0.3,1.7,0.5,2.6L80,240.9L96.3,236.3L96.3,236.3z"/>
	</g>
</g>
</svg>
