<?xml version="1.0" encoding="utf-8"?>
<!-- Generator: Adobe Illustrator 22.1.0, SVG Export Plug-In . SVG Version: 6.00 Build 0)  -->
<svg version="1.1" id="Layer_1" xmlns="http://www.w3.org/2000/svg" xmlns:xlink="http://www.w3.org/1999/xlink" x="0px" y="0px"
	 viewBox="0 0 504 504" style="enable-background:new 0 0 504 504;" xml:space="preserve">
<style type="text/css">
	.st0{fill:url(#SVGID_1_);}
	.st1{fill:#FFFFFF;}
</style>
<title>freq-app-fb</title>
<g id="Layer_2_1_">
	<g id="Layer_1-2">
		
			<linearGradient id="SVGID_1_" gradientUnits="userSpaceOnUse" x1="252" y1="504" x2="252" y2="0" gradientTransform="matrix(1 0 0 -1 0 504)">
			<stop  offset="0" style="stop-color:#38B6FF"/>
			<stop  offset="1" style="stop-color:#1469E6"/>
		</linearGradient>
		<rect class="st0" width="504" height="504"/>
		<path class="st1" d="M359.5,74.1L303.7,74c-62.6,0-103.1,41.5-103.1,105.8v48.8h-56.1c-4.8,0-8.8,3.9-8.8,8.7c0,0,0,0,0,0v70.7
			c0,4.8,3.9,8.8,8.8,8.8h56.1v178.4c0,4.8,3.9,8.8,8.8,8.8h73.2c4.8,0,8.8-3.9,8.8-8.8V316.9h65.6c4.8,0,8.8-3.9,8.8-8.8
			c0,0,0,0,0,0v-70.7c0-4.8-3.9-8.8-8.8-8.8h-65.6v-41.4c0-19.9,4.7-30,30.6-30h37.6c4.8,0,8.8-3.9,8.8-8.8V82.9
			C368.2,78,364.3,74.1,359.5,74.1z"/>
	</g>
</g>
</svg>
