<?xml version="1.0" encoding="utf-8"?>
<!-- Generator: Adobe Illustrator 22.1.0, SVG Export Plug-In . SVG Version: 6.00 Build 0)  -->
<svg version="1.1" id="Layer_1" xmlns="http://www.w3.org/2000/svg" xmlns:xlink="http://www.w3.org/1999/xlink" x="0px" y="0px"
	 viewBox="0 0 504 504" style="enable-background:new 0 0 504 504;" xml:space="preserve">
<style type="text/css">
	.st0{fill:#FFFFFF;}
	.st1{fill:#1AAE48;}
</style>
<title>freq-app-grab</title>
<g id="Layer_2_1_">
	<g id="Layer_1-2">
		<rect class="st0" width="504" height="504"/>
		<path class="st1" d="M447,232.1c-9.6-9.8-22.7-15.3-36.4-15.3c-10,0-20,3.7-25.5,7.4c-11.4,7.6-20.8,15.8-37.6,37.6v15.7
			c14.3-18.7,27.9-33.4,38.1-41.4c7.2-5.6,15.9-8.6,25-8.8c22.3,0,41.2,18.9,41.2,41.2v9.4c-0.1,22.7-18.5,41.1-41.2,41.2
			c-18.4,0-34.5-12.6-38.9-29.8l-7.4,9c5.4,18,24.8,31.3,46.3,31.3c28.5-0.2,51.5-23.2,51.7-51.7v-9.4
			C462.2,254.8,456.7,241.7,447,232.1 M222.7,227.3c6.6-0.1,13.1,1.5,18.8,4.7c2.3-2.8,4.7-5.4,7.2-7.9c-5.9-4.5-15.8-7.3-26-7.3
			c-14.5,0-27.8,5.2-37.2,14.8S171,254.1,171,268.5v61.1h10.5v-61.1C181.5,244.2,198.5,227.3,222.7,227.3 M322.2,329.6v-61.1
			c-0.6-18.5-16.2-33-34.7-32.3c-17.6,0.6-31.7,14.7-32.3,32.3v9.4c0,18.2,15.4,33.5,33.5,33.5c5,0,11.8-1.2,15.9-4.6v-11.1
			c-4.6,3.5-10.2,5.3-16,5.2c-12.6,0.1-22.9-10-23-22.6v-9.9c-0.1-12.6,10-22.9,22.6-23h0.5c12.6-0.1,22.8,9.9,23,22.5
			c0,0.2,0,0.3,0,0.5v61.1L322.2,329.6z M41.7,262.4v3.4c-0.1,17.9,6.9,35,19.4,47.7c12.5,12.6,29.4,19.6,47.1,19.5
			c14.4,0,27.1-3.3,37.9-9.7c8.9-5.3,12.8-10.6,13.1-11.1v-56.4h-53.6v10.5h43.1V309l0,0c-5.1,5.1-17,13.5-40.5,13.5
			c-15,0.1-29.4-5.8-39.9-16.5c-10.5-10.8-16.3-25.2-16.1-40.3v-3.4c0-14.5,6.5-29,18-39.8c11.6-10.9,26.9-17,42.8-16.9
			c14.9,0,25.2,2.3,33.5,7.3v-11.8c-8.7-3.7-19-5.3-33.5-5.3C74.4,195.9,41.8,226.4,41.7,262.4 M222.8,245.4c3.4-0.1,6.9,0.6,10,2
			c1.3-3.2,2.8-6.3,4.6-9.2c-2.9-2-9.6-3.3-14.6-3.3c-19.1,0-33.5,14.4-33.5,33.5v61.1h10.5v-61.1
			C199.7,254.9,209.2,245.4,222.8,245.4 M146.5,233.2v-12.4c-9.5-5.1-19.8-7.4-33.5-7.4c-13.8-0.1-27.2,5.1-37.4,14.4
			c-10.1,9.3-15.7,21.6-15.7,34.6v3.4c0,27,21.7,49,48.3,49c21.7,0,30.6-7.1,32.8-9.4V274h-35.4v10.5h25.6v15.8h-0.1
			c-3.3,1.3-10.1,4-23,4c-10.1,0-19.7-4-26.8-11.1c-7.2-7.3-11.2-17.1-11.1-27.4v-3.4c0-20.9,19.5-38.5,42.6-38.5
			C128.9,223.8,138.3,226.4,146.5,233.2 M393.6,252.8c4.5-4.6,10.5-7.3,17-7.4c12.6-0.1,22.9,9.9,23.1,22.5c0,0,0,0.1,0,0.1
			c0,0.2,0,0.3,0,0.5v9.4c0.1,12.6-10,22.9-22.6,23.1c0,0,0,0,0,0h-0.5c-6.3,0-12.3-3.5-17-9.7c-4.2-5.7-6.8-12.5-7.3-19.6
			l-8.5,10.4c1.7,8,5.7,15.3,11.7,20.8c5.8,5.4,13.3,8.4,21.2,8.5c18.5,0,33.5-15,33.5-33.5v-9.4c-0.3-18.4-15.2-33.2-33.6-33.5
			c-5.5,0-14.3,2-24.8,11.4l0,0c-2.8,2.8-9.4,9.4-13.4,14.1c-6.7,7.4-16.5,18.5-24.9,29.6v16.4c9.3-11.9,14.6-18.6,23.3-28.6
			C378.6,268.7,388.2,257.7,393.6,252.8 M237,277.9c0.2,28.5,23.2,51.5,51.7,51.7c5.5,0.1,10.9-1.1,15.9-3.3v-10.5
			c-5,2.1-10.4,3.2-15.9,3.3c-22.3,0-41.2-18.9-41.2-41.2v-9.4c0-22.4,18.9-41.2,41.2-41.2c22.6-0.1,41.1,18.1,41.2,40.8
			c0,0.2,0,0.3,0,0.5v61.1h10.5v-63.1c-0.6-13.3-6.4-25.9-16-35.2c-20.7-19.7-53.4-19-73.1,1.7c-9.1,9.6-14.2,22.3-14.3,35.5V277.9z
			 M358.2,237.4c3.1-4,6.7-7.7,10.5-11.1V171h-10.5V237.4z M376.4,222v-51h10.5v43.9C383.2,216.9,379.6,219.3,376.4,222"/>
	</g>
</g>
</svg>
