<?xml version="1.0" encoding="utf-8"?>
<!-- Generator: Adobe Illustrator 22.1.0, SVG Export Plug-In . SVG Version: 6.00 Build 0)  -->
<svg version="1.1" id="Layer_1" xmlns="http://www.w3.org/2000/svg" xmlns:xlink="http://www.w3.org/1999/xlink" x="0px" y="0px"
	 viewBox="0 0 504 504" style="enable-background:new 0 0 504 504;" xml:space="preserve">
<style type="text/css">
	.st0{fill:#FFFFFF;}
	.st1{fill:#2EBD59;}
</style>
<title>frek-app-grab</title>
<g id="Layer_2_1_">
	<g id="Layer_1-2">
		<rect class="st0" width="504" height="504"/>
		<circle cx="256" cy="252" r="158"/>
		<path class="st1" d="M252,68.6C150.7,68.6,68.6,150.7,68.6,252S150.7,435.4,252,435.4S435.4,353.3,435.4,252
			C435.4,150.7,353.3,68.6,252,68.6z M336.1,333.1c-3.3,5.4-10.3,7.1-15.7,3.8c0,0,0,0,0,0c-43.1-26.3-97.3-32.3-161.1-17.7
			c-6.2,1.4-12.3-2.4-13.7-8.6s2.4-12.3,8.6-13.7C224,281,284,287.9,332.3,317.4C337.7,320.7,339.4,327.7,336.1,333.1
			C336.1,333.1,336.1,333.1,336.1,333.1z M358.6,283.2c-4.1,6.7-12.9,8.8-19.7,4.7c-49.3-30.3-124.5-39.1-182.8-21.4
			c-7.5,2.4-15.6-1.7-18-9.2c-2.4-7.5,1.7-15.6,9.2-18c0.2-0.1,0.4-0.1,0.6-0.2c66.6-20.2,149.4-10.4,206.1,24.4
			C360.6,267.7,362.7,276.4,358.6,283.2C358.6,283.2,358.6,283.2,358.6,283.2L358.6,283.2z M360.5,231.2
			c-59.1-35.1-156.6-38.3-213.1-21.2c-9.1,2.7-18.6-2.4-21.4-11.4c-2.7-9.1,2.4-18.6,11.4-21.4c64.8-19.7,172.5-15.9,240.6,24.5
			c8.1,5,10.5,15.6,5.6,23.6C378.7,233.1,368.5,235.7,360.5,231.2L360.5,231.2z"/>
	</g>
</g>
</svg>
