<?xml version="1.0" encoding="utf-8"?>
<!-- Generator: Adobe Illustrator 22.1.0, SVG Export Plug-In . SVG Version: 6.00 Build 0)  -->
<svg version="1.1" id="Layer_1" xmlns="http://www.w3.org/2000/svg" xmlns:xlink="http://www.w3.org/1999/xlink" x="0px" y="0px"
	 viewBox="0 0 504 504" style="enable-background:new 0 0 504 504;" xml:space="preserve">
<style type="text/css">
	.st0{fill:url(#SVGID_1_);}
	.st1{fill:#EE1D52;}
	.st2{fill:#FFFFFF;}
	.st3{fill:#69C9D0;}
</style>
<title>freq-app-tiktok</title>
<g id="Layer_2_1_">
	<g id="Layer_1-2">
		
			<radialGradient id="SVGID_1_" cx="252" cy="252" r="252" gradientTransform="matrix(1 0 0 -1 0 504)" gradientUnits="userSpaceOnUse">
			<stop  offset="0" style="stop-color:#300B1D"/>
			<stop  offset="1" style="stop-color:#170F1C"/>
		</radialGradient>
		<rect class="st0" width="504" height="504"/>
		<path class="st1" d="M108.5,377.1l1.1,3.2C109.5,380,109.1,378.8,108.5,377.1z M154.2,303.3c2-17.5,8.9-27.3,21.9-37.3
			c18.6-13.6,41.7-5.9,41.7-5.9v-45.6c5.6-0.1,11.2,0.2,16.8,1.1v58.7c0,0-23.1-7.7-41.7,5.9C179.9,290.2,173,300,171,317.5
			c-0.1,9.5,1.6,21.9,9.5,32.6c-2-1.1-3.9-2.3-6-3.6C157.3,334.4,154.1,316.2,154.2,303.3L154.2,303.3z M330.2,130.1
			c-12.7-14.6-17.6-29.3-19.3-39.7h16c0,0-3.1,27.1,20.1,53.8l0.4,0.4C341,140.5,335.3,135.6,330.2,130.1L330.2,130.1z M407.5,171.4
			v57.5c0,0-20.5-0.9-35.6-4.9c-21.2-5.6-34.7-14.3-34.7-14.3s-9.4-6.2-10.1-6.6V322c0,6.6-1.8,23.1-7,36.9
			c-10.1,26.1-30,47.3-55.4,59.1c-20.6,9.7-38.7,9.5-44.2,9.7c0,0-31.3,1.3-59.5-17.8c-6.1-4.2-11.8-9-17-14.3l0.1,0.1
			c28.2,19.1,59.5,17.8,59.5,17.8c5.4-0.2,23.6,0,44.2-9.7c25.4-11.7,45.3-32.9,55.4-59.1c5.3-13.8,7-30.3,7-36.9V189.1
			c0.8,0.4,10.1,6.6,10.1,6.6s13.6,8.6,34.8,14.3c15.2,4,35.6,4.9,35.6,4.9v-45.1C397.7,171.4,403.6,171.8,407.5,171.4z"/>
		<path class="st2" d="M390.6,169.7v45.1c0,0-20.5-0.8-35.6-4.9c-21.2-5.6-34.7-14.3-34.7-14.3s-9.4-6.2-10.1-6.6v118.8
			c0,6.6-1.8,23.1-7,36.9c-10.1,26.1-30,47.3-55.4,59.1c-20.6,9.7-38.8,9.5-44.2,9.7c0,0-31.3,1.3-59.5-17.8l-0.1-0.1
			c-3-3-5.7-6.2-8.4-9.5c-9-11.5-14.5-25-15.9-28.8v-0.1c-2.3-6.7-6.9-22.9-6.3-38.4c1.1-27.5,10.4-44.4,12.9-48.7
			c6.5-11.5,15-21.9,25-30.5c8.9-7.5,18.9-13.4,29.7-17.6c11.7-4.9,24.2-7.5,36.8-7.7V260c0,0-23.1-7.7-41.7,5.9
			c-12.9,10.1-19.8,19.8-21.9,37.3c-0.1,12.9,3.1,31.1,20.4,43.2c2,1.3,4,2.5,6,3.6c3,4.1,6.7,7.7,10.9,10.6
			c17,11.2,31.1,12,49.2,4.7c12.1-4.9,21.2-15.8,25.4-27.9c2.7-7.6,2.6-15.2,2.6-23.1v-224h42.2c2.6,14.8,9.3,28.5,19.3,39.7
			c5.1,5.5,10.9,10.4,17.2,14.5c1.8,2,11.3,11.9,23.6,18c6.3,3.2,12.9,5.6,19.8,7.2L390.6,169.7z"/>
		<path class="st3" d="M102.8,343.4l1,3C103.7,346.1,103.3,345,102.8,343.4z"/>
		<path class="st3" d="M180.9,222.2c-10.8,4.2-20.8,10.1-29.7,17.6c-10.1,8.7-18.5,19-25,30.6c-2.5,4.2-11.7,21.1-12.9,48.7
			c-0.6,15.6,4.1,31.7,6.3,38.4v0.1c1.4,3.8,6.9,17.4,15.9,28.8c2.6,3.3,5.4,6.5,8.4,9.5c-9.5-6.6-18-14.6-25.2-23.6
			c-6.6-8.7-12-18.4-15.8-28.7v-0.1c-2.3-6.7-7-22.9-6.3-38.5c1.1-27.5,10.4-44.4,12.9-48.7c6.5-11.6,14.9-21.9,25-30.6
			c8.8-7.5,18.9-13.4,29.7-17.6c17-7.1,35.5-9.4,53.7-6.7v13.1C205.1,214.6,192.6,217.2,180.9,222.2L180.9,222.2z"/>
		<path class="st3" d="M310.9,90.4h-42.2v224c0,7.9,0,15.5-2.6,23.1c-4.3,12.1-13.4,23.1-25.4,27.9c-18.1,7.3-32.3,6.5-49.2-4.7
			c-4.2-2.9-7.9-6.5-10.9-10.5c14.4,7.7,27.3,7.5,43.2,1.1c12.1-4.9,21.2-15.8,25.4-27.9c2.7-7.6,2.6-15.2,2.6-23.1v-224h58.3
			C310,76.3,309.4,81.8,310.9,90.4z M390.6,157.3v12.4c-6.8-1.6-13.5-4-19.8-7.2c-12.2-6.1-21.7-16-23.6-18c2.2,1.4,4.4,2.7,6.7,3.9
			C368.9,155.8,383.5,158.1,390.6,157.3L390.6,157.3z"/>
	</g>
</g>
</svg>
