<?xml version="1.0" encoding="utf-8"?>
<!-- Generator: Adobe Illustrator 22.1.0, SVG Export Plug-In . SVG Version: 6.00 Build 0)  -->
<svg version="1.1" id="Layer_1" xmlns="http://www.w3.org/2000/svg" xmlns:xlink="http://www.w3.org/1999/xlink" x="0px" y="0px"
	 viewBox="0 0 504 504" style="enable-background:new 0 0 504 504;" xml:space="preserve">
<style type="text/css">
	.st0{fill:#05AD8C;}
	.st1{fill:#FFFFFF;}
	.st2{fill:#BE3538;}
	.st3{fill:#589442;}
	.st4{fill:none;}
	.st5{fill:#FFD881;}
</style>
<title>top-app-tripadvisor</title>
<g id="Layer_2_1_">
	<g id="Layer_1-2">
		<rect class="st0" width="504" height="504"/>
		<g id="Owl">
			<path class="st1" d="M267.2,245.6c16.8,47.3,70.1,71.6,117.4,53.4c47.3-16.8,71.6-70.1,53.4-117.4
				c-16.8-47.3-70.1-71.7-117.4-53.4C274.9,144.9,250.5,198.3,267.2,245.6z"/>
			<circle class="st1" cx="151.4" cy="213.5" r="91.5"/>
			<path class="st2" d="M166.6,212c0,9.3-7.5,16.8-16.8,16.8c-9.3,0-16.8-7.5-16.8-16.8c0-9.3,7.5-16.8,16.8-16.8
				C159.1,195.3,166.5,202.8,166.6,212z"/>
			<path class="st3" d="M369.4,212c0,9.3-7.5,16.8-16.8,16.8c-9.3,0-16.8-7.5-16.8-16.8c0-9.3,7.5-16.8,16.8-16.8l0,0
				C361.8,195.3,369.3,202.8,369.4,212z"/>
			<path d="M99.6,212c0,27.4,22.9,50.3,50.3,50.3s50.3-22.9,50.3-50.3s-22.9-50.3-50.3-50.3S99.6,184.6,99.6,212z M116.3,212
				c0-18.5,15-33.5,33.5-33.5s33.5,15,33.5,33.5s-15,33.5-33.5,33.5c0,0,0,0,0,0C131.4,245.4,116.5,230.5,116.3,212z M302.3,212
				c0,27.4,22.9,50.3,50.3,50.3s50.3-22.9,50.3-50.3s-22.9-50.3-50.3-50.3S302.3,184.6,302.3,212L302.3,212z M320.6,212
				c0-18.5,15-33.5,33.5-33.5s33.5,15,33.5,33.5c0,18.5-15,33.5-33.5,33.5C334.3,245.6,320.6,230.3,320.6,212L320.6,212z"/>
			<path class="st4" d="M285.5,257.8c8.1,12.7,19.8,22.8,33.5,29c19.8,9.1,41.2,10.7,62.5,3c42.7-15.3,64-62.5,47.3-103.7
				c-15.2-42.7-62.5-64-103.7-47.3c-20.2,7.8-36.6,23.1-45.7,42.7c-5.7,12.9-7.8,27.1-6.1,41.2"/>
			<path class="st5" d="M317.5,119c10.7-4.6,21.3-6.1,32-6.1c-29-13.7-62.5-19.8-99.1-19.8s-70.1,6.1-99.1,19.8
				c53.3,1.5,96,42.7,99.1,94.5c1.5-12.2,3-24.4,9.1-35.1C271.2,147.7,292,128.5,317.5,119z"/>
			<path d="M434.9,152.6c4.6-19.8,19.8-41.2,19.8-41.2h-67.1C349.6,87,303.8,73.3,252,73.3c-53.4,0-100.6,13.7-138.7,38.1l-64,1.5
				c0,0,15.2,19.8,19.8,41.2c-12.2,16.8-19.8,36.6-19.8,59.4c-0.1,56.3,45.5,102,101.7,102.1c31,0.1,60.3-14,79.7-38.1l21.3,32
				l21.3-32c9.6,12.5,22.2,22.5,36.6,29c24.6,10.9,52.4,12,77.7,3c52.5-19.9,79-78.5,59.5-131.1
				C445.6,169.3,441.1,160.2,434.9,152.6L434.9,152.6z M252,93.1c36.6,0,70.1,6.1,99.1,19.8c-10.7,0-21.3,1.5-32,6.1
				c-25.9,9.1-45.7,27.4-56.4,53.4c-4.6,11.2-7.7,23-9.1,35.1c-3-51.8-47.3-93-99.1-94.5C181.9,99.2,215.4,93.1,252,93.1L252,93.1z
				 M218.5,259.3c-15.2,21.3-39.6,35.1-67.1,35.1c-44.2,0-80.8-36.6-80.8-80.8s36.6-80.8,80.8-80.8c44.4-0.2,80.5,35.5,80.8,79.9
				c0,0.3,0,0.6,0,0.9c0,3.1,0,4.6-1.5,7.6C229.1,234.9,226.1,247.1,218.5,259.3L218.5,259.3z M381.6,289.8
				c-19.8,7.6-42.7,6.1-62.5-3c-13.8-6.2-25.4-16.3-33.5-29c-3.4-5.4-6.4-11-9.1-16.8c-3-6.1-3-13.7-4.6-19.8
				c-1.5-13.7,0-29,6.1-41.2c9.1-19.6,25.5-34.9,45.7-42.7c42.7-15.2,88.4,6.1,103.7,47.3C445.6,227.3,422.7,274.5,381.6,289.8
				L381.6,289.8z"/>
		</g>
		<path d="M68.3,355.4l-8.3,2.9v10.3h-9.1v7h8.7v22.8c0,10.8,3.7,15.3,12.8,15.3c2.2,0,4.4-0.3,6.6-0.8h0.4v-7.5H79
			c-1.4,0.4-2.7,0.7-4.1,0.8c-4.1,0-5.8-2.5-5.8-8.7v-21.9h10.4v-7H69.1V355L68.3,355.4z M96,375.7v-7h-8.2v44.3h9.1v-22.4
			c0-9.1,3.7-14.5,11.2-14.5c1.1,0,2.2,0.1,3.3,0.4h0.4v-8.3l-3.7-0.4C102.9,367.9,98.2,371,96,375.7L96,375.7z M160.1,367.4
			c-6.2,0-11.2,2.9-14.9,8.3v-7H137v62h9.1v-24c3.3,4.5,7.9,6.6,13.6,6.6c11.2,0,18.6-9.1,18.6-23.6
			C178.4,376.5,170.9,367.4,160.1,367.4L160.1,367.4z M157.6,406.3c-7,0-11.6-6.2-11.6-15.7s4.6-15.3,12-15.3
			c7,0,11.2,5.8,11.2,15.3C168.8,400.1,164.7,406.3,157.6,406.3z"/>
		<path class="st1" d="M321.1,355.8c0,3,2.4,5.4,5.4,5.4s5.4-2.4,5.4-5.4s-2.4-5.4-5.4-5.4C323.5,350.5,321.1,352.9,321.1,355.8z"/>
		<path class="st1" d="M204.4,367.4c-5.4,0-10.3,0.8-14.5,3.3h-0.4v7.4h0.8c3.6-2.3,7.7-3.6,12-3.7c6.6,0,10.4,3.7,10.4,10.3v0.4h-5
			c-14.9,0-22.8,5.4-22.8,14.9c0,7.9,5.8,13.2,14.1,13.2c5.7,0.1,11.1-2.5,14.5-7v6.2h8.3V386C220.9,373.6,215.6,367.4,204.4,367.4
			L204.4,367.4z M212.3,394.3c0,7.4-4.6,12.4-11.6,12.4c-4.1,0-7.4-2.9-7.4-7c0-5.4,5-8.3,14.5-8.3h4.6V394.3L212.3,394.3z
			 M259,347.5v26.9c-3.1-4.5-8.2-7.1-13.6-7c-10.8,0-18.2,9.1-18.2,22.3c0,13.6,7.4,23.6,18.2,23.6c6,0.1,11.5-3.1,14.5-8.3v7.5h8.3
			v-65H259z M247.4,405.9c-6.6,0-11.2-5.8-11.2-15.7c0-9.5,4.1-15.7,10.8-15.7c7.4,0,12,5.8,12,15.7S254.5,405.9,247.4,405.9
			L247.4,405.9z M307.8,368.6L295,394.3l-11.6-25.6h-9.9l21.5,44.3l22.3-44.3L307.8,368.6z M330.2,368.6h-8.3v44.3h9.1v-44.3H330.2z
			 M341.3,379.8c0,6.2,4.1,9.5,12,13.2c5,2.5,7.5,3.7,7.5,7.4s-3.3,5.8-8.3,5.8c-3.9,0-7.7-1-11.2-2.9l-0.8-0.4l-0.4,7.9h0.4
			c3.7,1.5,7.6,2.2,11.6,2.1c10.8,0,18.2-5.4,18.2-13.2c0-6.6-4.5-10.4-12.4-13.7c-5.8-2.5-7.9-4.1-7.9-7c0-2.5,2.5-4.5,6.6-4.5
			c3.7,0,7.4,0.8,10.8,2.5l0.8,0.4l0.4-7.5h-0.4c-3.5-1.1-7.1-1.7-10.8-1.7C348,368.3,341.3,372.8,341.3,379.8L341.3,379.8z
			 M398.4,367.4c-13.6,0-21.9,8.7-21.9,23.2s8.3,23.2,21.9,23.2s21.9-8.7,21.9-23.2S412.1,367.4,398.4,367.4L398.4,367.4z
			 M398.4,406.3c-7.4,0-12.4-6.2-12.4-15.7s5-16.1,12.4-16.1s12.4,6.2,12.4,16.1C410.9,400.1,406.3,406.3,398.4,406.3L398.4,406.3z
			 M436.9,375.7v-7h-8.3v44.3h9.1v-22.4c0-9.1,3.7-14.5,11.2-14.5c1.1,0,2.2,0.1,3.3,0.4h0.4l0.4-8.7l-3.7-0.4
			C443.9,367.6,439.1,370.8,436.9,375.7z"/>
		<path d="M127.9,368.6h-8.3v44.3h8.7v-44.3H127.9z M118.4,355.8c0,3,2.4,5.4,5.4,5.4s5.4-2.4,5.4-5.4c0-3-2.4-5.4-5.4-5.4
			C120.8,350.5,118.4,352.9,118.4,355.8z"/>
	</g>
</g>
</svg>
