<svg xmlns="http://www.w3.org/2000/svg" viewBox="0 0 504 504"><defs><style>.cls-1{fill:#7b519d;}.cls-2{fill:#fff;}</style></defs><title>top-app-viber</title><g id="Layer_2" data-name="Layer 2"><g id="Layer_1-2" data-name="Layer 1"><rect class="cls-1" width="504" height="504"/><path class="cls-2" d="M369,315.07c-8.6-6.92-17.79-13.13-26.83-19.48-18-12.68-34.55-13.66-48,6.73-7.56,11.44-18.15,11.95-29.22,6.92-30.5-13.83-54.06-35.14-67.86-66.15-6.11-13.72-6-26,8.26-35.73,7.56-5.13,15.18-11.2,14.57-22.41-.8-14.62-36.3-63.48-50.32-68.64a25.46,25.46,0,0,0-17.47,0c-32.88,11-46.49,38.09-33.45,70.09,38.9,95.5,107.35,162,201.59,202.56,5.37,2.31,11.34,3.23,14.36,4.06,21.45.22,46.59-20.45,53.85-41,7-19.74-7.78-27.57-19.47-37Zm-105.66-189C332.21,136.69,364,169.45,372.76,238.84c.81,6.41-1.57,16,7.57,16.23,9.56.18,7.25-9.32,7.33-15.73.81-65.35-56.17-125.94-122.34-128.17-5,.72-15.33-3.44-16,7.75-.43,7.54,8.27,6.3,14,7.18Z"/><path class="cls-2" d="M276.8,145.13c-6.63-.8-15.37-3.92-16.92,5.27-1.62,9.65,8.13,8.67,14.39,10.07,42.55,9.51,57.37,25,64.37,67.2,1,6.16-1,15.73,9.45,14.15,7.75-1.18,5-9.39,5.6-14.19.34-40.52-34.38-77.4-76.89-82.5Z"/><path class="cls-2" d="M280.71,178.26c-4.43.11-8.77.59-10.39,5.31-2.45,7.07,2.69,8.75,7.92,9.59,17.45,2.81,26.64,13.1,28.38,30.5.47,4.73,3.47,8.56,8,8,6.33-.76,6.9-6.39,6.71-11.73.31-19.56-21.79-42.16-40.65-41.69Z"/></g></g></svg>