<svg xmlns="http://www.w3.org/2000/svg" viewBox="0 0 504 504"><defs><style>.cls-1{fill:#ff7977;}.cls-2{fill:#fff;}</style></defs><title>travel-3</title><g id="Layer_2" data-name="Layer 2"><g id="Layer_1-2" data-name="Layer 1"><rect class="cls-1" width="504" height="504"/><path class="cls-2" d="M365.54,262.56a57.9,57.9,0,0,0-4.29-20.48c-2-5-4.27-10-6.51-14.89Q328,168.89,298.6,111.84c-2.75-5.31-5.45-10.66-8.36-15.89a56.45,56.45,0,0,0-10.49-14,41,41,0,0,0-25.57-11.06h-4.36a40.89,40.89,0,0,0-26.25,11.39A56.77,56.77,0,0,0,213.43,96c-2.87,5.14-5.53,10.4-8.23,15.63q-19.72,38.27-38.26,77.11c-7.37,15.5-14.68,31-21.71,46.67-2.91,6.52-5.55,13.26-6.54,20.38a52,52,0,0,0,30.73,55.3,53,53,0,0,0,24,4.26c11-.59,21.59-4.54,30.89-10.3,10.37-6.37,19.25-14.84,27.51-23.7,7.68,8.28,15.9,16.18,25.39,22.37,9.17,6,19.62,10.4,30.61,11.44a52.16,52.16,0,0,0,54-32.54,51.63,51.63,0,0,0,3.69-20ZM251.9,257.92c-3-3.53-5.64-7.34-8.29-11.13a137.47,137.47,0,0,1-11.79-20.62,67.54,67.54,0,0,1-5.65-18.83c-.62-5.19-.47-10.61,1.43-15.53a23,23,0,0,1,9.13-11.27c9.89-6.38,24-5.69,33,2.05A24,24,0,0,1,277.6,198c.89,7.8-.88,15.64-3.61,22.91-5.14,13.51-13.28,25.61-22.09,37Zm97,16.55a36.8,36.8,0,0,1-17.31,21.69,37.8,37.8,0,0,1-24.46,4.14c-10.57-1.65-20.06-7.26-28.28-13.88a149.7,149.7,0,0,1-16.7-16.13c8.23-10.41,16-21.3,21.91-33.2,5.16-10.42,9.09-21.72,9.46-33.44A43.88,43.88,0,0,0,288.88,182a39.73,39.73,0,0,0-22-18.94,45.15,45.15,0,0,0-27.33-.85,39.57,39.57,0,0,0-29.19,35.61c-.94,11,1.8,21.88,6,31.95,6.18,14.71,15.24,28,25.24,40.38a138.7,138.7,0,0,1-14.64,14.55c-8.13,6.88-17.42,12.86-28,15.14a38.33,38.33,0,0,1-25.5-3,36.67,36.67,0,0,1-18.82-23,37.85,37.85,0,0,1,.84-22.17c2-5.87,4.71-11.47,7.26-17.12q26.46-57.67,55.51-114.13c2.88-5.59,5.73-11.22,8.78-16.73,2.5-4.43,5.4-8.79,9.5-11.91a25.37,25.37,0,0,1,31.46.6c4.36,3.62,7.31,8.57,10,13.51,6,11.24,11.72,22.61,17.47,34q24.62,48.7,47.28,98.35c2.28,5.14,4.73,10.24,6.26,15.66a37.71,37.71,0,0,1,0,20.59ZM166.29,345.63a10,10,0,1,1-3.62,1.54A10.27,10.27,0,0,1,166.29,345.63ZM199.66,378a19.6,19.6,0,0,1,11.48-5.91,26.8,26.8,0,0,1,8.61.55c0,4.55,0,9.1,0,13.65a22.91,22.91,0,0,0-13.57.22,16.28,16.28,0,0,0-6.22,4.08c-.37.32-.28.84-.31,1.28,0,12.72,0,25.44,0,38.16a4.19,4.19,0,0,1-.14,1.5c-4.91.12-9.83,0-14.74,0q0-29.08,0-58.18c4.14,0,8.28,0,12.42,0a2.19,2.19,0,0,1,2.21,1.3A12.14,12.14,0,0,1,199.66,378Zm105.91.05A21.24,21.24,0,0,1,320.79,372a24.79,24.79,0,0,1,16.52,5.43,18,18,0,0,1,6.25,9.4c1.3,4.53,1.18,9.29,1.17,14V431.6c-5,0-9.91,0-14.86,0v-30.8c0-3.82.18-7.93-1.84-11.33-1.42-2.44-4.21-3.66-6.91-3.94a16.18,16.18,0,0,0-14,5,1.84,1.84,0,0,0-.66,1.42c-.05,1.59.19,3.18.06,4.77-.2,2.16.1,4.32,0,6.49q-.09,6.12,0,12.24c-.28,5.4.21,10.82-.12,16.21H291.59c0-19.41,0-38.8,0-58.2,3.81,0,7.63,0,11.45,0a2.21,2.21,0,0,1,2.32,1.49,16.62,16.62,0,0,1,.19,3.16ZM160.86,431.6c0-19.4,0-38.79,0-58.19h14.75q0,29.1,0,58.19Zm-9.15-58.19c-3.9,0-7.79,0-11.69,0-1,0-2.35.05-2.85,1.13a10.14,10.14,0,0,0-.32,3.52,19.8,19.8,0,0,0-12.5-6,30,30,0,0,0-20.55,5.75,29.14,29.14,0,0,0-10.18,14.29A37.28,37.28,0,0,0,92,400.31v4a30.62,30.62,0,0,0,10.59,22,30.18,30.18,0,0,0,17.51,6.85h3.31a20,20,0,0,0,13.44-6.18,10.31,10.31,0,0,0,.31,3.55,2.51,2.51,0,0,0,2.48,1.13c4,0,8.05,0,12.07,0q0-29.07,0-58.17Zm-15.32,40.06A15.74,15.74,0,0,1,124,419.06c-5,0-10.25-1.89-13.51-5.84-3.17-3.76-4.13-9-3.41-13.78a15.29,15.29,0,0,1,5.63-10,18.08,18.08,0,0,1,10-3.64A16.17,16.17,0,0,1,136.8,392c.18,6.32,0,12.66.09,19-.06.84.18,1.84-.5,2.49ZM283.1,390.06a29,29,0,0,0-11.5-13.64,30.15,30.15,0,0,0-17.88-4.37,20,20,0,0,0-13.12,6c0-10.87,0-21.73,0-32.6-5,0-9.91,0-14.87,0,0,28.71,0,57.43,0,86.13q6.15,0,12.31,0a2.28,2.28,0,0,0,2.41-1.52,18,18,0,0,0,.13-3.2,19.84,19.84,0,0,0,13.59,6.22h3a29.55,29.55,0,0,0,21.48-10.75c7.24-8.88,8.66-21.78,4.38-32.29Zm-17.34,24.49a18,18,0,0,1-12.4,4.51A15.67,15.67,0,0,1,241,413.39a1.76,1.76,0,0,1-.46-1.38q0-10,0-20a16.48,16.48,0,0,1,12.07-6.26c4.72-.14,9.68,1.25,13.15,4.58a17.57,17.57,0,0,1,0,24.2Zm139.61-31.69a29.51,29.51,0,0,0-27.12-10.58A19.65,19.65,0,0,0,367.14,378c0-10.86,0-21.72,0-32.59-4.95,0-9.89,0-14.84,0v86.13c3.9,0,7.81,0,11.71,0,1,0,2.31-.07,2.83-1.11a10,10,0,0,0,.32-3.58,20.13,20.13,0,0,0,13.37,6.18h3.34a29.65,29.65,0,0,0,21.28-10.63A31.33,31.33,0,0,0,412,404.33v-3.89a31.56,31.56,0,0,0-6.63-17.58Zm-11.58,30c-3.92,5.05-10.84,6.93-17,5.95a15.33,15.33,0,0,1-9.58-5.91c-.25-2.45,0-4.92-.1-7.38.05-4.51-.11-9,.08-13.55a16,16,0,0,1,9.55-5.91c6.86-1.27,14.83,1.44,18.29,7.78,3.16,5.86,2.84,13.69-1.26,19Z"/></g></g></svg>