<svg xmlns="http://www.w3.org/2000/svg" viewBox="0 0 504 504"><defs><style>.cls-1{fill:#fff;}.cls-2{fill:#bf2519;}.cls-3{fill:#231f20;}</style></defs><title>travel-5</title><g id="Layer_2" data-name="Layer 2"><g id="Layer_1-2" data-name="Layer 1"><rect class="cls-1" width="504" height="504"/><path class="cls-2" d="M159.83,180.89c-4.14,6.64-5.89,27.53-4.45,41.4.5,4.57,1.33,8.39,2.54,10.67a9,9,0,0,0,7.61,5.14c2,.1,3.3-.25,41.56-12.55l17.08-5.46c4.24-1.08,7.09-5,7.37-10s-2.36-9.61-6.71-11.24l-12-4.89c-41.12-17-43-17.62-45-17.65-3.17-.12-6,1.47-7.95,4.54m92,126.36c.66-1.93.74-3.25.86-43.45,0,0,.09-17.76.1-17.93.28-4.36-2.54-8.33-7.15-10.1s-9.86-.7-12.74,2.88c0,0-8.39,9.95-8.41,9.95-28.81,33.84-30,35.4-30.72,37.41a8.27,8.27,0,0,0-.46,3.69,9.92,9.92,0,0,0,2.34,5.22c6.68,7.93,38.71,19.71,48.94,18,3.56-.65,6.14-2.65,7.24-5.64m65-14c9.66-3.85,30.73-30.65,32.21-41a9,9,0,0,0-3.08-8.65c-1.63-1.22-2.86-1.69-41.1-14.25,0,0-16.77-5.54-17-5.65-4.06-1.57-8.69-.11-11.81,3.73s-3.72,9.15-1.14,13.09l6.75,11c22.7,36.86,24.43,39.47,26.07,40.75a8.83,8.83,0,0,0,9.09,1M297,198.36c43.46-10.53,45.14-11.09,46.85-12.21a8.91,8.91,0,0,0,3.73-8.35,2.28,2.28,0,0,0,0-.37c-1.12-10.67-19.82-38.42-29-42.93a9,9,0,0,0-9.25.36c-1.68,1.09-2.91,2.75-26.18,34.57,0,0-10.51,14.32-10.63,14.45-2.77,3.37-2.82,8.2-.11,12.34,2.81,4.29,7.55,6.38,11.89,5.18a3.53,3.53,0,0,1-.22.36c2.14-.8,6-1.74,12.94-3.4m-43.62-35.88c-.75-17.23-5.94-93.92-6.55-97.47a9.13,9.13,0,0,0-7-6.43c-11.09-2.75-53.5,9.13-61.35,17.24a9.26,9.26,0,0,0-2.7,8.75c1.24,2.54,53.77,85.19,53.77,85.19,7.76,12.59,14.1,10.64,16.18,10s8.36-2.58,7.65-17.27"/><path class="cls-3" d="M121,439.74c3.38,3.13,9.79,4,17.57,2.44,7.3-1.44,11.82-4.7,16.18-18.55l21.68-68.12c1.12-3.62,1-6.75-.25-9.08a8,8,0,0,0-5.24-3.8c-3.87-1.06-8.69-1-11.73,9.43L147.82,390.7s-23.18-43.78-23.19-43.78c-1.47-2.93-5.76-5-10.12-3.29-5.7,2.17-7.6,7.29-5.32,13.88,0,0,28.19,57.37,28.25,57.52a20.37,20.37,0,0,1,.77,2.38s.25,1.56.25,1.62a7.42,7.42,0,0,1-2.11,5.31,7,7,0,0,1-5.22,1.77l-4.73-.1c-4.51.56-7.36,3.15-7.81,7.15a7.37,7.37,0,0,0,2.39,6.58m111.07-64.59H201.87c-.82-.6-1.21-1.6-.6-4.61a15.56,15.56,0,0,1,2-5l1.18-1.82a15.22,15.22,0,0,1,8.61-5.38c10.61-2.59,18,2.8,19.21,12,.57,4,.19,4.8-.22,4.8Zm18.55-5.26c-1-9.84-4.77-17.52-11-22.23-6.63-5-16-6.64-27.13-4.66-13.94,2.42-22.3,12.38-24.22,28.84-2.36,19.68.88,34.51,9.39,42.89,6.42,6.35,15.92,8.87,27.47,7.31C241.58,419.72,249,410.68,249,405c0-4.2-2.54-7.51-6.27-8-2.14-.43-3.94,0-7.94,3.57-5.75,5-12.42,7-18.33,5.53a13.7,13.7,0,0,1-9.61-8.5s-.71-2.81-.66-2.5c-.49-2.54-.71-5.05.86-6.07l.41-.29h36.18c3.34,0,5-.43,6-1.48,2-2.21,1.84-8.52,1-17.32m32.8-52.06a10,10,0,0,0-8.93.84c-2.72,1.62-3.86,4.07-3.86,8.51v86.26s.48,3.09.53,3.22a7.89,7.89,0,0,0,4.41,5,9.14,9.14,0,0,0,7.8-.07c3.15-1.36,5-4.51,5-8.4V326.74s-.55-4.18-.55-4.25a7.14,7.14,0,0,0-4.4-4.66m68.27,87.62c-11.95,0-13.85-10.6-14.23-18.6,0,0-.16-4.69-.16-4.69s.14-3.47.14-3.6c.77-13.85,3.64-19.31,10.94-20.83,4.91-1.14,8.66-.59,11.47,1.68,4.23,3.4,6.09,10.6,5.92,22.62-.12,14.07-2.57,23.42-14.08,23.42Zm.88-63.33a26.56,26.56,0,0,0-21.43,4.19s-.74.6-1,.77l-.59.3-1.8.81-.52-2-.43-.73-.15-.45-.05-.14-.5-.68c-1.89-2.94-7-4.29-11.66-1.65-2.26,1.29-3.56,3.1-3.56,8.51v84.66c0,4.64,1.45,7.52,4.63,9a9.79,9.79,0,0,0,8.3.34,7.62,7.62,0,0,0,4.42-4.74l.54-3.63V422l-.16-2.36.06-.7.1-.33.87-2.79,2.65,1.76a7,7,0,0,1,.95.74l.8.52.92.54.85.41c7.1,3.36,16.61,3,24.26-1,9.63-5,14.39-13.94,15.49-28.92,2.3-29.94-4.59-44.24-23-47.81m37.12,70h1c.8,0,1.55,0,1.55-.95s-.69-.89-1.3-.89h-1.24Zm-.81-2.56H391c1.38,0,2,.5,2,1.65a1.48,1.48,0,0,1-1.53,1.56l1.67,2.55h-.87l-1.58-2.48h-1v2.48h-.81v-5.76Zm1.87,7.1a4.19,4.19,0,1,0-.08,0Zm0-9.24a5,5,0,1,1-5,5,5,5,0,0,1,5-5"/></g></g></svg>