<svg xmlns="http://www.w3.org/2000/svg" viewBox="0 0 504 504"><defs><style>.cls-1{fill:#fff;}</style></defs><title>travel-4</title><g id="Layer_2" data-name="Layer 2"><g id="Layer_1-2" data-name="Layer 1"><rect width="504" height="504"/><path class="cls-1" d="M111.53,208.6h16v50.74c0,26.69-17.06,36.06-41.81,36.06S44,286,44,259.34V210.63c0-1.41.71-2,2.12-2h16v49.94c0,16,7.07,22.63,23.6,22.63s23.69-6.63,23.69-22.63V210.63C109.41,209.22,110.12,208.6,111.53,208.6Zm181.11,13.88v21.39h40.49c.71,0,1,.35.71,1.06l-4.42,11A2.24,2.24,0,0,1,327,257.3H303.25c-7.78,0-10.61,2.39-10.61,7.61V280h54.81c.7,0,1,.35.7,1.06l-4.59,11.4a2.22,2.22,0,0,1-2.39,1.42h-60c-4.59,0-6.36-1.59-6.36-5V214.52c0-4.15,2.3-5.92,8.31-5.92h64.35c.7,0,1,.35.7,1l-4.59,11.49a2.22,2.22,0,0,1-2.39,1.42ZM241.82,270.3c0,17.06-12,23.6-28.9,23.6H168.19c-4.68,0-6.36-1.59-6.36-5V214.52c0-4.15,2.21-5.92,8.3-5.92h36.33c15.91,0,31.29,2.74,31.29,21.66,0,8.13-2.91,15-9.9,18.65C237.49,251.47,241.82,260.13,241.82,270.3Zm-62.4-26.17h28.37c9.37,0,12-3.62,12-11s-2.65-11-12-11H179.42Zm44.46,24.58c0-7.87-2.74-11.76-12.82-11.76H190.11c-7.78,0-10.69,2.39-10.69,7.6v15.82h31.64C221.14,280.37,223.88,276.48,223.88,268.71ZM459,293.9H442.73a2.4,2.4,0,0,1-2.38-1.42l-17.24-31.11H407.29c-7.78,0-10.7,2.39-10.7,7.6V293.9H381a1.86,1.86,0,0,1-2.13-2V214.52c0-4.15,2.3-5.92,8.31-5.92h36.51c21.3,0,34.12,5.57,34.12,26.25,0,16-7.69,22.28-17.24,24.75l19.18,32.79C460.15,292.93,460.15,293.9,459,293.9Zm-19.1-58.69c0-8.67-2.38-12.91-13.52-12.91H396.59v25.81h29.79C437.52,248.11,439.9,244,439.9,235.21Z"/></g></g></svg>