<svg xmlns="http://www.w3.org/2000/svg" viewBox="0 0 504 504"><defs><style>.cls-1{fill:#fbc108;}.cls-2{fill:#072f54;}</style></defs><title>travel-1</title><g id="Layer_2" data-name="Layer 2"><g id="Layer_1-2" data-name="Layer 1"><rect class="cls-1" width="504" height="504"/><path id="path4354" class="cls-2" d="M243.63,286.56H230.18c-.08,0-.08,0-.12,0L218.48,272.4l-11.57,14.12a.16.16,0,0,1-.13,0H196a.23.23,0,0,1-.17-.08.27.27,0,0,1,0-.17L213,265.38l-16.84-20.72a.36.36,0,0,1-.05-.22c.05,0,.09-.08.13-.08h13.44a.2.2,0,0,1,.13.08L219.93,257l10.34-12.6a.2.2,0,0,1,.13-.08h10.93a.33.33,0,0,1,.17.08c0,.09,0,.13,0,.22l-16,19.18,18.3,22.47a.27.27,0,0,1,0,.17.25.25,0,0,1-.21.08"/><path id="path4358" class="cls-2" d="M316.33,251.76c-5.95,0-10,3.62-11.19,9.87h20.25v-.42a9.18,9.18,0,0,0-9.06-9.45m19.49,16.34a.23.23,0,0,1-.13.08H304.93c.64,7.15,5.28,11.24,12.81,11.24,4.63,0,9.57-1.58,16.5-5.28a.18.18,0,0,1,.26.17v9.44c0,.09,0,.13-.09.13-6.46,2.73-13,4.6-18.08,4.6-13.23,0-22.84-9.66-22.84-22.93s9.61-22.93,22.84-22.93c12.09,0,19.83,8.12,19.83,19.31,0,1.83-.3,6-.34,6.17"/><path id="path4362" class="cls-2" d="M398.27,235.6a6.79,6.79,0,0,1-6.85-6.73,6.85,6.85,0,1,1,13.7,0,6.79,6.79,0,0,1-6.85,6.73m-5.53,51c-.13,0-.17,0-.17-.17v-41.9c0-.09,0-.17.13-.17h11.1c.09,0,.13.08.13.17v41.9a.16.16,0,0,1-.17.17Z"/><path id="path4366" class="cls-2" d="M264,280.27a25.9,25.9,0,0,1-6.42-.9l0-26.88a23.75,23.75,0,0,1,7.53-1.28c7.7,0,12.85,5.66,12.85,14.12,0,9.07-5.49,14.94-14,14.94m3-37.65a29,29,0,0,0-9.61,1.7H246.31a.18.18,0,0,0-.17.17v68.7a25.94,25.94,0,0,0,11.4-4.46V287.84a52,52,0,0,0,7.15.64c15.14,0,24.93-9.06,24.93-23.1,0-13.4-9.32-22.76-22.64-22.76"/><path id="path4370" class="cls-2" d="M372.53,276.78a20.12,20.12,0,0,1-9.44,2.68c-6.85,0-11-4.85-11-13,0-9.36,5.23-15.44,13.36-15.44a16.72,16.72,0,0,1,7.06,1.74Zm0-54.63v21.91a31.7,31.7,0,0,0-9-1.36c-13.19,0-23.11,9.91-23.11,23.1s8.77,22.63,20.85,22.63A27,27,0,0,0,374,285v3.79a25.28,25.28,0,0,0,9.95-4.26V217.64a25.21,25.21,0,0,0-11.4,4.51"/><path id="path4374" class="cls-2" d="M442.43,276.69c-3.36,1.92-6.21,2.85-8.76,2.85-7.36,0-11.74-4.85-11.74-13,0-9.23,5.19-15.45,12.89-15.45,2,0,4.55.81,7.61,2.43v23.14Zm11.4-32.88a.47.47,0,0,0-.47-.47h-9a.51.51,0,0,0-.51.47v1.53h-.22a27.08,27.08,0,0,0-11.14-2.64c-12.42,0-22.17,10.3-22.17,23.48s8.72,22.25,21.7,22.25c3.45,0,7.91-.25,12.08-5v5.41a25.61,25.61,0,0,0,9.7-4.26V243.81Z"/><path id="path4378" class="cls-2" d="M165.3,276.1h27.87a25.71,25.71,0,0,1-3.87,10.46h-29a6.91,6.91,0,0,1-6.81-6.21s0-.08,0-.17v-55c0-.05,0-.09,0-.13a6.92,6.92,0,0,1,6.81-6.26h32.8a25.44,25.44,0,0,1-3.92,10.55H165.3v15H189a.18.18,0,0,1,.17.17v10.38a.18.18,0,0,1-.17.17H165.3v21Z"/><path id="path4382" class="cls-2" d="M130.42,287.46c-2.77,0-4.47-2.17-4.47-4.81a4.46,4.46,0,1,1,4.47,4.81m0-10.13a5.32,5.32,0,1,0,5.19,5.32,5.17,5.17,0,0,0-5.19-5.32"/><path id="path4386" class="cls-2" d="M129.19,282.22v-2h1.31c.68,0,1.45.08,1.45.89,0,1-.72,1-1.53,1C130.38,282.22,129.19,282.22,129.19,282.22Zm3.7-.93c0-1.28-.77-1.83-2.3-1.83h-2.38v6.29h1v-2.68h1l1.61,2.68H133L131.27,283a1.57,1.57,0,0,0,1.62-1.7"/><path id="path4390" class="cls-2" d="M463,251.29a4.48,4.48,0,0,1-4.47-4.8,4.46,4.46,0,1,1,4.47,4.8m0-10.08a5.32,5.32,0,1,0,5.19,5.32,5.17,5.17,0,0,0-5.19-5.32"/><path id="path4394" class="cls-2" d="M461.75,246.06v-1.91h1.31c.69,0,1.45.08,1.45.89,0,1-.72,1-1.53,1Zm3.74-.89c0-1.28-.77-1.83-2.3-1.83h-2.38v6.3h1V247h1l1.62,2.68h1.19l-1.75-2.77a1.59,1.59,0,0,0,1.62-1.7"/><path id="path4398" class="cls-2" d="M94.47,229.34l-2-5.7L75.28,200.71l3.07-.77,29.56,25.57,17.4-5a26.69,26.69,0,0,1,6.13-.64,50.15,50.15,0,0,0-95.08,28.63L78,234.06Z"/><path id="path4402" class="cls-2" d="M133.31,224.41a28.2,28.2,0,0,1-6,3l-17.44,5L98.26,269.76l-3,1,2.46-28.51-1.36-5.91L80,241,36.78,251.08a50.19,50.19,0,1,0,96.53-26.67"/><path id="path4406" class="cls-1" d="M96.3,236.28l1.36,5.91-2.47,28.5,3-1,11.62-37.36,17.44-5a26.26,26.26,0,0,0,6-3c-.55-1.53-1.15-3-1.83-4.51a24.41,24.41,0,0,0-6.13.64l-17.4,5L78.35,199.9l-3.07.77L92.43,223.6l2,5.7L78,234,36.31,248.49c.13.85.3,1.74.47,2.59L80,240.91l16.34-4.63Z"/></g></g></svg>