<svg xmlns="http://www.w3.org/2000/svg" viewBox="0 0 504 504"><defs><style>.cls-1{fill:#05ad8c;}.cls-2{fill:#fff;}.cls-3{fill:#be3538;}.cls-4{fill:#589442;}.cls-5{fill:none;}.cls-6{fill:#ffd881;}</style></defs><title>travel-2</title><g id="Layer_2" data-name="Layer 2"><g id="Layer_1-2" data-name="Layer 1"><rect class="cls-1" width="504" height="504"/><g id="Owl"><path class="cls-2" d="M267.24,245.56c16.77,47.25,70.13,71.65,117.39,53.35,47.25-16.77,71.64-70.12,53.35-117.38-16.77-47.26-70.12-71.65-117.38-53.36-45.73,16.77-70.12,70.13-53.36,117.39Z"/><circle class="cls-2" cx="151.39" cy="213.54" r="91.47"/><path class="cls-3" d="M166.63,212a16.77,16.77,0,1,1-16.77-16.77A16.92,16.92,0,0,1,166.63,212Z"/><path class="cls-4" d="M369.38,212a16.77,16.77,0,1,1-16.77-16.77A16.92,16.92,0,0,1,369.38,212Z"/><path d="M99.56,212c0,27.44,22.86,50.31,50.3,50.31s50.31-22.87,50.31-50.31-22.87-50.31-50.31-50.31S99.56,184.58,99.56,212Zm16.77,0a33.54,33.54,0,1,1,33.53,33.54A33.84,33.84,0,0,1,116.33,212Zm186,0c0,27.44,22.86,50.31,50.3,50.31s50.31-22.87,50.31-50.31-22.87-50.31-50.31-50.31S302.31,184.58,302.31,212Zm18.29,0a33.54,33.54,0,1,1,33.54,33.54C334.32,245.56,320.6,230.31,320.6,212Z"/><path class="cls-5" d="M285.54,257.75a77.7,77.7,0,0,0,33.54,29c19.81,9.14,41.16,10.67,62.5,3,42.68-15.25,64-62.51,47.25-103.67-15.24-42.68-62.5-64-103.66-47.25a83.58,83.58,0,0,0-45.73,42.68,78,78,0,0,0-6.1,41.16"/><path class="cls-6" d="M317.55,119c10.67-4.57,21.34-6.1,32-6.1-29-13.72-62.5-19.82-99.08-19.82s-70.13,6.1-99.09,19.82c53.35,1.53,96,42.68,99.09,94.52,1.52-12.2,3-24.4,9.14-35.07A104.2,104.2,0,0,1,317.55,119Z"/><path d="M434.93,152.57c4.58-19.82,19.82-41.16,19.82-41.16H387.67C349.56,87,303.83,73.3,252,73.3c-53.36,0-100.61,13.72-138.72,38.11l-64,1.52s15.24,19.82,19.82,41.16c-12.2,16.77-19.82,36.59-19.82,59.45a101.93,101.93,0,0,0,181.41,64l21.34,32,21.34-32a96.59,96.59,0,0,0,36.59,29,105.24,105.24,0,0,0,77.74,3.05,102.14,102.14,0,0,0,59.46-131.1c-1.53-9.15-6.1-18.29-12.2-25.91ZM252,93.11c36.59,0,70.12,6.1,99.09,19.82-10.67,0-21.34,1.53-32,6.1-25.92,9.14-45.74,27.44-56.41,53.35a132.18,132.18,0,0,0-9.15,35.07c-3-51.84-47.25-93-99.08-94.52,27.44-13.72,61-19.82,97.56-19.82ZM218.46,259.28c-15.24,21.34-39.63,35.06-67.07,35.06-44.21,0-80.8-36.59-80.8-80.8s36.59-80.79,80.8-80.79a80.34,80.34,0,0,1,80.79,80.79c0,3.05,0,4.58-1.52,7.63-1.53,13.72-4.58,25.91-12.2,38.11Zm163.12,30.49c-19.82,7.62-42.69,6.09-62.5-3a77.7,77.7,0,0,1-33.54-29A165.68,165.68,0,0,1,276.39,241c-3.05-6.09-3.05-13.72-4.57-19.81-1.53-13.72,0-29,6.1-41.16a83.53,83.53,0,0,1,45.73-42.69c42.68-15.24,88.42,6.1,103.66,47.26C445.6,227.26,422.74,274.52,381.58,289.77Z"/></g><path d="M68.31,355.41,60,358.31v10.34h-9.1v7h8.68v22.76c0,10.75,3.73,15.3,12.83,15.3a32.47,32.47,0,0,0,6.62-.82h.41v-7.45h-.41a24.3,24.3,0,0,1-4.14.83c-4.14,0-5.79-2.49-5.79-8.69V375.68H79.48v-7H69.14V355l-.83.41ZM96,375.68v-7H87.76v44.27h9.1V390.57c0-9.1,3.72-14.48,11.17-14.48a10.13,10.13,0,0,1,3.31.42h.41v-8.28l-3.72-.41a13.46,13.46,0,0,0-12,7.86Zm64.13-8.27c-6.21,0-11.17,2.89-14.9,8.27v-7H137V430.7h9.1v-24c3.31,4.55,7.86,6.62,13.65,6.62,11.17,0,18.62-9.1,18.62-23.58C178.36,376.51,170.91,367.41,160.16,367.41Zm-2.49,38.89c-7,0-11.58-6.21-11.58-15.73s4.55-15.3,12-15.3c7,0,11.17,5.79,11.17,15.3-.42,9.52-4.55,15.73-11.59,15.73Z"/><path class="cls-2" d="M321.09,355.82a5.38,5.38,0,1,0,5.38-5.38A5.47,5.47,0,0,0,321.09,355.82Z"/><path class="cls-2" d="M204.42,367.41c-5.38,0-10.34.82-14.48,3.31h-.41v7.44h.83a23.7,23.7,0,0,1,12-3.72c6.62,0,10.35,3.72,10.35,10.34v.42h-5c-14.89,0-22.75,5.37-22.75,14.89,0,7.86,5.79,13.24,14.06,13.24a17.64,17.64,0,0,0,14.48-7v6.2h8.28V386c-.83-12.41-6.21-18.61-17.38-18.61Zm7.86,26.89c0,7.44-4.55,12.41-11.58,12.41-4.14,0-7.45-2.9-7.45-7,0-5.38,5-8.28,14.48-8.28h4.55v2.9ZM259,347.55v26.89a16.14,16.14,0,0,0-13.65-7c-10.76,0-18.2,9.1-18.2,22.34,0,13.65,7.44,23.58,18.2,23.58a16.32,16.32,0,0,0,14.48-8.28v7.45h8.27V347.55Zm-11.58,58.33c-6.62,0-11.17-5.79-11.17-15.72,0-9.51,4.14-15.72,10.76-15.72,7.44,0,12,5.79,12,15.72S254.48,405.88,247.45,405.88Zm60.4-37.23L295,394.3l-11.59-25.65h-9.93L295,412.92l22.34-44.27Zm22.34,0h-8.27v44.27H331V368.65Zm11.17,11.17c0,6.2,4.14,9.51,12,13.24,5,2.48,7.45,3.72,7.45,7.44s-3.31,5.8-8.28,5.8a23.66,23.66,0,0,1-11.17-2.9l-.83-.41-.41,7.86h.41a27.55,27.55,0,0,0,11.59,2.07c10.75,0,18.2-5.38,18.2-13.24,0-6.62-4.55-10.35-12.41-13.66-5.79-2.48-7.86-4.13-7.86-7,0-2.48,2.48-4.55,6.62-4.55a24.23,24.23,0,0,1,10.76,2.48l.82.42.42-7.45h-.42a34.08,34.08,0,0,0-10.75-1.66c-9.52,0-16.14,4.56-16.14,11.59Zm57.09-12.41c-13.65,0-21.92,8.68-21.92,23.16s8.27,23.17,21.92,23.17,21.93-8.69,21.93-23.17S412.11,367.41,398.45,367.41Zm0,38.89c-7.44,0-12.41-6.21-12.41-15.73s5-16.13,12.41-16.13,12.42,6.21,12.42,16.13C410.87,400.09,406.31,406.3,398.45,406.3Zm38.48-30.62v-7h-8.28v44.27h9.11V390.57c0-9.1,3.72-14.48,11.17-14.48a10.16,10.16,0,0,1,3.31.42h.41l.41-8.69-3.72-.41a14.24,14.24,0,0,0-12.41,8.27Z"/><path d="M127.89,368.65h-8.28v44.27h8.69V368.65Zm-9.52-12.83a5.38,5.38,0,1,0,5.38-5.38A5.47,5.47,0,0,0,118.37,355.82Z"/></g></g></svg>