<svg xmlns="http://www.w3.org/2000/svg" viewBox="0 0 285.8 285.79"><defs><style>.cls-1{fill:#fff;}</style></defs><title>cat-food</title><g id="Layer_2" data-name="Layer 2"><g id="Layer_1-2" data-name="Layer 1"><path class="cls-1" d="M217.19,102.9H156.14a10,10,0,1,0,0-20h-25a10,10,0,1,0,0,20H70.12c-17,0-31.05,15.23-33.78,31.43H251C248.25,118.12,234.18,102.9,217.19,102.9Z"/><path class="cls-1" d="M251.49,151.49v-2.86H0v14.3H35.83v88.56a34.29,34.29,0,0,0,34.29,34.3H217.2a34.29,34.29,0,0,0,34.3-34.3V165.78h34.3V151.49Z"/><path class="cls-1" d="M91.17,34.34q1.5,2,3.17,3.78l2.77,2.77c1.75,1.76,3.38,3.52,4.68,5.1a23.41,23.41,0,0,1,1.58,2.18,4.19,4.19,0,0,1,.81,1.8,4.25,4.25,0,0,1-1.08,2.83,17.05,17.05,0,0,1-3.14,3,10.05,10.05,0,0,0,4.91.57,8.64,8.64,0,0,0,5.26-2.64,10.43,10.43,0,0,0,2.6-6.29,17.37,17.37,0,0,0-.67-5.95,31.21,31.21,0,0,0-4.42-9.08c-.89-1.3-2-2.61-2.76-3.63s-1.5-1.85-2.16-2.79c-2.67-3.72-4.55-7.08-5.25-11S97.56,5.85,100,0C93.71,1.31,88.15,6.55,86.33,13.86a22.14,22.14,0,0,0,.26,11.06A30,30,0,0,0,91.17,34.34Z"/><path class="cls-1" d="M128.23,34.34c1,1.32,2.07,2.58,3.17,3.78l2.76,2.77c1.75,1.76,3.38,3.52,4.71,5.1.62.8,1.16,1.55,1.56,2.18a3.84,3.84,0,0,1,.8,1.8,4.24,4.24,0,0,1-1.07,2.83,16.51,16.51,0,0,1-3.15,3,10.12,10.12,0,0,0,4.92.57,8.61,8.61,0,0,0,5.26-2.64,10.38,10.38,0,0,0,2.61-6.29,17.63,17.63,0,0,0-.66-5.95,31.77,31.77,0,0,0-4.45-9.08c-.87-1.3-2-2.61-2.75-3.63s-1.5-1.85-2.14-2.79c-2.69-3.72-4.57-7.08-5.26-11S134.6,5.86,137,0c-6.24,1.31-11.8,6.54-13.61,13.86a22.21,22.21,0,0,0,.25,11A30.1,30.1,0,0,0,128.23,34.34Z"/><path class="cls-1" d="M162,34.34a47.9,47.9,0,0,0,3.16,3.78l2.77,2.77c1.75,1.76,3.37,3.52,4.68,5.1a23.41,23.41,0,0,1,1.58,2.18A4.31,4.31,0,0,1,175,50a4.2,4.2,0,0,1-1.08,2.83,16.51,16.51,0,0,1-3.15,3,10.1,10.1,0,0,0,4.91.57A8.69,8.69,0,0,0,181,53.7a10.36,10.36,0,0,0,2.59-6.29,17.14,17.14,0,0,0-.66-5.95,31.21,31.21,0,0,0-4.42-9.08c-.89-1.3-2-2.61-2.76-3.63A34.27,34.27,0,0,1,173.54,26c-2.67-3.72-4.55-7.08-5.24-11s.08-9.09,2.47-14.94C164.52,1.31,159,6.55,157.15,13.86a22.25,22.25,0,0,0,.26,11.06A29.62,29.62,0,0,0,162,34.34Z"/></g></g></svg>