<svg xmlns="http://www.w3.org/2000/svg" viewBox="0 0 269.29 250"><defs><style>.cls-1{fill:#fff;}</style></defs><title>cat-travel</title><g id="Layer_2" data-name="Layer 2"><g id="Layer_1-2" data-name="Layer 1"><path class="cls-1" d="M251.42,63.82,244.07,25.6a31.55,31.55,0,0,0-36.95-25l-.25.05L155.21,13.19A31.33,31.33,0,0,0,136.35,25a31.3,31.3,0,0,0-22.17-3.92l-88.66,19-.35.09A31.42,31.42,0,0,0,4.67,55.63,40.46,40.46,0,0,0,0,75L.07,198.92v19.53A31.58,31.58,0,0,0,31.62,250H153.08a31.37,31.37,0,0,0,21-8.06,31.44,31.44,0,0,0,21,8.06h42.6a31.58,31.58,0,0,0,31.54-31.55V92.25A31.6,31.6,0,0,0,251.42,63.82ZM125,165.87H114.83L81.75,207.41H67.29l20-41.54H56.44l-10.39,11H39.87l6.41-21.45-6.85-22.19,6.17,0,10.53,11.54H87.3l-20-41.54H81.75L115,144.83h10c5.94,0,18.65,4.58,18.65,10.52S130.91,165.87,125,165.87Zm38.63-36.81V108h21v21Zm21,15.77v21h-21v-21Zm-21,36.82h21v21h-21ZM30.13,60.6l88.11-18.88a10.5,10.5,0,0,1,12.22,8.36l20.66-4a10.5,10.5,0,0,1,8.34-12.32l.25,0,51.6-12.55a10.52,10.52,0,0,1,12.1,8.38l6,31.13H195.15a31.39,31.39,0,0,0-21,8.06,31.42,31.42,0,0,0-21-8.06H31.62c-.7,0-1.4,0-2.09.08C29.73,60.72,29.93,60.65,30.13,60.6Z"/><path class="cls-1" d="M237.75,81.73h-42.6a10.53,10.53,0,0,0-10.52,10.52h-21a10.53,10.53,0,0,0-10.52-10.52H31.62A10.53,10.53,0,0,0,21.1,92.25v126.2A10.53,10.53,0,0,0,31.62,229H153.08a10.53,10.53,0,0,0,10.52-10.52h21A10.53,10.53,0,0,0,195.15,229h42.6a10.53,10.53,0,0,0,10.51-10.52V92.25A10.53,10.53,0,0,0,237.75,81.73ZM125,165.87H114.83L81.75,207.41H67.29l20-41.54H56.44l-10.39,11H39.87l6.41-21.45-6.85-22.19,6.17,0,10.53,11.54H87.3l-20-41.54H81.75L115,144.83h10c5.94,0,18.65,4.58,18.65,10.52S130.91,165.87,125,165.87Zm59.66,36.8h-21v-21h21Zm0-36.8h-21v-21h21Zm0-36.81h-21V108h21Z"/><path class="cls-1" d="M251.42,63.82,244.07,25.6a31.55,31.55,0,0,0-36.95-25l-.25.05L155.21,13.19A31.33,31.33,0,0,0,136.35,25a31.3,31.3,0,0,0-22.17-3.92l-88.66,19-.35.09A31.42,31.42,0,0,0,4.67,55.63,40.46,40.46,0,0,0,0,75L.07,198.92v19.53A31.58,31.58,0,0,0,31.62,250H153.08a31.37,31.37,0,0,0,21-8.06,31.44,31.44,0,0,0,21,8.06h42.6a31.58,31.58,0,0,0,31.54-31.55V92.25A31.6,31.6,0,0,0,251.42,63.82ZM125,165.87H114.83L81.75,207.41H67.29l20-41.54H56.44l-10.39,11H39.87l6.41-21.45-6.85-22.19,6.17,0,10.53,11.54H87.3l-20-41.54H81.75L115,144.83h10c5.94,0,18.65,4.58,18.65,10.52S130.91,165.87,125,165.87Zm38.63-36.81V108h21v21Zm21,15.77v21h-21v-21Zm-21,36.82h21v21h-21ZM30.13,60.6l88.11-18.88a10.5,10.5,0,0,1,12.22,8.36l20.66-4a10.5,10.5,0,0,1,8.34-12.32l.25,0,51.6-12.55a10.52,10.52,0,0,1,12.1,8.38l6,31.13H195.15a31.39,31.39,0,0,0-21,8.06,31.42,31.42,0,0,0-21-8.06H31.62c-.7,0-1.4,0-2.09.08C29.73,60.72,29.93,60.65,30.13,60.6Z"/></g></g></svg>