<svg xmlns="http://www.w3.org/2000/svg" viewBox="0 0 297.16 250"><defs><style>.cls-1{fill:#fff;}</style></defs><title>cat-music</title><g id="Layer_2" data-name="Layer 2"><g id="Layer_1-2" data-name="Layer 1"><path class="cls-1" d="M64.88,137.14V238.91a11,11,0,1,0,21.93,0V137.14a11,11,0,0,0-21.93,0Z"/><path class="cls-1" d="M30.46,250H54.6V129.18a14.6,14.6,0,0,0,.17-1.75c0-52.13,42.08-94.53,93.79-94.53s93.77,42.4,93.77,94.53a15.21,15.21,0,0,0,.24,2.34V250h24.15c16.8,0,30.44-14.1,30.44-31.51v-63a31.39,31.39,0,0,0-22-30.25C274,56,217.68,0,148.56,0S23.09,56,21.93,125.27A31.35,31.35,0,0,0,0,155.5v63C0,235.89,13.64,250,30.46,250Z"/><path class="cls-1" d="M210.37,137.14V238.91a11,11,0,1,0,21.93,0V137.14a11,11,0,0,0-21.93,0Z"/></g></g></svg>