<?xml version="1.0" encoding="utf-8"?>
<!-- Generator: Adobe Illustrator 22.1.0, SVG Export Plug-In . SVG Version: 6.00 Build 0)  -->
<svg version="1.1" id="Layer_1" xmlns="http://www.w3.org/2000/svg" xmlns:xlink="http://www.w3.org/1999/xlink" x="0px" y="0px"
	 viewBox="0 0 189.3 257.2" style="enable-background:new 0 0 189.3 257.2;" xml:space="preserve">
<style type="text/css">
	.st0{fill:#FFFFFF;}
</style>
<title>cat-shop</title>
<g id="Layer_2_2_">
	<g id="Layer_1-2_1_">
		<path class="st0" d="M136,79.5V73c0-22.8-18.5-41.3-41.3-41.3c-22.8,0-41.3,18.5-41.3,41.3v6.5h-30v119.9
			c0,14.4,11.7,26.1,26.1,26.1h90.6c14.4,0,26.1-11.7,26.1-26.1V79.5H136z M63.5,110c-4.8,0-8.7-3.9-8.7-8.8c0-4.8,3.9-8.7,8.8-8.7
			c4.8,0,8.7,3.9,8.7,8.8C72.3,106,68.4,110,63.5,110C63.5,110,63.5,110,63.5,110z M116.9,79.5H72.4V73c0-12.3,10-22.3,22.3-22.3
			s22.3,10,22.3,22.3L116.9,79.5z M125.8,110c-4.8,0-8.8-3.9-8.8-8.7c0-4.8,3.9-8.8,8.7-8.8c4.8,0,8.8,3.9,8.8,8.7c0,0,0,0,0,0
			C134.6,106,130.6,109.9,125.8,110z"/>
	</g>
</g>
</svg>
