<svg xmlns="http://www.w3.org/2000/svg" viewBox="0 0 310 205.34"><defs><style>.cls-1{fill:#fff;}</style></defs><title>cat-games</title><g id="Layer_2" data-name="Layer 2"><g id="Layer_1-2" data-name="Layer 1"><path class="cls-1" d="M282.28,36.31C241.34-31,179.66,15.84,179.66,15.84a31.91,31.91,0,0,1-16.39,5.52l-16.52,0a31.8,31.8,0,0,1-16.39-5.51S68.68-30.94,27.73,36.33,3.29,176.82,3.29,176.82c2.89,17.93,12.41,29.89,30.39,28.39s56.84-48.29,56.84-48.29c3.21-3.86,10-7,15-7l99,0c5,0,11.74,3.15,15,7,0,0,38.91,46.8,56.87,48.29s27.5-10.47,30.38-28.39C306.7,176.8,323.23,103.57,282.28,36.31ZM117.78,91.07H96.54v20.47a19.86,19.86,0,0,1-11.46,3.35c-6.94-.11-10.09-3.75-10.09-3.75V91.07H54.93s-2.5-2.56-3.17-9.32a21.37,21.37,0,0,1,2.77-12.22H75.77V48.29a23.1,23.1,0,0,1,10.66-2.16,28.18,28.18,0,0,1,10.89,2.56l-.08,20.83h20.05a20,20,0,0,1,3.8,9.94C121.38,84.9,117.78,91.07,117.78,91.07ZM215.2,114.4A16.81,16.81,0,1,1,232,97.59,16.79,16.79,0,0,1,215.2,114.4Zm0-46.25A16.81,16.81,0,1,1,232,51.34,16.79,16.79,0,0,1,215.2,68.15ZM257.06,93a16.81,16.81,0,1,1,16.82-16.81A16.79,16.79,0,0,1,257.06,93Z"/></g></g></svg>