<?xml version="1.0" encoding="utf-8"?>
<!-- Generator: Adobe Illustrator 22.1.0, SVG Export Plug-In . SVG Version: 6.00 Build 0)  -->
<svg version="1.1" id="Layer_1" xmlns="http://www.w3.org/2000/svg" xmlns:xlink="http://www.w3.org/1999/xlink" x="0px" y="0px"
	 viewBox="0 0 504 504" style="enable-background:new 0 0 504 504;" xml:space="preserve">
<style type="text/css">
	.st0{clip-path:url(#SVGID_2_);}
	.st1{fill:url(#SVGID_3_);}
	.st2{fill:url(#SVGID_4_);}
	.st3{fill:#FFFFFF;}
</style>
<title>frek-app-instagram</title>
<g id="Layer_2_1_">
	<g id="Layer_1-2">
		<g>
			<defs>
				<rect id="SVGID_1_" width="504" height="504"/>
			</defs>
			<clipPath id="SVGID_2_">
				<use xlink:href="#SVGID_1_"  style="overflow:visible;"/>
			</clipPath>
			<g class="st0">
				
					<radialGradient id="SVGID_3_" cx="32.62" cy="488.96" r="639.89" gradientTransform="matrix(1 0 0 1 0 4)" gradientUnits="userSpaceOnUse">
					<stop  offset="9.000000e-02" style="stop-color:#FA8F21"/>
					<stop  offset="0.78" style="stop-color:#D82D7E"/>
				</radialGradient>
				<rect class="st1" width="504" height="504"/>
				
					<radialGradient id="SVGID_4_" cx="349.1" cy="472.78" r="563.11" gradientTransform="matrix(1 0 0 1 0 4)" gradientUnits="userSpaceOnUse">
					<stop  offset="0.64" style="stop-color:#8C3AAA;stop-opacity:0"/>
					<stop  offset="1" style="stop-color:#8C3AAA"/>
				</radialGradient>
				<rect class="st2" width="504" height="504"/>
			</g>
		</g>
		<path class="st3" d="M186.8,252c0-36,29.2-65.2,65.2-65.2s65.2,29.2,65.2,65.2S288,317.2,252,317.2c0,0,0,0,0,0
			C216,317.2,186.8,288,186.8,252L186.8,252 M151.5,252c0,55.5,45,100.5,100.5,100.5s100.5-45,100.5-100.5s-45-100.5-100.5-100.5
			c0,0,0,0,0,0C196.5,151.5,151.5,196.5,151.5,252 M333,147.6c0,13,10.5,23.5,23.5,23.5s23.5-10.5,23.5-23.5
			c0-13-10.5-23.5-23.5-23.5l0,0l0,0C343.5,124.1,333,134.6,333,147.6 M173,411.3c-19.1-0.9-29.4-4-36.3-6.7
			c-8.5-3.1-16.2-8.1-22.5-14.6c-6.5-6.3-11.5-14-14.6-22.5c-2.7-6.9-5.9-17.3-6.7-36.3c-1-20.6-1.1-26.8-1.1-79.1
			s0.2-58.4,1.1-79.1c0.9-19.1,4.1-29.4,6.7-36.3c3.1-8.5,8.1-16.2,14.6-22.5c6.3-6.5,14-11.5,22.5-14.6c6.9-2.7,17.3-5.9,36.3-6.7
			c20.6-1,26.8-1.1,79-1.1s58.4,0.2,79.1,1.1c19.1,0.9,29.4,4.1,36.3,6.7c17.1,6.6,30.6,20.1,37.1,37.1c2.7,6.9,5.9,17.3,6.7,36.3
			c1,20.6,1.1,26.8,1.1,79.1s-0.2,58.4-1.1,79.1c-0.9,19.1-4.1,29.5-6.7,36.3c-6.6,17.1-20.1,30.6-37.1,37.1
			c-6.9,2.7-17.3,5.9-36.3,6.7c-20.6,1-26.8,1.1-79.1,1.1S193.6,412.2,173,411.3 M171.3,57.5c-20.8,1-35.1,4.3-47.5,9.1
			c-26.3,10.2-47.1,30.9-57.2,57.2c-4.8,12.4-8.1,26.7-9.1,47.5s-1.2,27.5-1.2,80.7s0.2,59.8,1.2,80.7s4.3,35.1,9.1,47.5
			c10.2,26.3,30.9,47.1,57.2,57.2c12.4,4.8,26.7,8.1,47.5,9.1s27.5,1.2,80.7,1.2s59.8-0.2,80.7-1.2s35.1-4.3,47.5-9.1
			c26.3-10.2,47.1-30.9,57.2-57.2c4.8-12.4,8.2-26.7,9.1-47.5s1.2-27.5,1.2-80.7s-0.2-59.8-1.2-80.7s-4.3-35.1-9.1-47.5
			c-10.2-26.3-30.9-47.1-57.2-57.2c-12.5-4.8-26.7-8.2-47.5-9.1s-27.5-1.2-80.7-1.2S192.2,56.6,171.3,57.5"/>
	</g>
</g>
</svg>
