<?xml version="1.0" encoding="utf-8"?>
<!-- Generator: Adobe Illustrator 22.1.0, SVG Export Plug-In . SVG Version: 6.00 Build 0)  -->
<svg version="1.1" id="Layer_1" xmlns="http://www.w3.org/2000/svg" xmlns:xlink="http://www.w3.org/1999/xlink" x="0px" y="0px"
	 viewBox="0 0 504 504" style="enable-background:new 0 0 504 504;" xml:space="preserve">
<style type="text/css">
	.st0{fill:#CA2127;}
	.st1{fill:#FFFFFF;}
</style>
<title>top-app-pinterest</title>
<g id="Layer_2_1_">
	<g id="Layer_1-2">
		<rect class="st0" width="504" height="504"/>
		<path class="st1" d="M233.5,78c-61.1,6.6-121.9,53.6-124.4,120.8c-1.6,41.1,15.6,71.9,56.7,80.5c4.7-19.4,5.6-29.9,5.6-29.9
			s-18.1-17.3-19.9-28.3c-15.1-88.6,107.2-149,171.4-87.2c44.3,42.9,15.1,174.9-56.4,161.2C197.9,282,299.9,177,245.3,156.3
			c-44.4-16.8-68,51.3-47,85.1c-12.4,58.1-39,112.9-28.2,185.8c35-24.1,46.8-70.4,56.4-118.6c17.6,10.1,27,20.8,49.4,22.4
			c82.6,6.1,128.8-78.5,117.5-156.7C383.2,105,310.7,69.7,233.5,78z"/>
	</g>
</g>
</svg>
