<?xml version="1.0" encoding="utf-8"?>
<!-- Generator: Adobe Illustrator 22.1.0, SVG Export Plug-In . SVG Version: 6.00 Build 0)  -->
<svg version="1.1" id="Layer_1" xmlns="http://www.w3.org/2000/svg" xmlns:xlink="http://www.w3.org/1999/xlink" x="0px" y="0px"
	 viewBox="0 0 504 504" style="enable-background:new 0 0 504 504;" xml:space="preserve">
<style type="text/css">
	.st0{fill:#FFFFFF;}
	.st1{fill:url(#a_1_);}
</style>
<title>top-app-whatapp</title>
<g id="Layer_2_1_">
	<g id="Layer_1-2">
		<rect class="st0" width="504" height="504"/>
		
			<linearGradient id="a_1_" gradientUnits="userSpaceOnUse" x1="-1552.5656" y1="-541.2197" x2="-1552.5656" y2="-394.4738" gradientTransform="matrix(2.44 0 0 2.44 4040.26 1395.0299)">
			<stop  offset="0" style="stop-color:#61FD7D"/>
			<stop  offset="1" style="stop-color:#2BB826"/>
		</linearGradient>
		<path id="a" class="st1" d="M431,340.1c0,2-0.1,6.2-0.2,9.5c-0.3,8-0.9,18.4-1.9,23.1c-1.3,6.7-3.5,13.2-6.5,19.4
			c-6.6,13.1-17.3,23.7-30.4,30.3c-6.2,3-12.8,5.2-19.5,6.5c-4.7,0.9-15,1.6-23,1.9c-3.3,0.1-7.5,0.2-9.5,0.2H163.8
			c-2,0-6.2-0.1-9.5-0.2c-8-0.3-18.4-0.9-23.1-1.9c-6.7-1.3-13.2-3.5-19.4-6.5c-13.1-6.6-23.7-17.3-30.3-30.4
			c-3-6.2-5.2-12.8-6.5-19.5c-1-4.7-1.6-15-1.8-23c-0.1-3.3-0.2-7.5-0.2-9.5V163.8c0-2,0.1-6.2,0.2-9.5c0.3-8,0.9-18.4,1.9-23.1
			c1.3-6.7,3.5-13.2,6.5-19.4c6.7-13.1,17.4-23.7,30.5-30.3c6.2-3,12.7-5.2,19.4-6.5c4.7-1,15-1.6,23-1.8c3.3-0.1,7.5-0.2,9.5-0.2
			h176.3c2,0,6.2,0.1,9.5,0.2c8,0.3,18.4,0.9,23.1,1.9c6.7,1.3,13.2,3.5,19.4,6.5c13.1,6.7,23.7,17.4,30.3,30.5
			c3,6.2,5.2,12.7,6.5,19.4c0.9,4.7,1.6,15,1.9,23c0.1,3.3,0.2,7.5,0.2,9.5L431,340.1L431,340.1z"/>
		<path class="st0" d="M346.9,157.7c-24-24.2-56.8-37.7-90.9-37.6c-70.8,0-128.3,57.6-128.4,128.3c0,22.5,5.9,44.6,17.1,64.2
			l-18.2,66.5l68-17.9c18.8,10.3,40,15.6,61.4,15.6l0,0c70.8,0,128.3-57.6,128.4-128.3C384.5,214.4,370.9,181.7,346.9,157.7
			L346.9,157.7z M256,355.1L256,355.1c-19.1,0-37.9-5.1-54.3-14.9l-3.9-2.3l-40.4,10.6l10.8-39.4l-2.5-4
			c-31.3-49.9-16.2-115.8,33.7-147.1s115.8-16.2,147.1,33.7s16.2,115.8-33.7,147.1C295.7,349.5,276.1,355.2,256,355.1L256,355.1z
			 M314.5,275.3c-3.2-1.6-19-9.4-21.9-10.4s-5.1-1.6-7.2,1.6s-8.3,10.4-10.2,12.6s-3.7,2.4-7,0.8s-13.5-5-25.8-15.9
			c-7-6.5-13-14-17.9-22.2c-1.9-3.2-0.2-5,1.4-6.6c1.4-1.4,3.2-3.7,4.8-5.6c1.3-1.6,2.4-3.4,3.2-5.4c0.9-1.8,0.8-3.9-0.3-5.6
			c-0.8-1.6-7.2-17.4-9.9-23.8c-2.6-6.3-5.3-5.4-7.2-5.5s-4-0.1-6.1-0.1c-3.3,0.1-6.4,1.5-8.6,4c-2.9,3.2-11.2,11-11.2,26.8
			s11.5,31,13.1,33.2s22.6,34.5,54.8,48.4c6,2.6,12.1,4.8,18.3,6.8c6.5,2,13.5,2.4,20.2,1.3c6.2-0.9,19-7.8,21.6-15.3
			s2.7-13.9,1.9-15.3S317.8,276.9,314.5,275.3L314.5,275.3z"/>
	</g>
</g>
</svg>
