<svg xmlns="http://www.w3.org/2000/svg" viewBox="0 0 504 504"><defs><style>.cls-1{fill:#fff;}.cls-2{fill:#ffc300;}</style></defs><title>food-5</title><g id="Layer_2" data-name="Layer 2"><g id="Layer_1-2" data-name="Layer 1"><rect class="cls-1" width="504" height="504"/><path class="cls-2" d="M305.12,136.12c26.66,0,48.28,112.41,48.28,251.07H392c0-149.33-38.92-270.38-86.91-270.38-27.31,0-51.67,36.38-67.6,93.27-15.93-56.89-40.3-93.27-67.6-93.27-48,0-86.92,121.05-86.92,270.38h38.64c0-138.66,21.62-251.07,48.28-251.07s48.29,103.76,48.29,231.77h38.62c0-128,21.62-231.77,48.29-231.77M411.37,367.89a9.65,9.65,0,1,1-9.69,9.6,9.57,9.57,0,0,1,9.69-9.6m0,17.89a8.25,8.25,0,1,0-7.94-8.28A7.94,7.94,0,0,0,411.37,385.78Zm-3.76-13.89H412c2.67,0,3.92,1.06,3.92,3.22s-1.27,2.89-2.94,3.07l3.21,5h-1.88l-3.06-4.85h-1.84v4.85h-1.76V371.89Zm1.75,5h1.83c1.54,0,2.95-.08,2.95-1.86,0-1.5-1.28-1.74-2.46-1.74h-2.31v3.6Z"/></g></g></svg>