<svg xmlns="http://www.w3.org/2000/svg" viewBox="0 0 504 504"><defs><style>.cls-1{fill:#fff;}.cls-2{fill:#221e1f;}.cls-3{fill:#fcc607;}.cls-4{fill:#009867;}.cls-5{fill:#ee1c23;}</style></defs><title>food-2</title><g id="Layer_2" data-name="Layer 2"><g id="Layer_1-2" data-name="Layer 1"><rect class="cls-1" width="504" height="504"/><path class="cls-2" d="M131.18,247.54s-27.26,30.92-40.25,96.62c0,0-2.17,16.25,4,17s9.87-8.55,12-14.2c.9-2.41,41-95.06,33.69-100.11,0,0,25-1.39,27.74,15.64s-23.59,30.14-31.29,31.71-7.58,4.63-7.1,5.05,2.17,2.65,12.16,1.14,33-8.48,42.95-29.72c0,0,9.63-20.09-8.3-34.83s-44.34-7.34-54.21-.9-6.37,13.47-5.41,14.43,3.31,2.29,14-1.8m86-18.36s.3-3.67,3-4,4.57.36,5.12,8.19-3.25,19.31-9.51,30.32c-2.83,5-8.18,17.44-8.06,18.71,0,0,1.86,5.17-4.15,5.11s-9.75-9.62-8.79-17.2,3.19-15.77,22.44-41.1m51.05,4.49s-16.19,3.37-25,2.46c0,0-13.42-1.74-9.75-9.44a5.65,5.65,0,0,1,5.3-2.95c3.73.24,8.48.84,15-.24s26.17-1.57,28.75-1.26,6.38,2.94,4.7,8.36-15.35,20.33-15.35,20.33l-21.65,20.52a96.12,96.12,0,0,1,31.64.06c17.21,2.95,26.41,3.73,30.5,3.25A77.39,77.39,0,0,0,325.31,272c1.86-.78,3.49-.18,4.15,1s.42,2.83-2.41,4.57S314.42,285.65,296,285s-29.24-.55-29.24-.55-20.76-.3-32.13,3c0,0-9,4.75-12.81.36s-.9-10.1,1.08-13.29c2.89-4.58,17.69-18.23,45.37-40.85"/><path class="cls-2" d="M292,218.55s-1.69-4.27.9-6.68a6.4,6.4,0,0,1,3.55-1.56c1.2,0,2,.48,3.85.72,1.62.3,31.52-4,31.52-4s9.27-1.45,14.32,3.79c4.28,4.51-3.49,12.81-3.49,12.81s-25.87,26.53-26.77,26.83c0,0,7.28.79,9.33,1s13.77,2.22,17.8,1.62,4.94-.72,5.42-.84,3.07-.9,3.73,1.2S350.25,258.8,343,262s-17.92,3.49-22.44,3.31-17-.84-21.59-.48-9.51,1.63-10.05,1.63-5.3-.24-2.65-7.46,10.11-12.58,10.11-12.58L326.25,222s-25.33,3.19-29.48,1.44c-1.93-.78-4.27-2.89-4.81-4.93M153.4,347c6.26-1.15,16.85-2.47,16.85-2.47s21.53-49.15,30.5-49.45S192,339.91,192,339.91l26.35-5.6s6.13-21.48,12-31.22S238,293,239,293s4.82.18,4.09,4.69S237.69,329,237.69,329l7.28-2.71a2,2,0,0,1,2.65.72c1,1.63-1.69,3.67-1.69,3.67l-10.29,6.68s-7.1,30.93-9.86,35.08-6.14,6.55-9.45,6.31-6.5-3.49-6.2-11,3.31-18.23,3.49-19.07c0,0-23.94,9.57-27.61,9.93,0,0-8,32.18-10.41,36.34s-7.4,6.85-11.43,6.37c-5.48-.66-6.26-8.24-6.32-12.75s3.43-19.25,6.2-27.74c0,0-12.33-1.32-14.44-4.27a7.24,7.24,0,0,1-1.32-5.47c.54-3.43,5.11-4.15,5.11-4.15"/><path class="cls-3" d="M308.46,364.44s36-11.07,57.69-13.53,31.65-3.19,31.65-3.19a2.2,2.2,0,0,1,2.65,1.92c.42,2.23-2.95,2.71-2.95,2.71-66.42,19.91-113.29,39.95-118.82,42.3-5.24,2.1-72.74,31.76-72.74,31.76s-8.3,3-15,1.81-8.12-4.34-8.66-7.4c0,0-2-6.92,7.82-10.23,9-3.07,33.21-13.9,33.21-13.9l63.59-25.21,21.6-7Z"/><path class="cls-2" d="M393.34,227.29a16.53,16.53,0,0,0-.72,3.61s-8.48,4.87-12.33,6.38a24,24,0,0,1-8.85,1.26c4.88-16.54,25.63-19.79,25.63-19.79s-3.19,7.16-3.73,8.54m31,10.41c-.3-1.21-6.86-2-9.27-2.23a6,6,0,0,1-5.53-4.15c-1-2.65,2.52-11,4.09-16.91s-1.63-8-3.49-8.18-4.09,1.51-4.09,1.51c-24.13-5.06-51.44,20.45-53,31.76-1.14,8.24,1.21,14.08,8.07,15.52s13-1,18.35-3.12,15.88-10.17,15.88-10.17c1,2.59,6.74,5.17,12,5.35s14.32-4,15.88-5.05,1.51-3.13,1.15-4.33"/><path class="cls-4" d="M240,183s2.76-1.39,3.91-.19.48,3-.43,4.64-13.59,21.23-17.86,25a8.19,8.19,0,0,1-9.57,1c-3.07-1.75-2.65-7.64-1.56-10.11a32.53,32.53,0,0,1,12.15-14A60.72,60.72,0,0,1,240,183"/><path class="cls-5" d="M405.16,157l-5.36-3.73c-15.16-11.85-76.64-36.22-76.64-36.22s-4.33-9.74-6.8-14.5a105.88,105.88,0,0,0-17.81-24.24,2.32,2.32,0,0,0-1-.3l-.48.12L279,83l-41.4,12s-28.39,8.91-29.72,9.39a8.34,8.34,0,0,0-2.28,1.44s-9.69,16.67-10.47,18.59-12,23.47-12,23.47l-27.68,13c-2.52,1.39-2.52,1.27-21.66,12.82l-23.16,16.18s-22,16.61-23.76,18.29-3.85,5.17-1.93,8.24,6.62,2.53,6.62,2.53l22.2-5.84,44.58-11.31,53.06-11.07,7.28-1.26a35.14,35.14,0,0,1,5.42-4.15,65.56,65.56,0,0,1,14.26-6.74c2.76-1.26,6.37-1.57,8.84,1a6.51,6.51,0,0,1,1.87,4.87l3-.54h.12L309,176.52s36.22-3.67,48.37-4c29.36-.9,43.5-5.29,43.5-5.29,1.2-.54,5.17-1.93,5.95-5.18a4.84,4.84,0,0,0-1.62-5"/><path class="cls-2" d="M327.53,312.72s-15.46.06-15.82-5.71,6.19-7,9.14-5.54a10.69,10.69,0,0,0,3.31.12c1.63-.24,9.69-1.68,9.69-1.68s12.15-19.68,14.38-21.72c0,0,2.4-3.25,6.25-.66s1.09,8.72,1.09,8.72l-5.06,10.23,36.4-6.8s2.23-.54,2.65,1.26c.36,1.51-3.49,3.19-3.49,3.19s-37.48,15-41.45,15.7l-10.35,28L325.79,363a3.56,3.56,0,0,1-3.13,1.92c-2.11-.06-3.13-3.73-3.19-4.63s-.9-14.14.66-23,7.4-24.31,7.4-24.31m-74.38,10.48a9,9,0,0,0-3.73-4c-2.53-1.32-2.95-2.59-1.74-3.91s6.13-2.65,11.19-1.62,8.6,7.09,9,11.31a42.22,42.22,0,0,1-2.95,18.41s22.5-14,27.08-21.66c0,0,5.59-11.43,8.18-13.48,0,0,5.23-4,7.46,2,0,0,.18,4.69-1.5,14.13s-1.81,27.74-1.51,28.28,2.47,3.61-1,5.6c0,0-2.41.78-5.84-2s-9.38-7.94-9.08-18.35c0,0-10.77,15.52-19.86,19.61s-13,4.52-18.71.24-1.74-17.26-1.74-17.26,4.51-13.6,4.57-13.9.66-2.23.12-3.37m-69.75-181c-.06.24-.54.3-1,.12s-1-.72-.54-2,11-23.11,17.93-34.78a5,5,0,0,1,3.37-2.83c2.65-.84,70.27-20.21,70.27-20.21L291,78.19a4.15,4.15,0,0,1,4.51,2.89c1.14,3.43-2.17,4.87-2.89,5.11s-41.33,13-41.33,13L205.54,110s-22,32.19-22.14,32.37m123.19-66a.65.65,0,0,1,.3-.84c.54-.24,1,.54,1,.54s4.63,8.48,5.24,10.35,10.52,29.29,10.52,29.29,33.7,9.81,35.44,10.29,38.32,13.3,56.91,22.92c0,0,1.75.85,1.93,1a4.13,4.13,0,0,1,1.2,4.45,4.33,4.33,0,0,1-4.09,2.71,47.32,47.32,0,0,1-5-1.69s-67-24.06-84.35-28.21c0,0-8.72-2.89-10-5.66s-3.43-17.39-3.43-17.39Zm79.82,83.69c-1.26-6.56-12.33-6.92-14-6.74S260.37,168,253,169.23C213.08,175.78,144.5,193,144.5,193l-42.06,12.39c.79-1.56,34.42-25.32,36.4-26.83s41-25.45,41-25.45,3.13-1.2,2.11-3.13a2,2,0,0,0-2.47-1.2l-9.38,4c-13.54,5.78-35.26,18.83-35.26,18.83-17.14,9.51-53.12,38.69-53.12,38.69A5.43,5.43,0,0,0,80,217c1.81,4.39,6.68,3.85,6.68,3.85l52.22-14.08c3.85-1.75,72-15.64,72-15.64l7.4-1.33a35.59,35.59,0,0,1,5.83-4.51,65.1,65.1,0,0,1,14.2-6.74c2.77-1.2,6.44-1.56,8.84,1a6.53,6.53,0,0,1,1.93,5.11l3-.48.06-.06c38.8-6.68,124.23-12.34,124.23-12.34,3.13-.48,11.62-3.31,10-11.67m12.22,204.75h.78c.91,0,1.75-.36,1.75-1.21,0-.6-.48-1.2-1.75-1.2a2.71,2.71,0,0,0-.78.06v2.35Zm0,3.85h-1.08v-6.92a8.33,8.33,0,0,1,1.92-.18,3.7,3.7,0,0,1,2.17.48,1.74,1.74,0,0,1,.66,1.44,1.64,1.64,0,0,1-1.38,1.69v.06c.6.12,1,.66,1.2,1.74a4,4,0,0,0,.42,1.69H401.4a4.08,4.08,0,0,1-.48-1.75,1.33,1.33,0,0,0-1.51-1.26h-.78v3Zm1.14-8.91a5,5,0,1,0,.06,0Zm.06-1a6.16,6.16,0,1,1-.06,0Z"/></g></g></svg>