<svg xmlns="http://www.w3.org/2000/svg" viewBox="0 0 504 504"><defs><style>.cls-1{fill:#e5173f;}.cls-2{fill:#231f20;}.cls-3{fill:#fff;}.cls-4{fill:#221e1f;}</style></defs><title>food-3</title><g id="Layer_2" data-name="Layer 2"><g id="Layer_1-2" data-name="Layer 1"><rect class="cls-1" width="504" height="504"/><g id="_231f20ff" data-name="#231f20ff"><path class="cls-2" d="M273.24,64.7c10.88-6.47,23.4-11,36.16-10.15a34.68,34.68,0,0,1,25.12,12.93c6.87,8.51,10.22,20,7.69,30.84-2.86,13.66-13.5,24.13-25.12,31.09,1.8,6.46,3.6,13,5.65,19.39,2.7,0,5.32.08,8,.08-.25-12,3.84-24.38,12.19-33.22a23.25,23.25,0,0,1,8.26-5.8c3.35-1.23,7.85,0,9.16,3.51,1.39,5.08-1.47,9.9-4,14.07-4.74,7.2-11.86,13.5-12.76,22.58,21.6,2.7,42.62,12.28,57.76,28.06,15.79,15.79,25.6,37.56,26.09,60,8.1.41,16.2,4.25,20.46,11.29,5.48,9.08,6.79,20.13,5.64,30.52-1.72,13.25-7.77,25.52-15.46,36.4-9.16,13-20.62,24.3-32.89,34.28-2.21,1.88-5,3.19-6.3,5.89a41.64,41.64,0,0,1-15.95,16,56.61,56.61,0,0,1-37.55,6c-2.86-.41-5.65-1.48-8.43-2-20.12-1.88-40.41-3.43-60.37-7-14.65-2.7-29.29-7-42.3-14.56-10.88-6.38-20.37-15.87-24.54-28-2.78-8.18-3.85-17.51-1-25.77,2.29-6.63,7.11-11.95,12.6-16.12a97.67,97.67,0,0,1-7.12-36.16,100.05,100.05,0,0,1,18.08-54.73,81.88,81.88,0,0,1-5.73-6.38,40.38,40.38,0,0,1-27.4,4.09c-10-1.88-19.88-7.44-24.87-16.61a33.19,33.19,0,0,1-.74-30c4.09-8.35,11.53-14.48,19.39-19.06,12.84-7.53,27.4-11.54,42-14.16,6.3-20,20.61-36.73,38.2-47.36m1.39,4.58c-19.88,12-33,32.72-40,54.56-.74,2-1.23,5.24-4,5.16-.08-4.26,1.72-8.18,2.7-12.19-13.09,2.78-26.26,6.46-38,13.17-7.12,4.09-13.74,9.65-17.42,17.1-4.83,9.73-3.36,22.41,3.92,30.6,4.91,5.56,12,8.75,19.31,10.06,7.36,1.14,15.46.9,22-3.19-6.06-5.32-12-10.72-18.49-15.63a3,3,0,0,1-1.56-2.37c12.36,3.84,21.93,13.17,30.76,22.17.58.41,1.48,2,2.21,1,9.9-12.27,23.07-21.51,37.31-28.22-4.09-7.77-7.12-16.45-6.79-25.36.16-5.57.81-11.46,3.68-16.28,2.13-3.44,6.54-5.65,10.47-4.09,2.37.9,3.76,3.43,4.42,5.8,2.78,11.29-2.05,23,1.55,34.2,10.06-3.11,20.29-6,30.93-6.3-3.11-11.62-6.55-23.23-7.78-35.26a40.4,40.4,0,0,1,.33-10.88,7.87,7.87,0,0,1,1.23-.49c1.14,7.36,2.86,14.64,4.5,21.92,10.8-6,19.88-16.52,22.17-29,2.86-15.87-8.67-33-24.71-35.83-13.66-2.37-27.24,2.46-38.78,9.33m76.82,44.26c-3.51,1.22-6.3,3.92-8.5,6.87-4.26,6.13-7.78,12.92-8.84,20.37-1.31,7.12-.57,14.4-.9,21.52-2.95-2-1.8-6.39-2.37-9.41-14.48-.66-28.88,2.12-42.63,6.71,1,3.92,4.34,7,4.83,11a6.22,6.22,0,0,1-2.62-2,34.37,34.37,0,0,1-8.5-17.35c-1.15-6.21.32-12.51.24-18.73-.08-4.17.41-8.84-2.21-12.35-2.13-1.48-5.23-.41-6.54,1.63-2.54,3.85-3.19,8.59-3.19,13.09-.25,11.45,3.92,22.74,10.39,32.07,1.39,2.62,4.09,4.66,4.5,7.69-4.5-1.88-6.47-6.95-9.9-9.9a110.61,110.61,0,0,0-16.45,9.57,93.82,93.82,0,0,0-36.24,50.48c-6,18.9-4.58,39.76,2.54,58.08,11.21-5.72,24.87-5.48,36.24-.32a16.63,16.63,0,0,1,.82,1.71c-6.06-.89-12.11-2-18.25-1.88a34,34,0,0,0-22.82,8,26.84,26.84,0,0,0-9.16,17.1,42.69,42.69,0,0,0,11.94,33.21c10.64,11.05,25.12,17.43,39.84,21,20.7,5.07,41.89,7.28,63,9.08-2-1.47-4.17-3-5.56-5.07l.33-1.15c4,.9,7.61,3.11,11.53,4.42,12.77,5.64,27.74,7.28,40.91,2.21A42.21,42.21,0,0,0,399.15,346c.9-1.56.82-4.17,2.78-4.75.08,1.89.08,3.85.08,5.73a157.87,157.87,0,0,0,29.86-29.7c7.61-10.14,13.91-21.59,16.36-34.19a49.32,49.32,0,0,0-2.45-28.55,21.66,21.66,0,0,0-12.27-12c-7-2.7-14.89-1.47-21.44,1.8V243c3.19-2.62,7.2-4,11.21-4.91a85.18,85.18,0,0,0-34.69-66.26c-13.49-9.74-29.36-16.45-46-17.92-.25,3.11-.25,6.3-.57,9.41-1.56-1-1.8-3-1.89-4.58-.24-5.48-.08-11.21,2.21-16.28,3.36-7.86,9.57-13.91,13.5-21.44,1-2.12,2.05-4.82.41-7-1.06-1.31-3.27-.9-4.83-.57Z"/><path class="cls-2" d="M364.3,198c6.62-2,13.82-.08,19.47,3.6,6.54,4.42,11,11.21,14.31,18.17A61.23,61.23,0,0,1,403.89,245c1.31,0,3.11.17,2.21,2.05-9.9,5.56-20.45,9.9-30.43,15.3-3.52,1.72-6.79,3.84-10.39,5.23-6.3-7.77-10.31-17.09-13-26.58-2.37-8.84-4.09-18.33-1.88-27.41,1.55-7,6.71-13.58,13.91-15.63m-9.08,12.28c-3.36,7.77-3,16.85-.82,24.87.82-5,2.86-10.31,7.44-13a16.26,16.26,0,0,1,19.39,1.55c-1.72,4.34-3.84,8.59-5.56,13,3.68-2.21,7.28-4.66,10.8-7.12a39.26,39.26,0,0,1,6.13,20.62c2.7-1.15,5.32-2.29,7.94-3.6-.57-13.5-4.83-27.24-13.91-37.47-4.42-5-10.8-8.92-17.67-8.26a15.67,15.67,0,0,0-13.74,9.41Zm-64.55,3.51c10-.49,19,5.81,24.87,13.42,7.69,9.9,10.14,22.66,11,34.93a87.9,87.9,0,0,1-.49,16.77c-6.13,0-12.35,0-18.49.17a318,318,0,0,0-35.26,3.84c-.24-.57-.81-1.63-1.06-2.21,1-.49,2-.9,3-1.39-5.49-10.39-9.33-21.92-9.33-33.7,0-8.92,2.78-18.16,9.41-24.38,4.5-4.17,10.14-7.53,16.36-7.45m-4.34,4.83c-6.38,1.72-11.29,6.87-14.23,12.6A34.59,34.59,0,0,0,270,255.8c.66-8,6.22-15.87,14.15-17.91,5.81-1.64,12,.65,16.69,4.17-2.12,5-4.5,9.9-6.13,15.13,4.09-2.53,8-5.31,12.19-7.52,4.5,7.85,5.07,17.18,3.76,25.93,4,0,8.1-.08,12.11-.16.65-11.13-.25-22.5-3.68-33.22-2.95-9-8.76-17.34-17.27-21.92a21.1,21.1,0,0,0-15.46-1.72Zm121.16,57.84c2.21-.33,4.26-2,6.63-1.64-2.95,3.93-8.43,4.67-11.13,8.84a140.4,140.4,0,0,0-18.81,33.3c-3.19,7.36-7.53,15.05-15,18.81-7.61,3.36-16.69,2.86-24.14-.57-7-3.11-13.17-7.86-20.2-11.05A239.88,239.88,0,0,0,297.3,313.4c-2.13-.58-4.42-1.56-6.71-.74a28,28,0,0,1-13.26.82c.17-.25.49-.82.66-1.06,5.4-.74,10.88-2.62,14.56-6.79,1.23-1.15,2.05-3.2,4-3.2.33,2.21-.66,4.26-1.64,6.22,5.65,2.29,11.78,3,17.76,3.93,16.85,2,34.36,2,50.72-3.19,12.51-4,24.54-10.8,32.72-21.19a28.58,28.58,0,0,0,4.5-7.44c-2.37-.41-5.32-1.23-6.05-3.93,4.41.16,8.75.82,12.92-.41m-46,43.77c1.06,1.63,2.29,3.19,3.19,4.82-8.43-5.89-20.21-4.66-28.47.74,6.79,5.15,15.3,8.92,24,8.26,8.42-.73,15.62-7.2,18.65-14.89-2.78-1.14-5.73-2.37-8.84-2.12a17.93,17.93,0,0,0-8.5,3.19Z"/><path class="cls-2" d="M363,280a7.93,7.93,0,0,1,3.52,6.46c.24,3.44-2.29,6.38-5.16,8a20.73,20.73,0,0,1-14.23,1c-3.44-1.14-7.61-3.27-8.27-7.28a21.78,21.78,0,0,0,17.1,3.11c3.11-.74,6.22-2.46,7.61-5.48.9-2.05.08-4-.57-5.81Z"/></g><g id="_ffffffff" data-name="#ffffffff"><path class="cls-3" d="M274.63,69.28c11.54-6.87,25.2-11.7,38.78-9.57,16,2.86,27.49,20,24.71,35.83-2.29,12.43-11.37,22.91-22.17,29-1.64-7.28-3.36-14.56-4.5-21.93a7.94,7.94,0,0,1-1.23.5,40.9,40.9,0,0,0-.33,10.88c1.23,12,4.67,23.64,7.78,35.26-10.56.4-20.87,3.27-30.93,6.3-3.6-11.21,1.23-22.91-1.55-34.2-.66-2.37-2-4.83-4.42-5.81-3.93-1.55-8.34.57-10.47,4.09-2.87,4.91-3.52,10.72-3.68,16.28-.33,8.92,2.7,17.59,6.79,25.36-14.16,6.71-27.41,16-37.31,28.23-.73,1-1.63-.58-2.21-1-8.83-9-18.4-18.32-30.76-22.17a2.83,2.83,0,0,0,1.56,2.38c6.38,4.9,12.43,10.3,18.49,15.62-6.55,4-14.57,4.26-22,3.19-7.2-1.31-14.32-4.5-19.31-10.06-7.28-8.18-8.75-20.78-3.92-30.6,3.68-7.44,10.3-13,17.42-17.09,11.7-6.71,24.79-10.39,38-13.18-1,4.09-2.78,8-2.7,12.19,2.78.09,3.19-3.19,4-5.15,6.87-21.6,20.12-42.3,40-54.32Zm77.8,116.17a32.63,32.63,0,0,1,22.42-1.88c8.43,2.45,15.38,8.34,20.94,14.89,10.88,12.1,16,28.63,16.37,44.74v1.31c6.54-3.27,14.48-4.5,21.43-1.8a21.66,21.66,0,0,1,12.27,12,50.78,50.78,0,0,1,2.46,28.55c-2.46,12.52-8.76,24-16.37,34.2a157.52,157.52,0,0,1-29.86,29.69c0-1.88,0-3.84-.08-5.72-2,.57-1.88,3.19-2.78,4.74A42,42,0,0,1,374,371.48c-13.17,5.07-28.14,3.44-40.9-2.21-3.93-1.31-7.53-3.51-11.54-4.41l-.33,1.14a23.27,23.27,0,0,0,5.57,5.07c-21.19-1.8-42.38-4-63-9.08-14.64-3.6-29.2-10-39.84-21A42.75,42.75,0,0,1,212,307.75a27.06,27.06,0,0,1,9.16-17.1,33.59,33.59,0,0,1,22.83-8c6.13-.08,12.19,1.06,18.24,1.88-.25-.57-.57-1.15-.82-1.72-8.51-16.2-13-35.42-8.59-53.5,2.54-10.8,9.25-20.78,19-26.35,10-5.8,22.58-7.28,33.38-2.94,12.68,5,22.91,15.05,29.45,26.91.08-6.46-.49-13,1.31-19.3,2.45-9,7.85-17.92,16.52-22.17M364.3,198c-7.2,2-12.36,8.59-14,15.71-2.13,9.08-.41,18.57,1.88,27.41,2.7,9.49,6.71,18.81,13,26.59,3.68-1.31,6.95-3.52,10.39-5.24,10-5.4,20.53-9.74,30.43-15.3.9-1.8-.9-2-2.21-2A62.53,62.53,0,0,0,398,219.81c-3.27-7-7.77-13.83-14.31-18.16-5.57-3.77-12.85-5.73-19.39-3.69m-73.63,15.79c-6.22-.08-11.86,3.28-16.36,7.37-6.55,6.21-9.41,15.54-9.41,24.38,0,11.78,3.76,23.31,9.33,33.7-1,.49-2,.9-3,1.39.25.57.82,1.64,1.06,2.21A283.62,283.62,0,0,1,307.6,279c6.14-.09,12.36-.17,18.49-.17a95,95,0,0,0,.49-16.77c-.9-12.19-3.35-25-11-34.93-5.81-7.53-14.89-13.83-24.87-13.34m116.82,62.67c-4.17,1.23-8.51.65-12.84.49.73,2.7,3.68,3.52,6.05,3.93-1,2.78-2.78,5.07-4.5,7.44-8.26,10.39-20.29,17.18-32.72,21.19-16.36,5.15-33.87,5.24-50.72,3.19-6.06-.82-12.11-1.64-17.76-3.93,1-1.88,2-3.92,1.64-6.21-2-.09-2.7,2-4,3.19-3.68,4.17-9.16,6.05-14.56,6.79-.16.24-.49.82-.65,1.06a28,28,0,0,0,13.25-.82c2.21-.9,4.5.17,6.71.74A219,219,0,0,1,325,324.2c7,3.19,13.17,7.93,20.2,11,7.53,3.44,16.53,4,24.14.57,7.44-3.76,11.78-11.45,15-18.81a137.38,137.38,0,0,1,18.82-33.3c2.69-4.17,8.18-4.91,11.12-8.83-2.45-.41-4.42,1.14-6.71,1.55M363,280c.65,1.88,1.47,3.76.65,5.73-1.39,3-4.5,4.82-7.61,5.48a21.82,21.82,0,0,1-17.09-3.11c.65,4,4.74,6.13,8.26,7.28a20.85,20.85,0,0,0,14.23-1c2.87-1.64,5.4-4.58,5.16-8A8.08,8.08,0,0,0,363,280M363.4,346c-8.1,1.8-16.2-1.15-23.56-4.26,5.72,7.37,16.19,9.49,25,7.61,7.77-1.55,15-7,16.93-15-4.82,5.56-11,10.39-18.4,11.62Z"/><path class="cls-3" d="M355.22,210.24A15.48,15.48,0,0,1,369,200.91c6.87-.66,13.26,3.35,17.67,8.26,9.08,10.23,13.34,24,13.91,37.47-2.62,1.31-5.24,2.46-7.93,3.6a38.56,38.56,0,0,0-6.14-20.62q-5.28,3.69-10.8,7.12c1.72-4.33,3.76-8.59,5.56-13a16.25,16.25,0,0,0-19.39-1.55c-4.58,2.7-6.7,7.94-7.44,13-2.21-8.1-2.62-17.18.74-24.95Zm-68.89,8.34a21,21,0,0,1,15.55,1.8c8.5,4.5,14.31,12.93,17.26,21.92,3.43,10.64,4.33,22,3.68,33.22-4,.08-8.1.08-12.11.16,1.31-8.75.74-18.16-3.76-25.93-4.26,2.29-8.18,5-12.19,7.53,1.72-5.16,4-10.07,6.14-15.14-4.67-3.6-10.8-5.81-16.69-4.17-7.94,2.13-13.5,9.9-14.16,17.92a34.25,34.25,0,0,1,2.13-24.63c2.86-5.89,7.77-11,14.15-12.68Z"/></g><path class="cls-1" d="M351.45,113.54c1.56-.33,3.77-.74,4.91.73,1.64,2,.66,4.83-.41,7-3.92,7.52-10.14,13.58-13.5,21.43-2.2,5.07-2.45,10.8-2.2,16.28.08,1.64.24,3.6,1.88,4.58.32-3.11.32-6.3.57-9.41,16.61,1.48,32.56,8.19,46,17.92a85.45,85.45,0,0,1,34.68,66.27c-4,.9-8,2.21-11.2,4.9-.33-16.11-5.49-32.64-16.37-44.74-5.64-6.55-12.51-12.44-20.94-14.89a32.63,32.63,0,0,0-22.42,1.88c-8.67,4.17-14.07,13.09-16.52,22.17-1.8,6.3-1.31,12.84-1.31,19.3C328.14,215.14,317.83,205,305.15,200c-10.8-4.34-23.4-2.86-33.38,2.94-9.73,5.57-16.44,15.55-19,26.35-4.42,18.08.08,37.3,8.59,53.5-11.37-5.07-25-5.4-36.24.33-7.12-18.41-8.51-39.19-2.54-58.09a93.76,93.76,0,0,1,36.24-50.47A109.54,109.54,0,0,1,275.29,165c3.43,2.95,5.32,8,9.9,9.9-.41-3.1-3.11-5.07-4.5-7.69-6.55-9.32-10.64-20.53-10.39-32.07,0-4.5.65-9.24,3.19-13.08,1.39-2,4.42-3.11,6.54-1.64,2.62,3.52,2.13,8.18,2.21,12.35.08,6.3-1.39,12.52-.24,18.74a34.31,34.31,0,0,0,8.51,17.34,6.85,6.85,0,0,0,2.61,2c-.49-4.09-3.76-7.11-4.82-11,13.74-4.58,28.14-7.36,42.62-6.71.65,3.11-.57,7.45,2.37,9.41.33-7.2-.49-14.4.9-21.52,1.07-7.44,4.58-14.31,8.84-20.37a17.56,17.56,0,0,1,8.42-7Z"/><path class="cls-1" d="M361.52,320.19a16.75,16.75,0,0,1,8.5-3.11c3.11-.25,6.06,1,8.84,2.13-3,7.69-10.23,14.15-18.65,14.89-8.67.65-17.18-3.11-24-8.27,8.34-5.4,20.12-6.71,28.47-.73a42.31,42.31,0,0,0-3.19-4.91Z"/><path class="cls-3" d="M224,367.56a10.31,10.31,0,0,1,10.56,5.15c2.7,4.91.65,11.94-4.67,14.15-5.89,2.95-13.82-1.22-14.39-7.85a10.14,10.14,0,0,1,8.5-11.45Z"/><path class="cls-3" d="M86,375.57a9.16,9.16,0,0,1,11.62-1.06,9,9,0,0,1,3.68,7.69c0,12.27,0,24.54.08,36.81.33,6.71,0,13.91-3.93,19.72-6.38,10.06-20.12,12.93-30.92,9.33a24.66,24.66,0,0,1-16.44-17.18V427.6c.73-5.56,7.44-8.26,12.19-6,4,1.88,5.15,6.79,8.59,9.41,3.27,2.45,8.67,2,11-1.47,1.64-2.13,1.64-4.83,1.64-7.37-.08-12.76,0-25.6-.08-38.45-.09-2.86.4-6.05,2.53-8.18Z"/><path class="cls-3" d="M291,408.79c-6.22-9.74-19.56-14.16-30.36-10.06,0-5.49.09-11.05,0-16.53a9.21,9.21,0,0,0-6.78-8.92c-5.24-1.63-11.38,2.46-11.38,8-.08,13.66,0,27.32-.16,41a30.73,30.73,0,0,0,1.8,11.78A22.81,22.81,0,0,0,258,447.57a30.4,30.4,0,0,0,18.48.65A26.39,26.39,0,0,0,291,408.79Zm-12.52,15.13a9.79,9.79,0,0,1-9.16,8.67c-5.24.5-10.23-4.17-10.23-9.49a9.78,9.78,0,0,1,8.35-9.81C273.41,412.22,279.38,418,278.48,423.92Z"/><path class="cls-3" d="M197.65,377.86a8.92,8.92,0,0,1,8.35,2.21c2.2,2,2.86,5.07,2.86,7.94-.08,16.93,0,33.87,0,50.8.16,4.42-3,8.84-7.61,9.41A8.91,8.91,0,0,1,191,439.55v-53.1a8.89,8.89,0,0,1,6.63-8.59Z"/><path class="cls-3" d="M169.84,378.76c5.31-3.27,13.09.66,13.25,7q.12,26.86,0,53.83a8.84,8.84,0,0,1-17.67,0c0-11.7-.33-23.48,0-35.18,0-6.3-.33-12.6.08-18.82a8.72,8.72,0,0,1,4.34-6.79Z"/><path class="cls-3" d="M159.53,417.87c-2.13-13.26-15.46-23.32-28.8-21.68a26.67,26.67,0,1,0,8.59,52.52C152.82,445.93,162.39,431.37,159.53,417.87Zm-16.61,5.23a9.72,9.72,0,0,1-11.12,9.25c-4.67-.74-8.51-5.24-8-10-.08-4.58,3.76-8.51,8.1-9.16C137.6,412.14,143.41,417.21,142.92,423.1Z"/><path class="cls-3" d="M348.26,415.82a23.23,23.23,0,0,0-12.1-16.93c-9.9-5.24-23.4-3.11-30.77,5.56-9.24,10.55-8.5,28.39,1.89,37.88,7.44,6.95,18.57,8.51,28.14,5.89,3.52-1.15,7.2-2.7,9.32-5.89,1.72-2.7,1.81-6.71-.81-8.84s-6.38-1.22-9.33-.24c-6.22,2-15,2-18.49-4.66,8.1-.33,16.28,0,24.38-.17,2.78-.08,6.22-1,7.53-3.76S348.75,418.77,348.26,415.82Zm-32.39,1.23c.41-5.81,7.28-9,12.27-6.71,2.86,1,4.58,3.85,5.15,6.71Q324.58,417.17,315.87,417.05Z"/><path class="cls-3" d="M222.28,396.68c5.31-2.21,11.94,1.64,12.19,7.53.08,11.69,0,23.48,0,35.17a8.83,8.83,0,0,1-8.51,8.76c-4.83.41-9.17-3.85-9.17-8.67-.08-11.46,0-22.91,0-34.36a8.71,8.71,0,0,1,5.49-8.43Z"/><path class="cls-3" d="M392.11,400.2a26,26,0,0,0-25.93-1.31,24.22,24.22,0,0,0-12.27,15.3c-3.11,10-.25,21.84,7.85,28.71,7.12,6.22,17.51,7.69,26.51,5.57,3.43-1,7-2.38,9.49-5.08,2.21-2.53,2.94-6.71.57-9.32-2.13-2.46-5.81-2.05-8.67-1.23a24.43,24.43,0,0,1-12.11,1.23c-3.19-.66-6.3-2.46-7.53-5.57,8.18-.08,16.28.09,24.47-.08,3.27,0,7.28-1.72,7.85-5.32C403.32,414.43,399.56,405,392.11,400.2Zm-22.74,16.85a8.74,8.74,0,0,1,8.75-7.45,8.83,8.83,0,0,1,8.84,7.45Z"/><path id="_221e1fff" data-name="#221e1fff" class="cls-4" d="M363.4,346c7.44-1.23,13.58-6,18.4-11.54-2,7.86-9.16,13.42-16.93,15-8.84,1.8-19.23-.24-25-7.6,7.36,3,15.46,5.89,23.56,4.17Z"/></g></g></svg>