<svg xmlns="http://www.w3.org/2000/svg" viewBox="0 0 504 504"><defs><style>.cls-1{fill:#9c0b2b;}.cls-2{fill:#fff;}.cls-3{fill:#2f1e18;}.cls-4{fill:#dd1438;}.cls-5{fill:#24ace9;}.cls-6{fill:#fcd3d7;}</style></defs><title>food-4</title><g id="Layer_2" data-name="Layer 2"><g id="Layer_1-2" data-name="Layer 1"><rect class="cls-1" width="504" height="504"/><path class="cls-2" d="M298.1,391.41a53.62,53.62,0,0,1-6.22,10.12,34.3,34.3,0,0,1-7,6.85c-2.06,1.46-3.78,2.59-5.2,2.34-.91-.23-.79-1.84-.68-2.88a25,25,0,0,1,2.83-8.92,40.79,40.79,0,0,1,5.78-8.37,35.13,35.13,0,0,1,7.43-6.27,21,21,0,0,1,6.13-2.66,36.63,36.63,0,0,1-3,9.79m24.72-67.14c-5.92-.94-10.2,3.57-12.08,8a43.12,43.12,0,0,0-1.49,4.37c-.63,2-.89,3.47-1.38,5.51-.38,1.59-.75,3.17-1.1,4.76-.41,1.85-.46,2.13-1,4.94q-.68,3.52-1.22,7.08c-.29,1.86-.57,3.41-.85,5.28a52.71,52.71,0,0,0-12.94,5,53.92,53.92,0,0,0-12.94,9.88,58.55,58.55,0,0,0-10.1,14.09,50.39,50.39,0,0,0-5.27,17.91c-.09.84-.15,1.69-.18,2.54a8.28,8.28,0,0,1-1.52-1.65,12.81,12.81,0,0,1-1.83-4.4,25.38,25.38,0,0,1-.63-5.51,42.07,42.07,0,0,1,.22-4.25c.14-1.3.34-2.6.59-3.89.13-.78.23-1.5.32-2.2.07-.46.12-.91.2-1.36.85-5.19,1.23-8.68.71-12.22-.34-2.35-2.23-6.87-7-7a9.4,9.4,0,0,0-1.17,0,21.67,21.67,0,0,0-9.23,3.65,43.6,43.6,0,0,0-11.19,11.47c.45-1.4,1.06-2.8,1.64-4.15.42-.93.81-1.87,1.18-2.81a25,25,0,0,0,1.76-5.64,5.17,5.17,0,0,0-.68-3.56,4.94,4.94,0,0,0-1.91-1.66,5.37,5.37,0,0,0-2.22-.49,10.34,10.34,0,0,0-6.16,1.67,18.11,18.11,0,0,0-3.22,2.64,22,22,0,0,0-2.42,3.34,30.19,30.19,0,0,0-2.88,6.79q-1.4,4.49-2.46,9.06-1.14,4.83-2.06,9.72c-.54,2.8-1,5.63-1.31,8.46s-.52,5.6-.67,8.4a46.83,46.83,0,0,0,.15,7.49,14.08,14.08,0,0,0,1.69,5.65,5,5,0,0,0,5.1,2.36h.11a18.33,18.33,0,0,0,3.28-.75,10.56,10.56,0,0,0,4.85-4.4c.94-1.46,1.91-5.35,3.06-10.26.27-1.13.52-2.17.73-3,4.53-17.7,11.12-21.42,14.37-22.1l-.67,6c-.16,2.61-.35,4.92-.41,7.67a45,45,0,0,0,1.22,10.74c.72,2.94,2,6.49,3.67,8.35,1.9,2.18,3.73,3.61,7.05,3.41h.08a12.54,12.54,0,0,0,3.72-1,11.62,11.62,0,0,0,3.67-2.62,8.77,8.77,0,0,0,2-2.76,11,11,0,0,0,2.29,2.92,8.6,8.6,0,0,0,6.21,1.82h.19c.29,0,.93-.08,3-.36a25.47,25.47,0,0,0,6.8-2.18,48.32,48.32,0,0,0,8.75-5.43,46.82,46.82,0,0,0,7-6.61,29.09,29.09,0,0,0,1.22,12.29,19.39,19.39,0,0,0,2.93,5.57c1.53,2.07,3.87,3.12,7,3.15h0l.37,0a12.52,12.52,0,0,0,3.72-1.17,10.33,10.33,0,0,0,2.94-2.4,8.48,8.48,0,0,0,1.95-4.79,7.8,7.8,0,0,0-.1-2.05,5.22,5.22,0,0,0-.93-2c-.18-.26-.36-.53-.52-.81a17.6,17.6,0,0,1-2-4.53c-.78-3.28-1-6-.83-11.33.07-2.53.27-5.31.47-7.95s.5-5.23.8-8l.6-5.47c.06-.66.13-1.22.2-1.71h.37a7.28,7.28,0,0,0,4.2-1.42c1.67-1.17,2.69-3.28,3-6.29a7.32,7.32,0,0,0-1.89-6.21,15.43,15.43,0,0,0-3.12-2.38c.16-1,.33-1.89.45-2.73.17-1.08.34-2,.52-2.8.12-.54.23-1.08.34-1.63s.17-.93.27-1.38c0-.1,1.89-8.78,5.61-21.71a28.88,28.88,0,0,0,1-5.07c.22-2-.26-5.31-4-5.9m53.38,45.57a13.47,13.47,0,0,1,.18,4.52,45.53,45.53,0,0,1-1,5.7c0,.08-2.68,10.5-3.73,15.49-.84,4-1.35,7.08-2,10.67a2.23,2.23,0,0,1,0,.23c-.57,3.51-1.46,11.3-2,16.81-1,10.62-1.26,13.15-4.18,21.34a31.63,31.63,0,0,1-13,15.71,40.91,40.91,0,0,1-19.31,5h0c-.39-.05-.78-.08-1.17-.11a22.5,22.5,0,0,1-2.48-.26c-7.41-1.33-11.69-6-10.89-12.12a5.14,5.14,0,0,1,6.12-4.65,47.78,47.78,0,0,0,8.27.72c7.7-.09,13-2.63,16.13-7.93,3.3-5.51,3.69-9.14,4.25-14.15.07-.65.14-1.32.22-2,.31-2.59.54-5,.8-7.51a34.21,34.21,0,0,1-3.64,4.16,38.16,38.16,0,0,1-6.49,5.14,16.77,16.77,0,0,1-6.75,2.37h-.14a9.67,9.67,0,0,1-8.13-4.06,24.45,24.45,0,0,1-3.71-8.49A45.11,45.11,0,0,1,322.29,406a94.16,94.16,0,0,1,.38-9.94c.91-9.4,2.85-16.9,5.76-22.25,3.24-6,7.35-9,12.22-8.86.27,0,.64,0,1.33.11a5.32,5.32,0,0,1,4.16,3,7.1,7.1,0,0,1,.53,3.83,14.43,14.43,0,0,1-1.83,5.31,51.57,51.57,0,0,0-2.71,6.19q-1.2,3.41-2.12,6.9a49.32,49.32,0,0,0-1.48,8.26c-.09,1-.17,2.06-.21,3.1a29.16,29.16,0,0,0,0,4.18,10.63,10.63,0,0,0,.74,3.28,1.89,1.89,0,0,0,1.1.92,4.8,4.8,0,0,0,1,.13,4,4,0,0,0,2.08-.66,15.55,15.55,0,0,0,3.36-3.5,42.92,42.92,0,0,0,4.81-8.49c.79-1.87,1.8-4.93,2.87-8.18,1.21-3.65,3.33-10.82,4.54-13.83a32.23,32.23,0,0,1,2.64-5.15,13.69,13.69,0,0,1,3.52-3.59,8.49,8.49,0,0,1,7.41-1.31,4.71,4.71,0,0,1,2.35,1.45,6.43,6.43,0,0,1,1.44,2.93m3.72-1.54a6.25,6.25,0,0,1,.05-3.35c.19-.63.79-2.12,1.14-3.52a11.51,11.51,0,0,0,.13-5.4,10.27,10.27,0,0,1-.07-4.95,4.89,4.89,0,0,1,3.66-3.14,8.91,8.91,0,0,1,5.39.59,7.67,7.67,0,0,1,3.61,4.46,17.32,17.32,0,0,1,.07,7.76,19.52,19.52,0,0,1-2.53,6.45,11.82,11.82,0,0,1-3.17,3.21,6.55,6.55,0,0,1-5.94.49,4.68,4.68,0,0,1-2.34-2.6m39.05,45a16.89,16.89,0,0,1-4.92,10.08,28.7,28.7,0,0,1-8.69,5.78,37.48,37.48,0,0,1-9.8,2.67,36.43,36.43,0,0,1-7.73.23l-.58-.07c-5.19-.66-8.72-2.31-10.78-5.09a11.41,11.41,0,0,1-2.48-8.55,7.52,7.52,0,0,1,3.71-5.91,8.14,8.14,0,0,1,4.59-1.27.76.76,0,0,1,.16,0,11.1,11.1,0,0,1,4.79,2.12,11.25,11.25,0,0,0,5,1.71c2.76.35,4.85.2,6.2-.46,1-.47,1.54-1,1.6-1.46,0-.21.09-.64-.65-1.35a15.44,15.44,0,0,0-3.7-2.5c-1.63-.82-3.42-1.67-5.48-2.61a34.38,34.38,0,0,1-5.85-3.31,17.15,17.15,0,0,1-4.58-4.7,10.31,10.31,0,0,1-1.39-7.19,22.06,22.06,0,0,1,4.08-9.55,38.23,38.23,0,0,1,18.33-13.83,23.69,23.69,0,0,1,11.41-1.24,11.54,11.54,0,0,1,8.15,4.8c1.84,2.68,2.45,6.37,1.82,10.95a13.46,13.46,0,0,1-2.4,6c-1.07,1.5-3.13,3.2-6.91,2.6a4.59,4.59,0,0,1-4-2.88,17.28,17.28,0,0,1-.86-2.91,4.41,4.41,0,0,0-.63-2,2,2,0,0,0-1.42-.36,6.44,6.44,0,0,0-1.86.34,15.55,15.55,0,0,0-3.32,1.45,13.37,13.37,0,0,0-3,2.39,4.65,4.65,0,0,0-1.25,2.34,1.94,1.94,0,0,0,.72,1.84,22.9,22.9,0,0,0,3.93,2.9,63.31,63.31,0,0,0,5.6,3,33.2,33.2,0,0,1,6.13,3.7,19.43,19.43,0,0,1,4.65,5,10.5,10.5,0,0,1,1.47,7.34m-223.59-17a30.23,30.23,0,0,1-5.4,6.5,29.37,29.37,0,0,1-5.66,3.93,10.1,10.1,0,0,1-2.2.91,28.94,28.94,0,0,1,1.62-5.66,45.81,45.81,0,0,1,4.31-7.93,30.22,30.22,0,0,1,5.38-6.4,7.05,7.05,0,0,1,3-1.71c1.72-.3,1.81,1.92,1.8,2.37,0,2.67-1.52,6-2.81,8m11.38-22.45a9.36,9.36,0,0,0-4.63-1.63,21.41,21.41,0,0,0-4.49.19h-.09a25.78,25.78,0,0,0-7.79,2.61,31.44,31.44,0,0,0-6.15,4.42,40.29,40.29,0,0,0-5.18,5.51,55.38,55.38,0,0,0-4.72,7.42,85.08,85.08,0,0,0-5.88,15.14,34.18,34.18,0,0,1-4.56-.69c-.4-.09-.8-.17-1.2-.22h-.47c5.05-21,8.57-32.87,11.14-41.11l4.19-12.05a16.93,16.93,0,0,0,1.65-6.83c-.28-4.21-3.19-8.47-8.35-7.32-5.48,1.21-8.71,8.19-13.07,23.57q-5,17.42-8.74,35.18-1.93,9.56-3.86,19.12L144,420c-.44,2-.67,2.56-1.37,2.72-.35.08-.79-.17-1-1a67,67,0,0,1-1.12-10.2c-.34-10.9-1.25-22.19-.86-36.48.23-8.17.22-9.48-.32-11.57-1-4-6-6.45-11.5-5.06s-7.07,7.52-10.22,15.89c-2.13,5.66-5.36,15.74-8.56,25.51-3,10.12-6.54,22.52-6.54,22.52l-.66,2.58-.65,2.57c-.79,2.09-1.06,2.51-1.58,2.66s-.83-.29-1-.93c-.33-1.27-.27-9.39-.17-13.68.2-8.73,1.05-18.21,1.86-26.68.47-6.12,2-16.82,2.51-22.94.17-1.85.33-3.79.38-5.1.1-3.9-.16-5.78-1.87-7.71-2.66-2.34-5.91-2.16-9.66-1.31-6,1.37-10.55,5.11-10,7.16a5.37,5.37,0,0,0,.71,1.06,9.89,9.89,0,0,1,1.76,3.4,28.38,28.38,0,0,1,.64,7.29l-.41,9.48c-.76,9.54-1.9,26.72-2.21,38.47A230.72,230.72,0,0,0,83,445.88a63.51,63.51,0,0,0,2,11.38c1,4,3,8.38,6.52,9.26,2.59.65,4.59.5,8-.39,3.13-.82,7.87-3.81,8.92-8.53l4-15.75c1.19-5.61,3.88-15.55,6.18-24.17,1.33-5.13,3-10.87,4-13.85.56-1.5.83-1.91,1.18-2s.57,0,.65.35a4.32,4.32,0,0,1,.1.95l0,1.07.07,3.23c.27,10.55,2.29,28.7,4.18,36.12,1.24,4.86,1.6,10.85,9.08,11.95a14.75,14.75,0,0,0,6.33-.45c5.52-1.68,7-4.86,8.19-10.29.8-3.43,3.3-12.9,4.66-19,.42-1.85.82-3.63,1.23-5.37a63.72,63.72,0,0,0,7.52,1.2,9.05,9.05,0,0,0,.11,1.26l.14,1c.07.47.12.89.22,1.36l.4,1.84a22.46,22.46,0,0,0,3.68,8.08,16.51,16.51,0,0,0,5.52,4.81c2.17,1.18,5.87,1.69,9.39,1.33a9.06,9.06,0,0,0,1.71-.2l.71-.13v0c.52-.11,1.16-.27,1.65-.41,5.52-1.58,12.62-6.49,15.18-13.67,1-2.83.44-4.6-.21-5.59a3.61,3.61,0,0,0-3-1.7,9.26,9.26,0,0,0-1.17.11,13.07,13.07,0,0,0-5.82,2.95,11.33,11.33,0,0,1-4.51,2.44,6.77,6.77,0,0,1-4.39-.23,3.66,3.66,0,0,1-2.18-2.35,11.36,11.36,0,0,1-.61-2.76,34.7,34.7,0,0,0,9.68-4.29,43.12,43.12,0,0,0,9-7.86A44.62,44.62,0,0,0,208,397.46a36,36,0,0,0,3.12-12,15.66,15.66,0,0,0-1-7.43,10.06,10.06,0,0,0-3.39-4.24"/><path class="cls-2" d="M107.67,247.9c2.63,1.37,5.6,1.79,4.79,2.3-1.47.91-6.6,0-9-1.52-1.05-.67-1.45.86-.49,2.1h0a9.44,9.44,0,0,0,1.68,1.89,38.77,38.77,0,0,0,32.25,8.74,136.5,136.5,0,0,0,212.81,21.3,139,139,0,0,0,17-21.44,38.83,38.83,0,0,0,32.83-8.64,9.76,9.76,0,0,0,1.68-1.89c.95-1.24.56-2.77-.51-2.09-2.43,1.51-7.56,2.43-9,1.53-.8-.52,2.16-.94,4.79-2.31,14.19-7.15,11.63-29.7,7.43-25-3,3.81-7,7.83-14.62,7.58,6.9-8,7.58-19.3,5.19-17.3-2.24,2.31-5.23,7.13-11.26,11.19a137.11,137.11,0,0,0,4.95-38.74A135.59,135.59,0,0,0,346.74,89.7a137.22,137.22,0,0,0-29.09-21.59c-5.73-10.43-12.94-18-25.88-20.93-6.07-.84-9.13-.75-14.11,1.42a9.75,9.75,0,0,0-2.29-4.31c-5.45-5.4-15.33-6-20.17-6.87A78,78,0,0,0,230,39.12c-20.71,5.24-34.82,15.29-45,29.41a136.71,136.71,0,0,0-64.8,155.34c-5.55-4-8.38-8.48-10.51-10.69-2.39-2-1.71,9.27,5.19,17.3-7.61.25-11.59-3.76-14.63-7.58-4.2-4.71-6.76,17.85,7.43,25"/><path class="cls-3" d="M251.73,62a125.69,125.69,0,1,0,0,251.38,125.69,125.69,0,0,0,0-251.38m0,262.17a135.84,135.84,0,0,1-95-38.51c-54-52.42-55.34-139-2.94-193A136.48,136.48,0,0,1,349.68,282.71a135.36,135.36,0,0,1-97.93,41.43"/><path class="cls-4" d="M400.71,248.64c-2.41,1.52-7.54,2.44-9,1.53-.81-.51,2.15-.94,4.79-2.31,14.19-7.16,11.63-29.7,7.43-25-3,3.8-7,7.82-14.63,7.57,6.9-8,7.58-19.3,5.19-17.3-4.95,5.14-13.6,22.72-51.42,16.63a39.47,39.47,0,0,1,3.4-3.83,19.09,19.09,0,0,1-5.86-5.92c-5.78-9.13-10.71-10.67-13.67-11.49a56.85,56.85,0,0,0,11-15.09c9.79-20.93,8.66-43.7,7.59-49.69-1.13-9.27-3.5-23.74-10.78-37.27-8.24-15.37-16.3-43.45-44-52.88-5.64-.29-8.61,0-13.56,2.18-.48-1-5.17-4.83-5.67-5.71-2.94-2.66-11.58-5-15.44-6.3-8-.14-15-2.12-23.76.25-37.2,10-53.79,28.64-64.78,62.8-.91,2.83-2.19,12.06-2.34,14.87.33-1-12.09,36.75-3.84,57.43,1.52,1.73,1.66,5,3.21,6.76,3.9,9.15,10.17,14.77,13.92,23.15-12.2.5-16.48,19.13-16.83,20.7-38.28,6.33-47-11.39-52-16.55-2.38-2-1.71,9.27,5.19,17.3-7.61.25-11.59-3.77-14.62-7.57-4.21-4.72-6.77,17.84,7.42,25,2.64,1.36,5.6,1.8,4.79,2.3-1.46.92-6.59,0-9-1.52-1.14-.71-1.53,1.08-.3,2.36,36.52,24.25,53.34-2.43,58.9-3.2,20.14,5.79,55.84-8.43,40-20.7-4.31-6.74-10.81-18.3-11.06-31.62-.89-7.49,0-9.81-8.25-9.12,2.92-9.09,5.92-17.06,2.89-30.88a4.89,4.89,0,0,0-1.52,1.09c16.23-15.84,48.23-17.73,65.74-35,2.27-4,11.23-5.26,13.38-9.36-2,14.23-8.33,26.75-21.52,39.33,0,0,9.27,0,16.64-5.23,12.57-9,18.46-19.86,27.13-29.27.05-.47,2.43-2.6,2.33-3.18a17.58,17.58,0,0,1,5.11,4.44c10.25,15.84,1.93,12,13.26,26.36.66.76,1.88,4.05,2.52,4.85,2.47,4.63,3.64,7.5,6.79,11.78,4.07,2.8,3.26,7.55,5.65,15.63-.71,10-2.76,17.85-9.45,22.31-.36,8.73-7.74,29-7.74,29,.66,2-7.74,15.42,12.1,19.46,5.21,1.06,13.08,0,19.77-1.17A32.81,32.81,0,0,1,340,234.35a28.44,28.44,0,0,0-.28,3.72,28.07,28.07,0,0,0,1.81,9.89l.6-.16c5.56.77,22.39,27.45,58.9,3.2,1.23-1.28.84-3.07-.3-2.36"/><path class="cls-5" d="M296.69,277.39c-1.52-3.51-2.54-5.88-2.48-9a2.85,2.85,0,0,0-1.47-1.29l.06,3.61-6.38-2.61a5.37,5.37,0,0,0-.74,3.86c2.08,12.27,7.84,18.61,9.32,20.16a5.37,5.37,0,0,0,4.08,1.85,4.29,4.29,0,0,0,3.84-1.5c2.3-3.39-3.44-8.68-6.23-15.1m-65.94,4.06-3.45-4c-2.39,14.76-7.84,18.66-6.13,22.41A7.25,7.25,0,0,0,223,302a5,5,0,0,0,2.42.81,4.28,4.28,0,0,0,3.4-1.39c4.05-5,6.87-13.28,7.76-18.64a12.27,12.27,0,0,0,.07-3.42Zm-11.86-7-5.65-1.35-.69-3.45a8.22,8.22,0,0,0-1.14,1.67,46.08,46.08,0,0,1-3.28,9.22c-2.46,5.45-9.67,11.19-2.32,13.36a4.83,4.83,0,0,0,4.75-1.22c4.42-4,8.45-13.06,10.23-18.53a17.83,17.83,0,0,0,.68-3.1Zm57.52,7.24-6.69-3.54c2,11.72,6.26,20,8.62,23a6.11,6.11,0,0,0,3.63,2,4.43,4.43,0,0,0,2.44-.51s1.79-.82,2.22-2c1.36-3.8-5-10.09-6.61-24.36Zm-26.69,22.86c7,1.77,13.29-3.64,13.41-5.48.09-1.45-3.55-7.29-4.9-8.57a7.6,7.6,0,0,0-7.62-1.5c-2.14.72-6.31,5-6.24,9,0,3.24,5.35,6.6,5.35,6.6"/><path class="cls-1" d="M201.74,128.53c19.91-6,28.21-21.72,46.92-34.73a29.83,29.83,0,0,0-9.54,3.65,298.56,298.56,0,0,0-28.13,18c-7.41,5.11-17,11.2-23.87,13.6,0,0,4.94,2.7,14.62-.57m90-81.35c-6.07-.84-9.14-.75-14.1,1.42a9.82,9.82,0,0,0-2.3-4.31c-5.46-5.4-15.33-6-20.18-6.86A77.94,77.94,0,0,0,230,39.12c-36.09,9.16-52.2,32.87-62.49,67.39A180.78,180.78,0,0,0,162.23,133c-4.47,10.26-12.95,36.85,4.45,62.61,3.13,4.63,13.46,17.5,16.14,24.56,3.73,17-17.7,6.84-32.75,22.11,0,0-12.39,16.08-36.41,12.8-4.09-.69-7.78-1.9-10.72-4.31a9.54,9.54,0,0,0,1.69,1.89c15.24,13.33,37.66,11.43,50.43.4,2.8-2.41,2.88-3.94,12.43-3.95,16.64,0,31.6-1.22,40.29-13.91-6.75-8.82-9.8-11.92-12.42-17.36,0-2.75-.85-6.32-3-10.93-1.39-17.18-3.19-19.43-2.9-28-.68-11-.18-23.69,11.22-28.4s14.53-3.25,34.06-13.39c36.06-18.7,36.94-41.63,33.22-44.5,0,0-8.4,14.7-19.08,24-16,13.85-36.27,19-57.74,27.14S167,160.09,167,160.09c-5.43-30.92,12.93-48.83,12.93-48.83-1.84-.63-11.09,10.44-15.21,16.81,4.6-20.13,9.68-32.35,14.79-42.4a91.31,91.31,0,0,1,7.12-10.61c5.74-6.46,8.23-9.14,16.83-14.89a61.64,61.64,0,0,1,18.71-8.94c16.06-4.25,40.12-3.9,49.67,4.16a14.59,14.59,0,0,1,3.78,5.72,47.2,47.2,0,0,1,7.89-3.67c4.66-1.4,10.13,0,13.58,1.38,18.95,8.4,23.37,29.74,37.69,47.67-14.13-28.91-17-53.42-43-59.31m26.44,67c8.17,10.71,28.14,29.42,26.17,58.9a53.52,53.52,0,0,0,2.22-17.21c-1.28-43.48-25.74-45.15-44.3-81,0,0-2.79,14.71,15.91,39.28m83,136.55a10.19,10.19,0,0,1-1.69,1.9c-15.23,13.33-37.67,11.42-50.43.38-2.13-1.82-2.69-3.15-7.05-3.68a28.25,28.25,0,0,1-2.36-11.26,26.11,26.11,0,0,1,.29-3.76,33.21,33.21,0,0,0-3.73,9.71c-.52,0-1.05.83-1.6,1-18.21,7.05-29.22,2.32-36.42-12,.64-.93,4.45-5.88,4.95-6.82a78.23,78.23,0,0,0,7.12-25.8c2.06-17.32,2-21.3,2.61-25.54,1-8.27.93-10.39-.84-16.29-1.54-4.86-2.83-6.54-5.73-12.05-7.21-10.45-10-14.9-13.36-21.55a44.41,44.41,0,0,1-3.94-9.79s-6.59,16.06-20.2,26.15c-11.62,8.63-20.56,11.41-27.13,10.2,10.05-5.68,20.42-11.9,28-24.4A96,96,0,0,0,282.49,92s.7,0,2.87,1.15c1.62.92,4.62,4,6.12,9.48a131.55,131.55,0,0,0,5.6,15.9c5,11.26,9.73,16.65,19.84,26,9.84,9.09,19.44,22,15.82,40.92-2.1,11-7,17.88-12.5,27.17a16,16,0,0,0-1.92,10.08c1.51,10.14,11.56,4.64,24.2,7.74a38.2,38.2,0,0,0-2.41,3.64,32.11,32.11,0,0,1,14,8.16s12.4,16.08,36.41,12.81c4.1-.7,7.79-1.92,10.73-4.32"/><path class="cls-6" d="M317.54,161.25c-2.23-.52-3.15.63-4.19,2.78a33.36,33.36,0,0,0-1.27-5.44c-1.54-4.86-2.83-6.54-5.72-12.05-7.22-10.44-9.95-14.9-13.37-21.55a44.22,44.22,0,0,1-3.94-9.79s-6.59,16.06-20.2,26.15c-11.63,8.63-20.55,11.41-27.13,10.2,12.51-11.93,18.85-23.82,21.17-37.15-5.14,7.22-13.89,15.29-28.16,22.68-19.53,10.14-22.59,8.67-34,13.4-8.13,3.34-10.71,10.75-11.28,18.7-.11-1.26-.24-2.4-.37-3.34-.22-4.53-1.46-4.46-1.46-4.46s-7.22.1-7.69,10.78c-.14,6.59,1,8.46,2,10.71,1.09,2.52,2.33,5.71,3.94,6.5,2.75,1.31,4,.41,4.41-.14,0,.3.1.61.15.91s.11.63.15,1,.14.94.23,1.45c2.26,14.43,4.39,23.12,8.08,28.62.29.74.61,1.48.93,2.2.8,1.37,1.58,2.64,2.29,3.76,2.41,1.86,3.62,3.78,3.88,5.65l.45.58,1.41,1.82-.13.18c.37.33.73.68,1.12,1a38.45,38.45,0,0,0,4.4,4.14l-.86,28,.92,4.58,5.65,1.34,2.71-3.55,9.15,10.6,7.94-2.79a14,14,0,0,1,3.54,2.21c1.62,1.42,11.62,5.86,11.62,5.86l4.63-1.8,5.86-4.4,2.38-4,9.69,5.14,9.21-13.86,7.18,2.94-.49-31.67c.88-.95,1.75-1.91,2.59-2.88a110.09,110.09,0,0,0,8.37-10.13c.08-.2.19-.42.29-.66a1.19,1.19,0,0,0,.08-.16c.09-.2.19-.41.28-.63s.11-.25.16-.38.17-.36.25-.56l.24-.56.22-.54c.09-.21.19-.45.28-.69l.22-.53c.09-.26.2-.54.3-.82s.14-.34.21-.53.23-.61.33-.94c.07-.17.14-.34.2-.53q.18-.51.36-1.05c.06-.18.11-.36.18-.55.12-.36.24-.74.35-1.11.07-.2.13-.4.19-.59.11-.4.23-.8.34-1.22l.18-.61c.11-.4.22-.84.33-1.26.06-.22.11-.44.17-.67.11-.43.21-.87.31-1.3.06-.25.11-.48.17-.72l.27-1.36c.05-.26.11-.51.16-.76.09-.48.17-1,.25-1.44.05-.27.09-.52.13-.78.08-.53.16-1.08.23-1.62,0-.23.07-.44.1-.68.09-.78.18-1.57.26-2.38.54-4.58.93-8.23,1.24-11.2.77.51,2.57,1.18,4.95-1.29,2.95-2.42,5.46-9.54,5.36-15.33-.11-5.08-1.35-10.66-4.32-11.35"/><path class="cls-5" d="M167.05,224.44a23.14,23.14,0,0,0-.87-6.08c-.74-3.71-1.49-6.22-3-12.72-1.79-7.73-6.76-8-8.59-7.87a32.51,32.51,0,0,0-13.76,6.17c-5.17,3.93-5.25,6.8-4.6,8.84a39.93,39.93,0,0,0,4.94,8.59c5.49,6.74,13.72,8.44,10.29,10.83-1,1.09-.73,2.94.45,7.13a35.78,35.78,0,0,0,2.79,6.36c.9,1.23,1.7,3.68,5.22,4,.87.09,1.94,0,1.7.58a8.35,8.35,0,0,0-.67,3.47c.06,1.44,2,5.93,2.91,8.15,1,2.58,3.41,14,8.77,13.94a23.75,23.75,0,0,0,6.94-1.32c5-1.47,11.2-5.6,12-8.86,1.11-4.65-1.87-6.57-3.4-8.74-2.93-3.06-9.43-9.4-11.29-11.38-.43-.46-1-.92-1.63-1.56-1.81-1.8-.89-2.32-.08-3.5,1-2-1.9-7.76-2.63-8.9-1.2-1.83-3.2-4-5-4-3.76-.61-.48-.91-.46-3.14"/><path class="cls-3" d="M164.49,246.65c5-2,4.84-2.11,6.67-3.58.57-.46,2,.3.69,2.56-.57.92-1.46.49-1.27,2.53.25,2.62,5.81,6.61,2.06,7.37-3.4.68-5.35-5.63-5.62-6.53s-1.79.08-2.53,0c-1.61-.16-2.92-1.16,0-2.36M153.74,220.8c.47,3.56,3.27,7.6,5.59,5.36,1.47-1.42-1.34-1.8-3.31-10-1.28-5.35-2.65,1.93-2.28,4.69"/><path class="cls-2" d="M161.81,228.92c-2.28.23-5,.42-6.21,1.94s-1.35,1.91-.52,3.38,1.24.26,2.56-.93a8.27,8.27,0,0,1,4-2,3.66,3.66,0,0,0,3.1-2.12c.31-1-.8-.46-2.94-.24"/><path class="cls-5" d="M344,246.71c1.92,0,4.58-2.8,5.78-4.61.75-1.13,4.08-6.88,2.14-8.73-1-1-1.31-1.36.29-2.89.67-.63,1.22-1.08,1.67-1.55,1.94-2,10.24-11,12.2-13.11,1.06-1.43,4.47-4.12,3-7.93-1.13-2.6-9.27-6.92-13.57-8.55a25.49,25.49,0,0,0-7-2c-4.23-.5-7.64,11.88-8.6,14.41a39.15,39.15,0,0,0-2,8.67,7.81,7.81,0,0,0,.87,3.37c.32.56-.84.51-1.8.6a9,9,0,0,0-6.41,3.76c-.92.85-2.14,3.26-3,5.81-1.05,4.12-.72,5.8.4,6.85,3.88,2.32-4.37,3.31-10.21,11.07-2.11,2.39-5,6.71-5.53,8.32-.62,2-1.12,4.27,5.16,8.53,4.72,3.71,13.73,5.8,15.31,5.9,2,.12,6.19,1.21,7.75-6.38,1.29-6.37,1.76-8.29,2.34-11.14.59-3.43.94-6.14.63-7.16-.17-1.84-3.31-3,.56-3.22"/><path class="cls-3" d="M338.76,245.82c-5.65-.36-5.47-.9-7.36-2.16-.61-.39-3.06.83-1.31,2.4a4.15,4.15,0,0,1,1.42,4c-.67,2.46-4.27,7.13-.75,6.67,4-.5,4.93-6.16,5.38-7a2.43,2.43,0,0,1,2-1.31c1.69-.2,3.48-2.39.61-2.57m11.5-23.64c-1.12,2.45-2,5.75-5.23,4-4.1-2.18,1-5.47,4.17-8.79,2.95-3.1,1.94,2.85,1.06,4.77"/><path class="cls-2" d="M345.77,229.61c-1.93-1.64-3.89-3.41-5.87-3.35s-2.75.38-3.16,2,.78,1.16,2.64,1.41A11.61,11.61,0,0,1,344.2,232c1.05.85,3.05,1.47,3.58.57s-.2-1.41-2-3m-111-1.92s-2.78-6.85-5.64-6.66c5,0,11.62,1,16.6.63.79,0,2.38-.68,3.16-.75,7.76-.8,16.92,1.42,24.06-.71-2.45,2.32-3.94,7.9-7.46,9.65-3.78,1.9-12.52,2.44-18,2.12s-8.9-2.24-12.75-4.28"/><path class="cls-4" d="M202.56,190.94a1.41,1.41,0,0,1,1.56-1.46c.82,0,1.92.63,1.9,1.48a1.88,1.88,0,0,1-2,1.76c-1,0-1.53-.7-1.51-1.78m7.71,5.18a1.86,1.86,0,0,1,1.76-1.78,2,2,0,0,1,1.93,1.79c0,.77-1,1.45-2,1.45a1.63,1.63,0,0,1-1.72-1.46m6.51-9.59c0-.7,1.06-1.57,2.07-1.56.65,0,1.69.85,1.67,1.61-.36,1.25-1,1.77-1.67,1.77-1.32,0-2.09-.54-2.07-1.82m7.89,6.7c0-.9.45-1.7,1.55-1.69a1.63,1.63,0,0,1,1.57,1.65c0,.95-.71,1.86-1.61,1.75a1.51,1.51,0,0,1-1.51-1.71m7.68-8.21a1.64,1.64,0,0,1,3.28,0,1.58,1.58,0,0,1-1.7,1.62,1.51,1.51,0,0,1-1.58-1.59m36.36.44c.16-1,.65-1.49,1.69-1.3a1.76,1.76,0,0,1,1.39,1.92c-.18.86-1,1.19-2,1a1.32,1.32,0,0,1-1.1-1.61m10.39,1.91a1.44,1.44,0,0,1,1.52-1.28,1.54,1.54,0,0,1,1.27,1.77s0,0,0,.06a1.54,1.54,0,0,1-1.81,1.32,1.47,1.47,0,0,1-1-1.87m13.8-1.27c.2-.93.92-1.39,2.18-1.16a1.38,1.38,0,0,1,1.19,1.8c-.19,1-.8,1.79-1.81,1.61a1.83,1.83,0,0,1-1.56-2.25m-8,7.51a1.75,1.75,0,0,1,2.25-1.36,1.72,1.72,0,0,1,1.3,2,1.69,1.69,0,0,1-1.89,1.37,1.8,1.8,0,0,1-1.66-2m10.82.76a1.61,1.61,0,0,1,2.1-1.26,1.58,1.58,0,0,1,1.45,1.89,1.8,1.8,0,0,1-2,1.39,1.72,1.72,0,0,1-1.52-2"/><path class="cls-2" d="M219.88,164.31a16.15,16.15,0,0,0-10.46,9.3c0,1.14,2.83,2.33,2.92,2.76,1.37.4,6.06-.42,7.71-.4,5.57.06,11.92-2.52,10.32-5.7,0,0-5.37-7.39-10.49-6m72.31,9.59c1.41-2.26-4.85-10.67-8.85-10.28s-7,1.92-10.15,6.8c-.18.29.08,1.57-.11,1.89,1.5,2.51,5.76,4.32,10.79,4.3a18.38,18.38,0,0,0,4.56-.55c.08-1.57,2.37.11,3.76-2.16"/><path class="cls-3" d="M251.18,303.38c4.26,1.09,8.25-1.25,8.91-4.28a8.1,8.1,0,0,0-.95-5.54,7.55,7.55,0,0,0-3-3.07,6.2,6.2,0,0,0-4.69-.63l-.67.3c-4.22,1.65-6.73,11.4.41,13.22M214,245.22c-.13,6.11-.18,12.19-.3,20.47.66,1.1,1.52,2.38,2.71,4,2,2.82,4.93-6.69,8.45-4.7,3.77,2.13,3.58,8.79,7.6,11.95,2.4,1.87,6.85-8.78,9.2-2.95,2.53,6.3,7.08,7.75,12,10.26,2.2-1.94,5.41-2.2,8.11-5.38,2.52-3,4-6,5.89-6.6,2.88-.89,4.58,6.22,7.7,5.08,5.07-1.86,4.18-11.21,8.88-12.47,2.39-.64,2.78,3.46,5.6,3.88s5.49-9.42,6.94-13.51c.73-2,1.77-2.6,3.33-2,2.22.84,2.36,3.82,2.57,9a33,33,0,0,0,7.67,19c4,4.82-6.22,2.15-10.24-8.32-2.5-6.51-1.8-6.55-3.67-3.2,0,0-3.45,6-5.68,6.57-2.85.77-5.56-3.41-5.56-3.41s-3.34,11.61-9.06,11.64c-5.38,0-7.18-5.71-8.45-3.49-.95,1.65-2.14,4.1-7,5.87,2.59,2,4.81,4,5.79,7.59h0c1.84,8.5-4.46,13.86-11.88,14.41-5.36.37-11.85-1.89-13.57-6.92-1.88-6.4,2.08-12.25,5.93-15a15.11,15.11,0,0,1-8.47-6.4s-3,4.16-7.48,3.37c-2.84-.5-6.64-6.09-8-10.87-.06-.22-3.14,4.19-6.76,3.6-4.84-.79-4.79-4.35-7.13-7.83-.52-.77-2.25-3.28-2.61-1.12a23.08,23.08,0,0,1-2.21,6.85c-2.46,4.95-9.59,10.45-12.72,8.37,2.79-1.13,7.45-6.66,8.89-11.6a40.49,40.49,0,0,0,1.4-16.1c-.47-4.3,3.79-1.92,6.61,1l.13-2.79c.17-3.08.2-6.54.23-9.85a10.28,10.28,0,0,0-2.37-6.15c-1.75-2.1-4.45-6.48-6-8.71,0,0-1.81-2.87-3-5a58.2,58.2,0,0,1-3.44-8.22A65.93,65.93,0,0,1,191,201.13c-.73-6.33-.61-7.8-.8-11.85.84,3.83,2.07,10.18,2.53,12.2,2.09,9.17,3.81,13.41,7,19A70.88,70.88,0,0,0,211,234.9a128.58,128.58,0,0,0,10,8.68,91.29,91.29,0,0,0,10.3,7.5c4,2.51,11.34,7.62,21.42,7.5,9.48-.11,14.63-3.82,17.72-5.6a71,71,0,0,0,14.67-11.16,132.18,132.18,0,0,0,11.22-11.19c4.17-4.87,8-10.08,11.48-22.35,1.89-6.7,3.11-14.55,3.89-18.93a48.53,48.53,0,0,1-.13,9.38,95.61,95.61,0,0,1-1.87,12.41c-1.39,5.85-2.66,9.78-5,14s-3,4.77-7.06,10.81c-2.81,4-2.92,4.14-3,7.16-.09,12.67-2.91,30.07-5.1,2.58-13.93,11.84-25.92,19.29-37.27,19.42-11.16.13-22.8-7.25-38.18-19.93m67.53-84.71c-2.33.76-6,4.07-7.26,6-1.58,2.39-2.58,6.68-4.62,6.75-.79-.28,0-2.05-1.23-1.92a2.6,2.6,0,0,0-2.06,3.27,2.39,2.39,0,0,0,2.08,1.53c3.65.47,4.21-2.89,5.6-4.82a22.13,22.13,0,0,1,4.88-4.82,3.87,3.87,0,0,1,4.44,0c.87.75,0,2.39-.64,2.73-1.67.13-3.25-.48-4-.31s-2,2.32-2.16,5c1.76.71,2.18-.62,3.91-.65,2.78,0,5.51,1.79,6.93.38s1.39-4,1.38-5.1c2.37.09,3.44,3.44,2.45,5.16-.79.91-2.7.73-2.69,2.42,8.07,1.63,8.83-1.74,9.45-3.56.45-1.47.28-2.67-.4-4.68a13.09,13.09,0,0,0-16-7.31M206.8,175.82c1.43.75,4.47,2.22,6.88,1.52a1,1,0,0,0-1-1.38,2.69,2.69,0,0,1-2.55-2c.17-2.06,2.3-5.4,4.81-6.72,2.29-1.62,4.05-.75,4.72.52,0,1-.4,1.73-1.25,1.92-1.31.3-2.26-.84-3.23-.41a3.93,3.93,0,0,0-.47,5.06c.66.79,1.44,1.1,1.72.84,1.23-1.57,4.2-1.54,7.19-1.29,1.27-.9,1.34-3.07,1.69-4.92,2.13-2.42,3.2,2.45,4.61,4.38.93,1.26,1.93,2.77,3.2,2.9,2.16.22,5-1.52,3.89-4.7-.62-.81-2.33.83-3,.29-2.58-2.46-.25-7.47-5.62-10.15-5.74-2.88-14.65-1.88-18.21,2.59a23.5,23.5,0,0,0-4,6.6c-.54,2-1.06,4,.66,5m54.81,21.77c-3.52-1.05-4.34,2.71-7.92,2.7-5,0-6.07-3.21-8.73-2.94-2.19.25-3.32,3.57-4.81,3.8-1.2-.23-1,1.78.56,2.16,3,.76,2.36-1.76,4.35-1.06,1.17.45,1.42,2.46,4.8,4s6.72-.3,9.74-3c1.91-1.85,5.53-1.72,4.6-2.87-.81-.38-1.39-2.41-2.59-2.77m7.32-45.88c.23,1,3.69,0,5.3-.61a20.81,20.81,0,0,1,3.87-1.35,21.58,21.58,0,0,1,3.72-.4,33.17,33.17,0,0,1,6.13.37c3.34.55,9.62,3.83,10.13,2.39.57-2.7-1.79-4.87-3.59-5.85a21.12,21.12,0,0,0-17.3-1.18c-2,1-2.72,1.79-4.63,3.09-1.33.89-3.78,2.34-3.63,3.54m-24,70.72c.78,0,3.83-.33,4.62-.4,7.75-.72,14.85,1.28,22-.77-2.46,2.29-4.48,5.87-8,7.6-3.78,1.85-10.71,1.86-16.15,1.48s-10-3.38-13.85-5.45c-1,3.11.63,4.3,3,6.42,2.7,2.42,6.91,5.71,13.26,5.88,9.21.24,16.45-.65,21.07-8.26,1.41-2.49,5.22-7.61,9.18-9.5,2.22-1.06,7.3-3.43,6.46-4.75-1.51-1.93-4.5-1.58-6.65-1.1-1.64.33-2.14,3.33-4.87,3.55-6.47.84-12.75-1.43-20.73-1.17-5.74.16-10.27,1.49-16.4,2-5.92.47-8-2.66-13.52-3.34-2.53-.32-3,1.14-1.08,3.55,1.8,1.84,4.91,3.6,7.39,3.56,5,0,9.27,1,14.26.72m-16-71.9a23.77,23.77,0,0,0-3.94-1.1,24.83,24.83,0,0,0-3.74-.17,26.26,26.26,0,0,0-6.11.75c-3.27.84-9.35,4.43-10,3a5,5,0,0,1,1.7-4.83c4.35-1.4,7.94-2.23,13.49-4.42a16.77,16.77,0,0,1,5.24.94,31.51,31.51,0,0,1,4.83,2.79c1.35.84,4,2.15,3.83,3.31-.35,1-3.66.16-5.33-.29"/></g></g></svg>