<svg xmlns="http://www.w3.org/2000/svg" viewBox="0 0 504 504"><defs><style>.cls-1{fill:#f90;}.cls-2{fill:#fff;}</style></defs><title>shop-2</title><g id="Layer_2" data-name="Layer 2"><g id="Layer_1-2" data-name="Layer 1"><rect class="cls-1" width="504" height="504"/><path class="cls-2" d="M425.94,345.55h0c-4-5.21-24.33-6.18-37.12-4.61S356.77,350.3,358.45,355c.85,1.76,2.61,1,11.41.18s33.55-4,38.7,2.73-7.89,39.09-10.27,44.3.88,6.55,5.21,3.08,12-12.45,17.18-25.16S429,349.52,425.94,345.55ZM384.1,368.66c-149,70.9-241.44,11.58-300.63-24.45-3.66-2.27-9.89.53-4.48,6.73,19.71,23.91,84.33,81.54,168.68,81.54s134.62-46.06,140.9-54.09S390.4,366,384.1,368.66Z"/><path d="M369,296.11c-8.73-12.08-18-21.89-18-44.26V177.44c0-31.5,2.22-60.45-21-82.14C311.59,77.7,281.24,71.52,258,71.52c-45.4,0-96.11,16.93-106.79,73.08-1.07,6,3.22,9.13,7.12,10l46.34,5c4.3-.2,7.46-4.43,8.26-8.73,4-19.34,20.22-28.68,38.42-28.68,9.81,0,21,3.63,26.8,12.43,6.65,9.81,5.77,23.24,5.77,34.59v6.18c-27.67,3.15-63.87,5.17-89.79,16.59-29.89,12.89-50.91,39.29-50.91,78,0,49.63,31.3,74.41,71.46,74.41,34,0,52.52-8,78.71-34.72,8.73,12.56,11.55,18.67,27.4,31.84a10,10,0,0,0,11.29-1.14l.13.13c9.54-8.46,26.87-23.58,36.6-31.7C372.71,305.59,372,300.41,369,296.11Zm-94-21.49c-7.59,13.44-19.61,21.7-33,21.7-18.34,0-29-14-29-34.59,0-40.7,36.47-48.09,71-48.09V224C283.92,242.59,284.39,258.1,275,274.62Z"/></g></g></svg>