<svg xmlns="http://www.w3.org/2000/svg" xmlns:xlink="http://www.w3.org/1999/xlink" viewBox="0 0 504 504"><defs><style>.cls-1{fill:#0203b0;}.cls-2{fill:url(#linear-gradient);}.cls-3{fill:url(#linear-gradient-2);}.cls-4{fill:url(#linear-gradient-3);}.cls-5{fill:#fff;}</style><linearGradient id="linear-gradient" x1="-1831.79" y1="180.93" x2="-1771.61" y2="181.4" gradientTransform="matrix(5.57, 0, 0, -5.57, 10286.28, 1260.68)" gradientUnits="userSpaceOnUse"><stop offset="0" stop-color="#ffb900"/><stop offset="0.34" stop-color="#f38000"/><stop offset="0.57" stop-color="#f83c72"/><stop offset="0.78" stop-color="#fc1cbe"/><stop offset="0.93" stop-color="#fe08ed"/><stop offset="1" stop-color="#f0f"/></linearGradient><linearGradient id="linear-gradient-2" x1="-1814.88" y1="161.23" x2="-1753.52" y2="195.21" gradientTransform="matrix(5.57, 0, 0, -5.57, 10286.28, 1260.68)" gradientUnits="userSpaceOnUse"><stop offset="0" stop-color="#ee0a3f"/><stop offset="1" stop-color="#ee0a3f" stop-opacity="0"/></linearGradient><linearGradient id="linear-gradient-3" x1="-2630.88" y1="170.47" x2="-2600.91" y2="194.62" gradientTransform="translate(-14283.35 1246.2) rotate(180) scale(5.51)" gradientUnits="userSpaceOnUse"><stop offset="0" stop-color="#ed6600"/><stop offset="1" stop-color="#f98200"/></linearGradient></defs><title>shop-3</title><g id="Layer_2" data-name="Layer 2"><g id="Layer_1-2" data-name="Layer 1"><rect class="cls-1" width="504" height="504"/><g id="g942"><g id="g71"><path id="path69" class="cls-2" d="M252.07,389.38a13.71,13.71,0,0,1-6.85-1.79c-17.9-10.35-150.48-93.48-155.49-96a12,12,0,0,1-6.86-9.6V165.38a12.64,12.64,0,0,1,5.7-10.84l1-.55c12.82-8,55.76-34.15,62.55-37.93a10.31,10.31,0,0,1,5.14-1.44,10.73,10.73,0,0,1,4.87,1.24s60.08,39.16,69.27,42.66a47.42,47.42,0,0,0,20.58,4.32,46,46,0,0,0,23-5.63c9-4.73,66.39-41.15,67-41.15a9.12,9.12,0,0,1,4.8-1.3,10.11,10.11,0,0,1,5.14,1.44c7.82,4.32,61.05,36.9,63.31,38.34a12.37,12.37,0,0,1,6,10.7V281.83a11.87,11.87,0,0,1-6.86,9.61c-5,2.74-137.17,85.87-155.42,96a13.77,13.77,0,0,1-6.86,1.92"/></g><g id="g79"><path id="path77" class="cls-3" d="M251.39,389.38h.68a13.72,13.72,0,0,0,6.86-1.79c17.9-10.35,150.41-93.48,155.42-96a11.85,11.85,0,0,0,6.86-9.6V165.38a12.51,12.51,0,0,0-1.31-5.7L251.39,252.21V389.38"/></g><g id="g970"><path id="path968" class="cls-4" d="M250.8,387.73h-.68a13.56,13.56,0,0,1-6.78-1.76c-17.71-10.25-148.81-92.49-153.76-95a11.75,11.75,0,0,1-6.79-9.5V166.12a12.36,12.36,0,0,1,1.29-5.63L250.8,252V387.73"/></g></g><g id="g35"><path id="path33" class="cls-5" d="M157,186.62h16.48v79.3h28.4v15.65H157L157,186.62"/></g><g id="g41"><path id="path39" class="cls-5" d="M240,210.41a27.93,27.93,0,0,1,22.38,10.76v-9.34h15.37v69.88H262.38v-9.34A27.93,27.93,0,0,1,240,283.13c-19.17,0-33.72-16.38-33.72-36.38s14.55-36.34,33.72-36.34m2.8,14c-12.45,0-20.69,9.79-20.69,22.34s8.37,22.38,20.69,22.38,20.68-9.79,20.68-22.38-8.24-22.34-20.68-22.34"/></g><g id="g47"><path id="path45" class="cls-5" d="M289.72,269.58l36.65-43.79h-36.1v-14h56v12.3l-36.51,43.62h37.33v14H289.72V269.58"/></g></g></g></svg>