<svg xmlns="http://www.w3.org/2000/svg" viewBox="0 0 504 504"><defs><style>.cls-1{fill:#fff;}.cls-2{fill:#e53238;}.cls-3{fill:#0064d2;}.cls-4{fill:#f5af02;}.cls-5{fill:#86b817;}</style></defs><title>shop-1</title><g id="Layer_2" data-name="Layer 2"><g id="Layer_1-2" data-name="Layer 1"><rect class="cls-1" width="504" height="504"/><path class="cls-2" d="M89.64,202.54c-30.9,0-56.64,13.11-56.64,52.65,0,31.32,17.31,51.05,57.43,51.05,47.23,0,50.26-31.11,50.26-31.11H117.81S112.9,291.88,89,291.88c-19.44,0-33.41-13.13-33.41-31.53h87.45V248.81c0-18.21-11.55-46.27-53.44-46.27Zm-.8,14.76c18.5,0,31.11,11.33,31.11,28.32H56.13C56.13,227.58,72.6,217.3,88.84,217.3Z"/><path class="cls-3" d="M143.07,164.25V286.38c0,6.94-.5,16.67-.5,16.67H164.4s.78-7,.78-13.38c0,0,10.79,16.87,40.11,16.87,30.87,0,51.85-21.44,51.85-52.15,0-28.57-19.27-51.55-51.8-51.55-30.47,0-39.94,16.45-39.94,16.45v-55ZM199.7,218c21,0,34.31,15.56,34.31,36.44,0,22.39-15.4,37-34.16,37-22.38,0-34.45-17.47-34.45-36.84,0-18.05,10.83-36.64,34.3-36.64Z"/><path class="cls-4" d="M311.38,202.54c-46.48,0-49.46,25.45-49.46,29.52h23.14s1.21-14.86,24.73-14.86c15.28,0,27.12,7,27.12,20.44v4.79H309.79c-36,0-55,10.53-55,31.9,0,21,17.58,32.49,41.35,32.49,32.39,0,42.83-17.9,42.83-17.9,0,7.12.55,14.13.55,14.13H360s-.8-8.69-.8-14.26V240.71C359.24,209.18,333.81,202.54,311.38,202.54Zm25.53,54.24v6.39c0,8.32-5.14,29-35.38,29-16.55,0-23.65-8.26-23.65-17.85,0-17.43,23.9-17.55,59-17.55Z"/><path class="cls-5" d="M346.79,206.53h26l37.35,74.83,37.26-74.83H471L403.12,339.75H378.39L398,302.61l-51.19-96.08Z"/></g></g></svg>