<svg xmlns="http://www.w3.org/2000/svg" viewBox="0 0 504 504"><defs><style>.cls-1{fill:#ea501f;}.cls-2{fill:#fff;}</style></defs><title>shop-4</title><g id="Layer_2" data-name="Layer 2"><g id="Layer_1-2" data-name="Layer 1"><rect class="cls-1" width="504" height="504"/><path class="cls-2" d="M118.77,420.22a2.83,2.83,0,0,1,3.14-4.71c.79.55,1.65,1.1,2.59,1.65,6.44,3.92,12.48,5.89,17.42,5.89,4.47,0,8.16-1.73,10.44-5.1h0c.15-.24.31-.4.31-.55a15,15,0,0,0,1.49-3.3,10,10,0,0,0-.39-6.75,13.73,13.73,0,0,0-5.89-6.19h0a31.48,31.48,0,0,0-7.45-3.14c-7.61-2.12-13.18-5.18-16.24-9.18-3.3-4.48-3.53-9.81,0-16.32,2.35-4.32,7.14-7,13.26-7.46a34.81,34.81,0,0,1,18,4.16,2.81,2.81,0,1,1-2.51,5,29,29,0,0,0-15.06-3.53c-4.16.32-7.38,2-8.71,4.55-2.35,4.32-2.35,7.69-.39,10.28,2.19,3,6.82,5.34,13.18,7.14a33.81,33.81,0,0,1,8.79,3.77h0a19.42,19.42,0,0,1,8.08,8.79,15.19,15.19,0,0,1,.63,10.51,19.74,19.74,0,0,1-2.12,4.71,3.94,3.94,0,0,0-.47.78h0c-3.38,5-8.71,7.53-15.15,7.53-6,0-12.94-2.19-20.32-6.67A32,32,0,0,0,118.77,420.22Z"/><path class="cls-2" d="M168.91,367.73a2.83,2.83,0,0,1,5.65,0V426a2.83,2.83,0,0,1-5.65,0Z"/><path class="cls-2" d="M174.72,404.06a2.85,2.85,0,0,1-4.4-3.61c4.32-5.26,9.18-8.47,14-9.89a17.93,17.93,0,0,1,9.73-.31,13.61,13.61,0,0,1,7.61,5.26,16.1,16.1,0,0,1,2.82,9.57V426a2.83,2.83,0,0,1-5.65,0V405.08a10.9,10.9,0,0,0-1.72-6.36,8.27,8.27,0,0,0-4.47-3.06,12.15,12.15,0,0,0-6.67.24C182.17,397.08,178.25,399.74,174.72,404.06Z"/><path class="cls-2" d="M232.15,389.7A19.46,19.46,0,0,1,246,395.43h0a19.53,19.53,0,0,1-27.62,27.62h0a19.51,19.51,0,0,1,0-27.62h0a19.6,19.6,0,0,1,13.81-5.73Zm9.89,9.65a14,14,0,0,0-9.89-4.08,14.16,14.16,0,0,0-9.89,4.08h0a14,14,0,0,0,0,19.77h0A14,14,0,0,0,242,399.35Z"/><path class="cls-2" d="M259.69,392.52a2.83,2.83,0,0,1,5.65,0v3.54a4.16,4.16,0,0,1,.63-.63h0a19.51,19.51,0,0,1,27.62,0h0A19.53,19.53,0,0,1,266,423.05h0a4.68,4.68,0,0,0-.63-.63v25.66a2.83,2.83,0,0,1-5.65,0V392.52Zm29.89,6.83a14,14,0,0,0-9.88-4.08,14.14,14.14,0,0,0-9.89,4.08h0a14,14,0,0,0,0,19.77h0a14,14,0,0,0,19.77-19.77Z"/><path class="cls-2" d="M325.83,389.7a17.17,17.17,0,0,1,12.4,5.18,19,19,0,0,1,4.71,8.16c2.43,7.92-2.2,7.61-3.61,7.61h-26a24.71,24.71,0,0,0,1.25,5.18,11.94,11.94,0,0,0,4.4,5.49,13.5,13.5,0,0,0,7.37,1.88,28.65,28.65,0,0,0,10.91-2.59,2.81,2.81,0,1,1,2.2,5.18,35.9,35.9,0,0,1-13,3A18.2,18.2,0,0,1,316,426a15.33,15.33,0,0,1-6.59-8.08c-2.67-7.93-2.75-15.77,4-23.07a16.73,16.73,0,0,1,12.39-5.18Zm8.48,9.18a11.94,11.94,0,0,0-16.95,0,14.53,14.53,0,0,0-3.69,6h24.4A16.4,16.4,0,0,0,334.31,398.88Z"/><path class="cls-2" d="M368.67,389.7a17.17,17.17,0,0,1,12.4,5.18,19,19,0,0,1,4.71,8.16c2.43,7.92-2.2,7.61-3.61,7.61h-26a24.71,24.71,0,0,0,1.25,5.18,11.94,11.94,0,0,0,4.4,5.49,13.5,13.5,0,0,0,7.37,1.88,28.65,28.65,0,0,0,10.91-2.59,2.81,2.81,0,1,1,2.2,5.18,35.9,35.9,0,0,1-13,3A18.2,18.2,0,0,1,358.87,426a15.33,15.33,0,0,1-6.59-8.08c-2.67-7.93-2.75-15.77,4-23.07a16.73,16.73,0,0,1,12.39-5.18Zm8.48,9.18a11.94,11.94,0,0,0-16.95,0,14.53,14.53,0,0,0-3.69,6h24.4A16.4,16.4,0,0,0,377.15,398.88Z"/><path class="cls-2" d="M138.62,134.62h59.09c1.8-20,7.37-38,15.37-51.86,10.6-18.36,25.66-29.66,42.69-29.66s32,11.38,42.68,29.66c8,13.81,13.57,31.85,15.38,51.86h59c7,0,13.26,5.73,12.71,12.71L373.7,312.65c-1.5,20.71-14.52,32.56-33.43,32.56h-169c-21,0-32.16-14.67-33.42-32.56L125.91,147.41c-.47-7,5.73-12.79,12.71-12.79Zm73.84,0h86.46c-1.72-17.34-6.51-32.72-13.34-44.49-7.84-13.73-18.51-22.28-29.81-22.28s-22,8.55-30,22.36C219,101.9,214.26,117.36,212.46,134.62Z"/><path class="cls-1" d="M212.85,287.23a6,6,0,0,1,6.75-9.89c1.72,1.18,3.53,2.36,5.49,3.53,13.81,8.4,26.52,12.56,37.11,12.56,9.57,0,17.34-3.61,22.28-10.91h0c.32-.55.63-.86.71-1.1a29.55,29.55,0,0,0,3.14-7.06,21.19,21.19,0,0,0-.79-14.44c-2.11-4.78-6.19-9.41-12.55-13.26h0a61.42,61.42,0,0,0-15.85-6.59c-16.16-4.55-28.09-11-34.52-19.61-7.06-9.5-7.61-21-.08-34.84,5-9.18,15.3-14.91,28.32-15.93,11.22-.86,24.72,1.81,38.45,8.79a6,6,0,0,1-5.49,10.67c-11.69-6-22.83-8.24-32.09-7.53-8.87.71-15.62,4.16-18.6,9.65-5,9.18-4.94,16.4-.86,21.89,4.71,6.36,14.51,11.3,28.17,15.14a77.8,77.8,0,0,1,18.83,7.93h0c8.55,5.18,14.28,11.69,17.34,18.75A33.23,33.23,0,0,1,300,277.5a39,39,0,0,1-4.47,10c-.47.71-.79,1.26-1,1.65h0c-7.3,10.75-18.52,16.09-32.17,16.16-12.79,0-27.7-4.7-43.39-14.28A68.52,68.52,0,0,1,212.85,287.23Z"/></g></g></svg>