<svg xmlns="http://www.w3.org/2000/svg" viewBox="0 0 504 504"><defs><style>.cls-1{fill:#2cb5a7;}.cls-2{fill:#fff;}</style></defs><title>music-4</title><g id="Layer_2" data-name="Layer 2"><g id="Layer_1-2" data-name="Layer 1"><rect class="cls-1" width="504" height="504"/><path class="cls-2" d="M104,321V307.07H90.11V284.75H70.27v22.32H59.55V321H70.27v30.89c0,18.87,12.13,29.49,33.77,29.65V365c-9.17-.19-13.93-5.74-13.93-16.21V321Zm266.06-13.9V379H358.28V307.06Zm25.92,0v11.41h.29q7.37-13.08,23.37-13.08a31.14,31.14,0,0,1,11.82,1.95,19.61,19.61,0,0,1,7.66,5.42,20.28,20.28,0,0,1,4.1,8.28,44.42,44.42,0,0,1,1.19,10.64V379H432.62V330.29c0-4.46-1.3-8-3.89-10.57s-6.18-3.9-10.71-3.9a24.22,24.22,0,0,0-9.4,1.67,17.67,17.67,0,0,0-6.6,4.73,20.31,20.31,0,0,0-4,7.17,28.9,28.9,0,0,0-1.32,9V379H384.91V307.06ZM163.94,379V369h-.42a22.18,22.18,0,0,1-9.74,9,28.83,28.83,0,0,1-12.25,2.78,34.48,34.48,0,0,1-13-2.09,18.72,18.72,0,0,1-8-5.91,23.24,23.24,0,0,1-4.11-9.32,58.63,58.63,0,0,1-1.17-12.18V307.05H135v40.63q0,8.9,2.78,13.28t9.87,4.39q8.08,0,11.69-4.8T163,344.76v-37.7h19.76V379Zm50.72-71.92v10h.42a22.59,22.59,0,0,1,9.73-9.12,28.37,28.37,0,0,1,12.25-2.85,33.55,33.55,0,0,1,13,2.16,19.27,19.27,0,0,1,8,6,23.29,23.29,0,0,1,4.1,9.32,57.87,57.87,0,0,1,1.19,12.17V379H243.6V338.36q0-8.89-2.78-13.29t-9.88-4.38q-8.07,0-11.69,4.8t-3.62,15.79V379H195.88V307.06Zm83,54.67q4.46,4.32,12.8,4.32a17.68,17.68,0,0,0,10.3-3c2.87-2,4.64-4.11,5.28-6.33h17.4q-4.17,12.93-12.8,18.5t-20.86,5.57a41.26,41.26,0,0,1-15.31-2.72,31.76,31.76,0,0,1-11.55-7.72,34.77,34.77,0,0,1-7.3-12A43.73,43.73,0,0,1,273,343.09a42,42,0,0,1,2.65-15,34.74,34.74,0,0,1,19.13-20,37.42,37.42,0,0,1,15-2.92,34.22,34.22,0,0,1,16,3.55,31.89,31.89,0,0,1,11.2,9.53,39.2,39.2,0,0,1,6.34,13.64,51,51,0,0,1,1.39,16H292.8q.39,9.6,4.85,13.91ZM320,323.89q-3.54-3.9-10.78-3.9a17.23,17.23,0,0,0-7.86,1.61,14.7,14.7,0,0,0-7.66,9,23.12,23.12,0,0,0-.9,4.73h32.14Q323.52,327.79,320,323.89Zm51.84-39.14a7.64,7.64,0,1,1-7.63-7.64,7.64,7.64,0,0,1,7.63,7.64"/><path class="cls-2" d="M251.12,171a24.24,24.24,0,1,1,24.23-24.24A24.28,24.28,0,0,1,251.12,171m-67.75,9.7a2.31,2.31,0,0,1,2.3-2.31h65.25a21.33,21.33,0,0,1,21.34,21.27v19A2.31,2.31,0,0,1,270,220.9H204.63a21.29,21.29,0,0,1-21.26-21.27Zm116.27-2.61h18.69a2.31,2.31,0,0,1,2.3,2.3v19a21.28,21.28,0,0,1-21.26,21.27H280.73a2.31,2.31,0,0,1-2.37-2.25v-19a21.29,21.29,0,0,1,21.28-21.27M270,227H232.29a2.33,2.33,0,0,0-2.31,2.31v37.92a2.32,2.32,0,0,0,2.37,2.3H251a21.29,21.29,0,0,0,21.27-21.27v-19A2.32,2.32,0,0,0,270,227"/></g></g></svg>