<svg xmlns="http://www.w3.org/2000/svg" viewBox="0 0 504.09 504.09"><defs><style>.cls-1,.cls-2{stroke:#000;stroke-width:0.09px;}.cls-2{fill:#fff;}</style></defs><title>music-3</title><g id="Layer_2" data-name="Layer 2"><g id="Layer_1-2" data-name="Layer 1"><rect class="cls-1" x="0.05" y="0.05" width="504" height="504"/><path class="cls-2" d="M175.78,126.73h.47c3.6,4.13,7.67,7.78,11.5,11.73l26.06,26.06V165c-12.62,12.56-25.17,25.24-37.79,37.8-12.68-12.62-25.3-25.3-38-37.91.65-1.24,1.88-2.07,2.83-3.07C152.49,150.08,164.28,138.52,175.78,126.73Z"/><path class="cls-2" d="M251.84,126.73h.47a9.63,9.63,0,0,0,1.18,1.47c12.21,12.09,24.24,24.35,36.56,36.38a5.9,5.9,0,0,1-1.48,1.71q-18.3,18.22-36.55,36.5c-12.74-12.56-25.24-25.36-38-37.86C226.37,152,239.4,139.58,251.84,126.73Z"/><path class="cls-2" d="M327.9,126.73h.47c2.36,2.83,5.13,5.25,7.67,7.9l28.59,28.6c.47.53,1.24,1,1.42,1.76-12.8,12.44-25.18,25.36-38,37.8l-36.26-36.26c-.59-.65-1.36-1.12-1.65-1.95,6.42-6.25,12.67-12.68,19-19S321.77,133.16,327.9,126.73Z"/><path class="cls-2" d="M214.52,240.23q18.66-18.66,37.38-37.38l.53.23q18.75,18.84,37.62,37.56c-.42.94-1.3,1.47-1.95,2.24-9.08,9-18.16,18.16-27.24,27.18-2.95,2.83-5.78,6-8.78,8.67-4.31-3.89-8.26-8.26-12.45-12.27-8.48-8.49-16.92-17-25.47-25.41.12-.23.24-.59.36-.82Z"/><path class="cls-2" d="M47.88,310.74H102c0,4.32,0,8.65,0,12.95H82.48v51.15a16.54,16.54,0,0,1-.11,2.53h-15c.06-17.91,0-35.78,0-53.68H47.88Z"/><path class="cls-2" d="M147.06,310.74q7.59,0,15.17,0c0,22.2.06,44.4,0,66.61H147.09c-.09-5.91,0-11.81-.06-17.71C147.06,343.36,147,327.06,147.06,310.74Z"/><path class="cls-2" d="M414.62,310.74q7.59,0,15.17,0V364c8.8.05,17.62,0,26.42,0v13.35H414.65C414.56,355.16,414.65,333,414.62,310.74Z"/><path class="cls-2" d="M272,333.08a28.5,28.5,0,0,0-8.57-13.55c-5.42-4.8-12.5-7.42-19.62-8.35a86.16,86.16,0,0,0-12.13-.44h-18a6.07,6.07,0,0,0-1,.08c.08,22,0,44,0,66,0,.14,0,.39-.08.54h26c2.33-.43,4.72-.4,7-.9a34.79,34.79,0,0,0,20.57-11.55,31,31,0,0,0,6.89-16A39.3,39.3,0,0,0,272,333.08Zm-17.11,22.11a18.14,18.14,0,0,1-7.9,6.86,23.74,23.74,0,0,1-9.36,2.05c-3.37,0-6.74,0-10.12,0-.16-3.74,0-7.48-.08-11.21q0-14.62,0-29.23h10.42a21.14,21.14,0,0,1,14.34,5.62,19.39,19.39,0,0,1,5.62,12.62A22.52,22.52,0,0,1,254.86,355.19Z"/><path class="cls-2" d="M367.86,361.68q-9.53-23.13-19.08-46.28c-.6-1.55-1.21-3.12-1.92-4.61q-7.83-.12-15.68,0-13.4,32.25-26.81,64.47a12.68,12.68,0,0,0-.76,2.11h16.16c1.61-4.45,3.32-8.83,4.92-13.27,9.16-.14,18.35,0,27.54-.06.48-.14.62.37.73.71,1.55,4.21,3.12,8.4,4.64,12.62h16.66C372.24,372.08,370,366.91,367.86,361.68ZM329,352.27a3.76,3.76,0,0,1,.45-1.63c3.07-8,6.21-16,9.25-24a.59.59,0,0,1,.22-.05c3.18,8.43,6.41,16.83,9.61,25.26,0,.11,0,.34,0,.45Q338.74,352.18,329,352.27Z"/></g></g></svg>