<svg xmlns="http://www.w3.org/2000/svg" viewBox="0 0 504 504"><defs><style>.cls-1{fill:#2ebd59;}.cls-2{fill:#fff;}</style></defs><title>music-1</title><g id="Layer_2" data-name="Layer 2"><g id="Layer_1-2" data-name="Layer 1"><rect class="cls-1" width="504" height="504"/><circle class="cls-1" cx="256" cy="252" r="158"/><path class="cls-2" d="M252,68.57A183.43,183.43,0,1,0,435.43,252C435.43,150.7,353.31,68.58,252,68.57Zm84.12,264.55a11.41,11.41,0,0,1-15.72,3.8c-43.07-26.32-97.29-32.26-161.13-17.68a11.43,11.43,0,1,1-5.1-22.29C224,281,284,287.86,332.33,317.4A11.43,11.43,0,0,1,336.12,333.12Zm22.45-49.93a14.31,14.31,0,0,1-19.68,4.71c-49.29-30.31-124.46-39.08-182.78-21.38a14.3,14.3,0,1,1-8.31-27.36c66.61-20.22,149.43-10.43,206.05,24.37a14.29,14.29,0,0,1,4.72,19.66Zm1.92-52c-59.12-35.11-156.65-38.34-213.1-21.21a17.15,17.15,0,1,1-9.95-32.83c64.79-19.67,172.5-15.87,240.56,24.53a17.16,17.16,0,0,1-17.51,29.51Z"/></g></g></svg>