<svg xmlns="http://www.w3.org/2000/svg" viewBox="0 0 504 504"><defs><style>.cls-1{fill:#fff;}.cls-2{fill:#b1e3fa;}.cls-3{fill:#f7bacf;}.cls-4{fill:#e7ee9f;}.cls-5{fill:#feea3a;}.cls-6{fill:#fe9d7f;}.cls-7{fill:#4ec2f6;}.cls-8{fill:#ccdb38;}.cls-9{fill:#fe3f80;}.cls-10{fill:#fe3d02;}</style></defs><title>music-5</title><g id="Layer_2" data-name="Layer 2"><g id="Layer_1-2" data-name="Layer 1"><rect class="cls-1" width="504" height="504"/><path id="path59" class="cls-2" d="M370.8,202v-8h68.8v16H370.8v-8Zm0-25.6v-8h68.8v16H370.8v-8Zm0-25.6v-8h68.8v16H370.8v-8Zm0-26.4v-8h68.8v16.8H370.8v-8.8Zm0-24.8v-8.8h68.8v17.6H370.8v-8.8Z"/><path id="path57" class="cls-3" d="M217.2,202v-8H286v16H217.2Zm0-25.6v-8H286v16H217.2Zm0-25.6v-8H286v16H217.2Zm0-26.4v-8H286v16.8H217.2Z"/><path id="path55" class="cls-4" d="M294,202v-8h68.8v16H294v-8Zm0-25.6v-8h68.8v16H294v-8Z"/><path id="path53" class="cls-5" d="M141.2,278.81v-8h67.2v16H141.2Zm0-26.4v-8h67.2v16H141.2Zm0-25.6v-8h67.2v16H141.2Z"/><path id="path51" class="cls-6" d="M64.4,202v-8h67.2v16H64.4Zm0-25.6v-8h67.2v16H64.4Z"/><path id="path49" class="cls-7" d="M371.6,278.81v-8h67.2v16H371.6Zm0-26.4v-8h67.2v16H371.6Zm0-25.6v-8h67.2v16H371.6Z"/><path id="path47" class="cls-8" d="M294.8,278.81v-8H362v16H294.8v-8Zm0-26.4v-8H362v16H294.8v-8Zm0-25.6v-8H362v16H294.8v-8Z"/><path id="path45" class="cls-9" d="M218,278.81v-8h67.2v16H218Zm0-26.4v-8h67.2v16H218Zm0-25.6v-8h67.2v16H218Z"/><path id="path43" class="cls-10" d="M64.4,278.81v-8h67.2v16H64.4Zm0-26.4v-8h67.2v16H64.4Zm0-25.6v-8h67.2v16H64.4Z"/><path d="M126.59,318.8v75c0,6.54.26,13.61.53,17.93H112.71l-.65-10.08h-.26c-3.8,7.07-11.52,11.52-20.82,11.52-15.18,0-27.23-13-27.23-32.59-.13-21.34,13.22-34,28.54-34,8.77,0,15.06,3.66,17.94,8.38h.26V318.8Zm-16.1,55.77a22.85,22.85,0,0,0-.39-4.19C108.66,364.1,103.55,359,96.22,359c-10.34,0-16.1,9.17-16.1,21.08,0,11.65,5.76,20.16,16,20.16A14.22,14.22,0,0,0,110,388.84a18,18,0,0,0,.52-4.71Z"/><path d="M155.26,384.39c.39,11.52,9.42,16.5,19.64,16.5A48,48,0,0,0,192.57,398l2.36,11.13a60.22,60.22,0,0,1-22.26,3.92c-20.68,0-32.86-12.7-32.86-32.2,0-17.68,10.74-34.3,31.16-34.3,20.68,0,27.49,17,27.49,31a39.85,39.85,0,0,1-.52,6.81Zm28-11.26c.14-5.89-2.48-15.58-13.22-15.58-10,0-14.14,9-14.79,15.58Z"/><path d="M222.81,384.39c.39,11.52,9.42,16.5,19.63,16.5A48,48,0,0,0,260.12,398l2.35,11.13a60.12,60.12,0,0,1-22.25,3.92c-20.69,0-32.86-12.7-32.86-32.2,0-17.68,10.73-34.3,31.16-34.3,20.68,0,27.49,17,27.49,31a39.85,39.85,0,0,1-.52,6.81Zm28-11.26c.13-5.89-2.48-15.58-13.22-15.58-9.95,0-14.14,9-14.79,15.58Z"/><path d="M272.94,402.46l24-30.64c3.27-3.92,6-7.07,9.43-10.73v-.26h-31V348H326v9.82l-23.44,30c-3.14,3.79-6.15,7.46-9.42,10.86v.26h33.64v12.83H272.94Z"/><path d="M348.35,384.39c.39,11.52,9.43,16.5,19.64,16.5A48,48,0,0,0,385.66,398L388,409.14a60.17,60.17,0,0,1-22.26,3.92c-20.68,0-32.86-12.7-32.86-32.2,0-17.68,10.74-34.3,31.16-34.3,20.69,0,27.49,17,27.49,31a39.85,39.85,0,0,1-.52,6.81Zm28-11.26c.13-5.89-2.49-15.58-13.23-15.58-9.95,0-14.13,9-14.79,15.58Z"/><path d="M404.51,368.55c0-8.64-.13-14.79-.52-20.55h14l.53,12.17H419c3.14-9,10.61-13.61,17.41-13.61a17,17,0,0,1,3.8.39v15.19a21.82,21.82,0,0,0-4.71-.53c-7.73,0-13,5-14.4,12.18a26.86,26.86,0,0,0-.53,5v33h-16.1Z"/></g></g></svg>