<svg xmlns="http://www.w3.org/2000/svg" viewBox="0 0 504 504"><defs><style>.cls-1{fill:#f78c1e;}.cls-2{fill:#f15a35;}.cls-3{fill:#fbcb1a;}.cls-4{fill:#fff;}</style></defs><title>music-2</title><g id="Layer_2" data-name="Layer 2"><g id="Layer_1-2" data-name="Layer 1"><rect class="cls-1" width="504" height="504"/><path class="cls-2" d="M71.15,53.85a8.8,8.8,0,0,1,4.42-7.65,8.92,8.92,0,0,1,8.86,0l344,196.62a8.84,8.84,0,0,1,0,15.31L86.27,457.8a8.9,8.9,0,0,1-8.85,0A8.79,8.79,0,0,1,73,450.15c-.09,0-1.84-396.3-1.84-396.3Z"/><path class="cls-3" d="M360.73,252.32A138.62,138.62,0,1,0,203,389.65l148.11-86.6a137.84,137.84,0,0,0,9.59-50.73ZM222.12,341.78a89.46,89.46,0,1,1,89.46-89.46,89.42,89.42,0,0,1-89.46,89.46Z"/><path class="cls-1" d="M222.12,163a89.46,89.46,0,1,0,89.46,89.46A89.42,89.42,0,0,0,222.12,163Zm48.23,69.81c-5.07-6.18-11.25-10.42-19.18-12.08-4.43-.92-8.85-2.21-13.37-3.41-.19,8.39-.19,17-.56,25.36-.73,17.71-1.56,35.41-2.39,53.12-.65,13.83-10.89,20.84-20.29,22.6-13.84,2.58-25.64-1.29-34-12.73-9.87-13.47-3.88-30.9,12-36,9.32-3,18.36-2,27,2.49a14.51,14.51,0,0,1,1.56.83c-.64-20.93-1.29-41.5-2-62a78.46,78.46,0,0,0-1-9.13c-.92-5.63-.09-11.07,1.29-16.88,3.23,2.76,6.27,5.35,9.22,8a38.57,38.57,0,0,0,21.49,9.5c7.66.92,13.74,4.43,19.56,9.22A13,13,0,0,1,275,222.9c0,5.35.65,10.7,1.11,16.7-2.12-2.68-4-4.71-5.72-6.83Z"/><path class="cls-4" d="M269.71,211.65c-5.81-4.79-11.9-8.21-19.55-9.22a38.37,38.37,0,0,1-21.49-9.5c-2.95-2.67-6-5.17-9.23-8-1.38,5.81-2.21,11.25-1.29,16.87a76.81,76.81,0,0,1,1,9.13c.74,20.57,1.29,41,2,62a11,11,0,0,1-1.57-.83c-8.67-4.52-17.71-5.53-27-2.49-15.87,5.16-21.86,22.59-12,36,8.48,11.43,20.29,15.31,34,12.72,9.41-1.75,19.64-8.76,20.29-22.59.83-17.71,1.75-35.42,2.4-53.12.37-8.49.37-17,.55-25.37,4.52,1.2,8.85,2.49,13.37,3.42a32.37,32.37,0,0,1,19.19,12.08c1.75,2.12,3.59,4.15,5.81,6.73-.47-6.09-1.11-11.34-1.11-16.69a13.29,13.29,0,0,0-5.44-11.07Z"/></g></g></svg>